SplineFontDB: 3.2
FontName: material
FullName: Material
FamilyName: material
Weight: Regular
Copyright: Copyright (c) 2020, Josef Gabrielsson
Version: 001.000
ItalicAngle: 0
UnderlinePosition: -204
UnderlineWidth: 102
Ascent: 1638
Descent: 410
InvalidEm: 0
sfntRevision: 0x00010000
woffMajor: 1
woffMinor: 0
LayerCount: 2
Layer: 0 0 "Back" 1
Layer: 1 0 "Fore" 0
XUID: [1021 986 1535960322 6876]
StyleMap: 0x0000
FSType: 0
OS2Version: 4
OS2_WeightWidthSlopeOnly: 0
OS2_UseTypoMetrics: 1
CreationTime: 1595553504
ModificationTime: 1614010450
PfmFamily: 17
TTFWeight: 400
TTFWidth: 5
LineGap: 184
VLineGap: 0
Panose: 2 0 5 9 0 0 0 0 0 0
OS2TypoAscent: 1638
OS2TypoAOffset: 0
OS2TypoDescent: -410
OS2TypoDOffset: 0
OS2TypoLinegap: 184
OS2WinAscent: 1638
OS2WinAOffset: 0
OS2WinDescent: 324
OS2WinDOffset: 0
HheadAscent: 1638
HheadAOffset: 0
HheadDescent: -324
HheadDOffset: 0
OS2SubXSize: 1331
OS2SubYSize: 1432
OS2SubXOff: 0
OS2SubYOff: 287
OS2SupXSize: 1331
OS2SupYSize: 1432
OS2SupXOff: 0
OS2SupYOff: 981
OS2StrikeYSize: 100
OS2StrikeYPos: 528
OS2Vendor: 'PfEd'
OS2CodePages: 00000001.00000000
OS2UnicodeRanges: 00000023.0280e4c6.00000000.00000000
MarkAttachClasses: 1
DEI: 91125
LangName: 1033 "" "" "" "FontForge 2.0 : Material : 20-2-2021"
Encoding: UnicodeFull
UnicodeInterp: none
NameList: AGL For New Fonts
DisplaySize: -48
AntiAlias: 1
FitToEm: 0
WinInfo: 127908 22 8
BeginPrivate: 8
BlueValues 37 [-94 -25 881 899 1356 1382 1397 1403]
OtherBlues 11 [-532 -467]
BlueScale 8 0.029411
BlueShift 1 5
StdHW 5 [170]
StdVW 5 [170]
StemSnapH 5 [170]
StemSnapV 5 [170]
EndPrivate
BeginChars: 1114113 218

StartChar: .notdef
Encoding: 1114112 -1 0
Width: 2048
Flags: MW
HStem: 0 102<205 1843 205 1946> 989 102
VStem: 102 102 1843 102
LayerCount: 2
Fore
SplineSet
102 0 m 1
 102 1092 l 1
 1946 1092 l 1
 1946 0 l 1
 102 0 l 1
205 102 m 1
 1843 102 l 1
 1843 989 l 1
 205 989 l 1
 205 102 l 1
EndSplineSet
Validated: 1
EndChar

StartChar: quotedbl
Encoding: 34 34 1
Width: 2048
GlyphClass: 2
Flags: MW
HStem: 528.667 512<426.667 682.667 426.667 938.667 426.667 938.667 426.667 1109.33 1109.33 1365.33>
VStem: 426.667 512<528.667 1040.67 528.667 1040.67> 1109.33 512<528.667 1040.67 528.667 1040.67>
LayerCount: 2
Fore
SplineSet
512 187.333007812 m 1
 682.666992188 528.666992188 l 1
 426.666992188 528.666992188 l 1
 426.666992188 1040.66699219 l 1
 938.666992188 1040.66699219 l 1
 938.666992188 528.666992188 l 1
 768 187.333007812 l 1
 512 187.333007812 l 1
1194.66699219 187.333007812 m 1
 1365.33300781 528.666992188 l 1
 1109.33300781 528.666992188 l 1
 1109.33300781 1040.66699219 l 1
 1621.33300781 1040.66699219 l 1
 1621.33300781 528.666992188 l 1
 1450.66699219 187.333007812 l 1
 1194.66699219 187.333007812 l 1
EndSplineSet
Validated: 524289
EndChar

StartChar: numbersign
Encoding: 35 35 2
Width: 2048
GlyphClass: 2
Flags: MW
HStem: -68.667 21G<682.667 853.333 682.667 682.667 1194.67 1365.33 1194.67 1194.67> 272.667 170.666<341.333 682.667 341.333 682.667 853.333 1194.67 1365.33 1706.67> 784.667 170.666<341.333 682.667 341.333 682.667 853.333 1194.67 1365.33 1706.67>
VStem: 682.667 170.666<-68.667 272.667 -68.667 272.667 443.333 784.667 955.333 1296.67> 1194.67 170.666<-68.667 272.667 -68.667 272.667 443.333 784.667 955.333 1296.67>
LayerCount: 2
Fore
SplineSet
1706.66699219 784.666992188 m 1
 1365.33300781 784.666992188 l 1
 1365.33300781 443.333007812 l 1
 1706.66699219 443.333007812 l 1
 1706.66699219 272.666992188 l 1
 1365.33300781 272.666992188 l 1
 1365.33300781 -68.6669921875 l 1
 1194.66699219 -68.6669921875 l 1
 1194.66699219 272.666992188 l 1
 853.333007812 272.666992188 l 1
 853.333007812 -68.6669921875 l 1
 682.666992188 -68.6669921875 l 1
 682.666992188 272.666992188 l 1
 341.333007812 272.666992188 l 1
 341.333007812 443.333007812 l 1
 682.666992188 443.333007812 l 1
 682.666992188 784.666992188 l 1
 341.333007812 784.666992188 l 1
 341.333007812 955.333007812 l 1
 682.666992188 955.333007812 l 1
 682.666992188 1296.66699219 l 1
 853.333007812 1296.66699219 l 1
 853.333007812 955.333007812 l 1
 1194.66699219 955.333007812 l 1
 1194.66699219 1296.66699219 l 1
 1365.33300781 1296.66699219 l 1
 1365.33300781 955.333007812 l 1
 1706.66699219 955.333007812 l 1
 1706.66699219 784.666992188 l 1
1194.66699219 443.333007812 m 1
 1194.66699219 784.666992188 l 1
 853.333007812 784.666992188 l 1
 853.333007812 443.333007812 l 1
 1194.66699219 443.333007812 l 1
EndSplineSet
Validated: 524289
EndChar

StartChar: dollar
Encoding: 36 36 3
Width: 2048
GlyphClass: 2
Flags: MW
HStem: -154 333<893 1075.5 893 1109 853 1075.5> 1050 333
VStem: 539 188<358 358> 555 196<851.5 938.5 851.5 972.5> 853 256<-154 30 -154 32 -154 32 1198 1382> 1195 189 1212 196<302.5 371.5>
LayerCount: 2
Fore
SplineSet
1007 708 m 0xdc
 1201 658 1408 575 1408 333 c 0
 1408 158 1275 62 1109 30 c 1
 1109 -154 l 1
 853 -154 l 1
 853 32 l 1
 689 67 549 171 539 358 c 1
 727 358 l 1
 736 257 805 179 981 179 c 0
 1170 179 1212 273 1212 332 c 0xea
 1212 411 1169 487 956 538 c 0
 718 595 555 693 555 890 c 0
 555 1055 687 1162 853 1198 c 1
 853 1382 l 1
 1109 1382 l 1
 1109 1196 l 1
 1287 1152 1377 1017 1383 870 c 1
 1195 870 l 1
 1190 977 1133 1050 981 1050 c 0
 837 1050 751 985 751 892 c 0
 751 811 813 758 1007 708 c 0xdc
EndSplineSet
Validated: 1
EndChar

StartChar: plus
Encoding: 43 43 4
Width: 2048
GlyphClass: 2
Flags: MW
HStem: 528.667 170.666<426.667 938.667 426.667 938.667 1109.33 1621.33>
VStem: 938.667 170.666<16.667 528.667 16.667 528.667 699.333 1211.33>
LayerCount: 2
Fore
SplineSet
1621.33300781 528.666992188 m 1
 1109.33300781 528.666992188 l 1
 1109.33300781 16.6669921875 l 1
 938.666992188 16.6669921875 l 1
 938.666992188 528.666992188 l 1
 426.666992188 528.666992188 l 1
 426.666992188 699.333007812 l 1
 938.666992188 699.333007812 l 1
 938.666992188 1211.33300781 l 1
 1109.33300781 1211.33300781 l 1
 1109.33300781 699.333007812 l 1
 1621.33300781 699.333007812 l 1
 1621.33300781 528.666992188 l 1
EndSplineSet
Validated: 524289
EndChar

StartChar: question
Encoding: 63 63 5
Width: 2048
GlyphClass: 2
Flags: MW
HStem: -239 256<939 1109 939 1259.5> 188 171 1212 256<929.5 1118.5>
VStem: 1365 512<832.5 849.5 378.5 964.5>
LayerCount: 2
Fore
SplineSet
1024 1468 m 0
 1495 1468 1877 1085 1877 614 c 0
 1877 143 1495 -239 1024 -239 c 0
 553 -239 171 143 171 614 c 0
 171 1085 553 1468 1024 1468 c 0
1109 17 m 1
 1109 188 l 1
 939 188 l 1
 939 17 l 1
 1109 17 l 1
1286 678 m 2
 1335 727 1365 795 1365 870 c 0
 1365 1059 1213 1212 1024 1212 c 0
 835 1212 683 1059 683 870 c 1
 853 870 l 1
 853 964 930 1041 1024 1041 c 0
 1118 1041 1195 964 1195 870 c 0
 1195 823 1176 781 1144 750 c 2
 1039 643 l 2
 978 581 939 495 939 401 c 2
 939 358 l 1
 1109 358 l 1
 1109 486 1148 538 1209 600 c 2
 1286 678 l 2
EndSplineSet
Validated: 1
EndChar

StartChar: at
Encoding: 64 64 6
Width: 2048
GlyphClass: 2
Flags: MW
HStem: -239.333 170.666 187.333 170.667 870 170.667 1296.67 170.666
VStem: 170.667 170.666 597.333 170.667 1280 170.667 1706.67 170.666
LayerCount: 2
Fore
SplineSet
1024 1467.33300781 m 0
 1495.04003906 1467.33300781 1877.33300781 1085.04003906 1877.33300781 614 c 2
 1877.33300781 491.973632812 l 2
 1877.33300781 323.866210938 1746.7734375 187.333007812 1578.66699219 187.333007812 c 0
 1477.12011719 187.333007812 1381.546875 236.827148438 1326.08007812 312.7734375 c 1
 1249.28027344 235.120117188 1141.75976562 187.333007812 1024 187.333007812 c 0
 788.48046875 187.333007812 597.333007812 378.48046875 597.333007812 614 c 0
 597.333007812 849.51953125 788.48046875 1040.66699219 1024 1040.66699219 c 0
 1259.51953125 1040.66699219 1450.66699219 849.51953125 1450.66699219 614 c 2
 1450.66699219 491.973632812 l 2
 1450.66699219 424.559570312 1511.25292969 358 1578.66699219 358 c 0
 1646.08007812 358 1706.66699219 424.559570312 1706.66699219 491.973632812 c 2
 1706.66699219 614 l 2
 1706.66699219 984.346679688 1394.34667969 1296.66699219 1024 1296.66699219 c 0
 653.653320312 1296.66699219 341.333007812 984.346679688 341.333007812 614 c 0
 341.333007812 243.653320312 653.653320312 -68.6669921875 1024 -68.6669921875 c 2
 1450.66699219 -68.6669921875 l 1
 1450.66699219 -239.333007812 l 1
 1024 -239.333007812 l 2
 552.959960938 -239.333007812 170.666992188 142.959960938 170.666992188 614 c 0
 170.666992188 1085.04003906 552.959960938 1467.33300781 1024 1467.33300781 c 0
1024 358 m 0
 1165.65332031 358 1280 472.346679688 1280 614 c 0
 1280 755.653320312 1165.65332031 870 1024 870 c 0
 882.346679688 870 768 755.653320312 768 614 c 0
 768 472.346679688 882.346679688 358 1024 358 c 0
EndSplineSet
Validated: 524289
EndChar

StartChar: copyright
Encoding: 169 169 7
Width: 2048
GlyphClass: 2
Flags: MW
HStem: -239 171<836 1212 836 1259.5> 241 129 858 131 1297 171<836 1212>
VStem: 171 171 683 171 1151 153<492 492> 1707 171
LayerCount: 2
Fore
SplineSet
1014 858 m 1
 963 856 853 849 853 602 c 0
 853 459 900 372 1012 369 c 1
 1113 374 1148 442 1151 492 c 1
 1304 492 l 1
 1301 381 1199 241 1010 241 c 0
 762 241 683 436 683 602 c 0
 683 870 822 989 1011 989 c 0
 1178 989 1299 886 1306 717 c 1
 1153 717 l 1
 1151 761 1123 853 1014 858 c 1
1024 1468 m 0
 1495 1468 1877 1085 1877 614 c 0
 1877 143 1495 -239 1024 -239 c 0
 553 -239 171 143 171 614 c 0
 171 1085 553 1468 1024 1468 c 0
1024 -68 m 0
 1400 -68 1707 238 1707 614 c 0
 1707 990 1400 1297 1024 1297 c 0
 648 1297 341 990 341 614 c 0
 341 238 648 -68 1024 -68 c 0
EndSplineSet
Validated: 1
EndChar

StartChar: guillemotleft
Encoding: 171 171 8
Width: 2048
GlyphClass: 2
Flags: W
LayerCount: 2
Fore
SplineSet
298.666992188 614 m 1
 725.333007812 1211.33300781 l 1
 1109.33300781 1211.33300781 l 1
 682.666992188 614 l 1
 1109.33300781 16.6669921875 l 1
 725.333007812 16.6669921875 l 1
 298.666992188 614 l 1
896 614 m 1
 1322.66699219 1211.33300781 l 1
 1706.66699219 1211.33300781 l 1
 1280 614 l 1
 1706.66699219 16.6669921875 l 1
 1322.66699219 16.6669921875 l 1
 896 614 l 1
EndSplineSet
Validated: 524289
EndChar

StartChar: guillemotright
Encoding: 187 187 9
Width: 2048
GlyphClass: 2
Flags: W
LayerCount: 2
Fore
SplineSet
1322.66699219 1211.33300781 m 1
 1749.33300781 614 l 1
 1322.66699219 16.6669921875 l 1
 938.666992188 16.6669921875 l 1
 1365.33300781 614 l 1
 938.666992188 1211.33300781 l 1
 1322.66699219 1211.33300781 l 1
725.333007812 1211.33300781 m 1
 1152 614 l 1
 725.333007812 16.6669921875 l 1
 341.333007812 16.6669921875 l 1
 768 614 l 1
 341.333007812 1211.33300781 l 1
 725.333007812 1211.33300781 l 1
EndSplineSet
Validated: 524289
EndChar

StartChar: uni02C2
Encoding: 706 706 10
Width: 2048
GlyphClass: 2
Flags: MW
VStem: 683 632<223 614>
LayerCount: 2
Fore
SplineSet
1315 223 m 1
 1195 102 l 1
 683 614 l 1
 1195 1126 l 1
 1315 1006 l 1
 924 614 l 1
 1315 223 l 1
EndSplineSet
Validated: 1
EndChar

StartChar: uni02C3
Encoding: 707 707 11
Width: 2048
GlyphClass: 2
Flags: MW
VStem: 733 632<223 614 614 1006>
LayerCount: 2
Fore
SplineSet
733 223 m 1
 1124 614 l 1
 733 1006 l 1
 853 1126 l 1
 1365 614 l 1
 853 102 l 1
 733 223 l 1
EndSplineSet
Validated: 1
EndChar

StartChar: uni02C4
Encoding: 708 708 12
Width: 2048
GlyphClass: 2
Flags: MW
HStem: 323 632
LayerCount: 2
Fore
SplineSet
632 323 m 1
 512 444 l 1
 1024 956 l 1
 1536 444 l 1
 1416 323 l 1
 1024 714 l 1
 632 323 l 1
EndSplineSet
Validated: 1
EndChar

StartChar: uni02C5
Encoding: 709 709 13
Width: 2048
GlyphClass: 2
Flags: MW
HStem: 273 632<632 1024>
LayerCount: 2
Fore
SplineSet
632 905 m 1
 1024 515 l 1
 1416 905 l 1
 1536 785 l 1
 1024 273 l 1
 512 785 l 1
 632 905 l 1
EndSplineSet
Validated: 1
EndChar

StartChar: uni1433
Encoding: 5171 5171 14
Width: 2048
GlyphClass: 2
Flags: W
LayerCount: 2
Fore
SplineSet
501.759765625 1286.42675781 m 1
 682.666992188 1467.33300781 l 1
 1536 614 l 1
 682.666992188 -239.333007812 l 1
 501.759765625 -58.4267578125 l 1
 1174.18652344 614 l 1
 501.759765625 1286.42675781 l 1
EndSplineSet
Validated: 524289
EndChar

StartChar: uni1438
Encoding: 5176 5176 15
Width: 2048
GlyphClass: 2
Flags: W
LayerCount: 2
Fore
SplineSet
1356.79980469 1467.33300781 m 1
 1536 1288.13378906 l 1
 861.866210938 614 l 1
 1536 -60.1337890625 l 1
 1356.79980469 -239.333007812 l 1
 503.466796875 614 l 1
 1356.79980469 1467.33300781 l 1
EndSplineSet
Validated: 524289
EndChar

StartChar: uni1BE4
Encoding: 7140 7140 16
Width: 1920
GlyphClass: 2
Flags: MW
HStem: -68.667 21G 534.64 241.067 1017.41 241.067
LayerCount: 2
Fore
SplineSet
85.3330078125 870 m 1
 344.747070312 1128.98632812 684.5859375 1258.47949219 1024.31933594 1258.47949219 c 0
 1364.05273438 1258.47949219 1703.6796875 1128.98632812 1962.66699219 870 c 1
 1792 699.333007812 l 1
 1579.94726562 911.38671875 1301.97363281 1017.4140625 1024 1017.4140625 c 0
 746.026367188 1017.4140625 468.052734375 911.38671875 256 699.333007812 c 1
 85.3330078125 870 l 1
767.999023438 187.333007812 m 1
 838.825195312 258.159179688 931.625976562 293.573242188 1024.31933594 293.573242188 c 0
 1117.01269531 293.573242188 1209.59960938 258.16015625 1279.99902344 187.333007812 c 1
 1023.99902344 -68.6669921875 l 1
 767.999023438 187.333007812 l 1
426.666992188 528.66796875 m 1
 591.786132812 693.361328125 808.106445312 775.708007812 1024.31933594 775.708007812 c 0
 1240.53222656 775.708007812 1456.63867188 693.361328125 1621.33203125 528.66796875 c 1
 1450.66601562 358.000976562 l 1
 1332.90625 475.760742188 1178.453125 534.640625 1024 534.640625 c 0
 869.546875 534.640625 715.09375 475.760742188 597.333007812 358.000976562 c 1
 426.666992188 528.66796875 l 1
EndSplineSet
Validated: 524289
EndChar

StartChar: uni1D31
Encoding: 7473 7473 17
Width: 2048
GlyphClass: 2
Flags: MW
HStem: 187.333 170.667<853.333 1365.33 853.333 1365.33 682.667 1365.33> 528.667 170.666<853.333 1365.33 853.333 1365.33> 870 170.667<853.333 1365.33 853.333 853.333>
VStem: 682.667 170.666<358 528.667 699.333 870> 682.667 682.666<187.333 358 528.667 699.333 870 1040.67>
CounterMasks: 1 e0
LayerCount: 2
Fore
SplineSet
1365.33300781 870 m 1xe8
 853.333007812 870 l 1
 853.333007812 699.333007812 l 1xf0
 1365.33300781 699.333007812 l 1
 1365.33300781 528.666992188 l 1xe8
 853.333007812 528.666992188 l 1
 853.333007812 358 l 1xf0
 1365.33300781 358 l 1
 1365.33300781 187.333007812 l 1
 682.666992188 187.333007812 l 1
 682.666992188 1040.66699219 l 1
 1365.33300781 1040.66699219 l 1
 1365.33300781 870 l 1xe8
EndSplineSet
Validated: 524289
EndChar

StartChar: uni1D33
Encoding: 7475 7475 18
Width: 2048
GlyphClass: 2
Flags: MW
HStem: 187.333 170.667<597.333 768 768 1194.67> 528.667 170.666<1024 1194.67 1024 1365.33> 870 170.667<768 1194.67 768 1194.67 1194.67 1241.6 768 1365.33>
VStem: 597.333 170.667<358 870> 1194.67 170.666<187.333 358 358 528.667 528.667 528.667>
CounterMasks: 1 e0
LayerCount: 2
Fore
SplineSet
1024 699.333007812 m 1
 1365.33300781 699.333007812 l 1
 1365.33300781 358 l 2
 1365.33300781 264.133789062 1288.53320312 187.333007812 1194.66699219 187.333007812 c 2
 768 187.333007812 l 2
 674.133789062 187.333007812 597.333007812 264.133789062 597.333007812 358 c 2
 597.333007812 870 l 2
 597.333007812 963.866210938 674.133789062 1040.66699219 768 1040.66699219 c 2
 1194.66699219 1040.66699219 l 2
 1288.53320312 1040.66699219 1365.33300781 963.866210938 1365.33300781 870 c 1
 768 870 l 1
 768 358 l 1
 1194.66699219 358 l 1
 1194.66699219 528.666992188 l 1
 1024 528.666992188 l 1
 1024 699.333007812 l 1
EndSplineSet
Validated: 524289
EndChar

StartChar: uni1D34
Encoding: 7476 7476 19
Width: 2048
GlyphClass: 2
Flags: MW
HStem: 528.667 170.666<768 1280 768 1280>
VStem: 597.333 170.667<187.333 528.667 187.333 699.333 699.333 1040.67> 1280 170.667<187.333 528.667 528.667 528.667 699.333 1040.67 187.333 1040.67>
LayerCount: 2
Fore
SplineSet
1280 699.333007812 m 1
 1280 1040.66699219 l 1
 1450.66699219 1040.66699219 l 1
 1450.66699219 187.333007812 l 1
 1280 187.333007812 l 1
 1280 528.666992188 l 1
 768 528.666992188 l 1
 768 187.333007812 l 1
 597.333007812 187.333007812 l 1
 597.333007812 1040.66699219 l 1
 768 1040.66699219 l 1
 768 699.333007812 l 1
 1280 699.333007812 l 1
EndSplineSet
Validated: 524289
EndChar

StartChar: uni1D3F
Encoding: 7487 7487 20
Width: 2048
GlyphClass: 2
Flags: MW
HStem: 1012.51 170.666<341.333 500.906 341.333 597.333> 1296.67 170.666<341.333 597.333 341.333 341.333>
VStem: 170.667 170.666<784.667 1012.51 1183.17 1296.67> 597.333 170.667<784.667 784.667 1183.17 1296.67>
LayerCount: 2
Fore
SplineSet
665.599609375 1023.59960938 m 1
 768 784.666992188 l 1
 597.333007812 784.666992188 l 1
 500.90625 1012.50683594 l 1
 341.333007812 1012.50683594 l 1
 341.333007812 784.666992188 l 1
 170.666992188 784.666992188 l 1
 170.666992188 1467.33300781 l 1
 597.333007812 1467.33300781 l 2
 693.759765625 1467.33300781 768 1393.09375 768 1296.66699219 c 2
 768 1183.17285156 l 2
 768 1114.90625 722.7734375 1051.75976562 665.599609375 1023.59960938 c 1
597.333007812 1296.66699219 m 1
 341.333007812 1296.66699219 l 1
 341.333007812 1183.17285156 l 1
 597.333007812 1183.17285156 l 1
 597.333007812 1296.66699219 l 1
EndSplineSet
Validated: 524289
EndChar

StartChar: ellipsis
Encoding: 8230 8230 21
Width: 1920
GlyphClass: 2
Flags: MW
HStem: 443.333 341.334
VStem: 341.333 341.334 853.333 341.334 1365.33 341.334
CounterMasks: 1 70
LayerCount: 2
Fore
SplineSet
512 784.666992188 m 0
 605.866210938 784.666992188 682.666992188 707.866210938 682.666992188 614 c 0
 682.666992188 520.133789062 605.866210938 443.333007812 512 443.333007812 c 0
 418.133789062 443.333007812 341.333007812 520.133789062 341.333007812 614 c 0
 341.333007812 707.866210938 418.133789062 784.666992188 512 784.666992188 c 0
1536 784.666992188 m 0
 1629.86621094 784.666992188 1706.66699219 707.866210938 1706.66699219 614 c 0
 1706.66699219 520.133789062 1629.86621094 443.333007812 1536 443.333007812 c 0
 1442.13378906 443.333007812 1365.33300781 520.133789062 1365.33300781 614 c 0
 1365.33300781 707.866210938 1442.13378906 784.666992188 1536 784.666992188 c 0
1024 784.666992188 m 0
 1117.86621094 784.666992188 1194.66699219 707.866210938 1194.66699219 614 c 0
 1194.66699219 520.133789062 1117.86621094 443.333007812 1024 443.333007812 c 0
 930.133789062 443.333007812 853.333007812 520.133789062 853.333007812 614 c 0
 853.333007812 707.866210938 930.133789062 784.666992188 1024 784.666992188 c 0
EndSplineSet
Validated: 524289
EndChar

StartChar: Euro
Encoding: 8364 8364 22
Width: 2048
GlyphClass: 2
Flags: MW
HStem: -154 213 358 171<256 517 256 556 256 517 788 788 788 1280> 700 171 1169 213<1173.5 1348.5>
VStem: 512 213<599.5 628.5>
LayerCount: 2
Fore
SplineSet
1280 60 m 0
 1418 60 1544 110 1640 194 c 1
 1792 43 l 1
 1656 -79 1477 -154 1280 -154 c 0
 945 -154 662 60 556 358 c 1
 256 358 l 1
 256 529 l 1
 517 529 l 1
 514 557 512 585 512 614 c 0
 512 643 514 672 517 700 c 1
 256 700 l 1
 256 870 l 1
 556 870 l 1
 662 1168 945 1382 1280 1382 c 0
 1476 1382 1656 1308 1792 1186 c 1
 1641 1035 l 1
 1544 1119 1417 1169 1280 1169 c 0
 1067 1169 880 1047 788 870 c 1
 1280 870 l 1
 1280 700 l 1
 732 700 l 1
 728 672 725 643 725 614 c 0
 725 585 728 557 732 529 c 1
 1280 529 l 1
 1280 358 l 1
 788 358 l 1
 880 181 1066 60 1280 60 c 0
EndSplineSet
Validated: 1
EndChar

StartChar: uni20E0
Encoding: 8416 8416 23
Width: 2048
GlyphClass: 2
Flags: MW
HStem: -239 171<835.5 1103 835.5 1259.5> 1297 171<945 1212.5>
VStem: 171 171 1707 171
LayerCount: 2
Fore
SplineSet
1024 1468 m 0
 1495 1468 1877 1085 1877 614 c 0
 1877 143 1495 -239 1024 -239 c 0
 553 -239 171 143 171 614 c 0
 171 1085 553 1468 1024 1468 c 0
1024 -68 m 0
 1182 -68 1327 -14 1442 76 c 1
 486 1033 l 1
 396 918 341 772 341 614 c 0
 341 237 647 -68 1024 -68 c 0
1562 196 m 1
 1652 311 1707 456 1707 614 c 0
 1707 991 1401 1297 1024 1297 c 0
 866 1297 721 1243 606 1153 c 1
 1562 196 l 1
EndSplineSet
Validated: 1
EndChar

StartChar: arrowleft
Encoding: 8592 8592 24
Width: 2048
GlyphClass: 2
Flags: MW
HStem: 528.667 170.666
LayerCount: 2
Fore
SplineSet
768 16.6669921875 m 1
 170.666992188 614 l 1
 768 1211.33300781 l 1
 889.172851562 1091.01367188 l 1
 497.493164062 699.333007812 l 1
 1877.33300781 699.333007812 l 1
 1877.33300781 528.666992188 l 1
 497.493164062 528.666992188 l 1
 888.3203125 136.986328125 l 1
 768 16.6669921875 l 1
EndSplineSet
Validated: 524289
EndChar

StartChar: arrowup
Encoding: 8593 8593 25
Width: 2048
GlyphClass: 2
Flags: MW
VStem: 938.667 170.666
LayerCount: 2
Fore
SplineSet
426.666992188 870 m 1
 1024 1467.33300781 l 1
 1621.33300781 870 l 1
 1501.01367188 748.827148438 l 1
 1109.33300781 1140.50683594 l 1
 1109.33300781 -239.333007812 l 1
 938.666992188 -239.333007812 l 1
 938.666992188 1140.50683594 l 1
 546.986328125 749.6796875 l 1
 426.666992188 870 l 1
EndSplineSet
Validated: 524289
EndChar

StartChar: arrowright
Encoding: 8594 8594 26
Width: 2048
GlyphClass: 2
Flags: MW
HStem: 528.667 170.666
LayerCount: 2
Fore
SplineSet
1280 1211.33300781 m 1
 1877.33300781 614 l 1
 1280 16.6669921875 l 1
 1158.82714844 136.986328125 l 1
 1550.50683594 528.666992188 l 1
 170.666992188 528.666992188 l 1
 170.666992188 699.333007812 l 1
 1550.50683594 699.333007812 l 1
 1159.6796875 1091.01367188 l 1
 1280 1211.33300781 l 1
EndSplineSet
Validated: 524289
EndChar

StartChar: arrowdown
Encoding: 8595 8595 27
Width: 2048
GlyphClass: 2
Flags: MW
VStem: 938.667 170.666
LayerCount: 2
Fore
SplineSet
1621.33300781 358 m 1
 1024 -239.333007812 l 1
 426.666992188 358 l 1
 546.986328125 479.172851562 l 1
 938.666992188 87.4931640625 l 1
 938.666992188 1467.33300781 l 1
 1109.33300781 1467.33300781 l 1
 1109.33300781 87.4931640625 l 1
 1501.01367188 478.3203125 l 1
 1621.33300781 358 l 1
EndSplineSet
Validated: 524289
EndChar

StartChar: arrowupdn
Encoding: 8597 8597 28
Width: 2048
GlyphClass: 2
Flags: MW
HStem: 1362 20G<1024 1024>
VStem: 938.667 170.666<186.48 1041.52 186.48 1041.52>
LayerCount: 2
Fore
SplineSet
1109.33300781 1041.51953125 m 1
 1109.33300781 186.48046875 l 1
 1365.33300781 186.48046875 l 1
 1024 -154 l 1
 682.666992188 186.48046875 l 1
 938.666992188 186.48046875 l 1
 938.666992188 1041.51953125 l 1
 682.666992188 1041.51953125 l 1
 1024 1382 l 1
 1365.33300781 1041.51953125 l 1
 1109.33300781 1041.51953125 l 1
EndSplineSet
Validated: 524289
EndChar

StartChar: uni2196
Encoding: 8598 8598 29
Width: 2048
GlyphClass: 2
Flags: MW
HStem: -68.667 21G 1040.67 170.666
VStem: 426.667 170.666
LayerCount: 2
Fore
SplineSet
426.666992188 358 m 1
 426.666992188 1211.33300781 l 1
 1280 1211.33300781 l 1
 1280 1040.66699219 l 1
 717.653320312 1040.66699219 l 1
 1706.66699219 51.6533203125 l 1
 1586.34667969 -68.6669921875 l 1
 597.333007812 920.346679688 l 1
 597.333007812 358 l 1
 426.666992188 358 l 1
EndSplineSet
Validated: 524289
EndChar

StartChar: uni2197
Encoding: 8599 8599 30
Width: 2048
GlyphClass: 2
Flags: MW
HStem: -68.667 21G 1040.67 170.666
VStem: 1450.67 170.666
LayerCount: 2
Fore
SplineSet
768 1211.33300781 m 1
 1621.33300781 1211.33300781 l 1
 1621.33300781 358 l 1
 1450.66699219 358 l 1
 1450.66699219 920.346679688 l 1
 461.653320312 -68.6669921875 l 1
 341.333007812 51.6533203125 l 1
 1330.34667969 1040.66699219 l 1
 768 1040.66699219 l 1
 768 1211.33300781 l 1
EndSplineSet
Validated: 524289
EndChar

StartChar: uni2198
Encoding: 8600 8600 31
Width: 2048
GlyphClass: 2
Flags: MW
HStem: 16.667 170.666
VStem: 1450.67 170.666
LayerCount: 2
Fore
SplineSet
1621.33300781 870 m 1
 1621.33300781 16.6669921875 l 1
 768 16.6669921875 l 1
 768 187.333007812 l 1
 1330.34667969 187.333007812 l 1
 341.333007812 1176.34667969 l 1
 461.653320312 1296.66699219 l 1
 1450.66699219 307.653320312 l 1
 1450.66699219 870 l 1
 1621.33300781 870 l 1
EndSplineSet
Validated: 524289
EndChar

StartChar: uni2199
Encoding: 8601 8601 32
Width: 2048
GlyphClass: 2
Flags: MW
HStem: 16.667 170.666
VStem: 426.667 170.666
LayerCount: 2
Fore
SplineSet
1280 16.6669921875 m 1
 426.666992188 16.6669921875 l 1
 426.666992188 870 l 1
 597.333007812 870 l 1
 597.333007812 307.653320312 l 1
 1586.34667969 1296.66699219 l 1
 1706.66699219 1176.34667969 l 1
 717.653320312 187.333007812 l 1
 1280 187.333007812 l 1
 1280 16.6669921875 l 1
EndSplineSet
Validated: 524289
EndChar

StartChar: uni21A5
Encoding: 8613 8613 33
Width: 2048
GlyphClass: 2
Flags: MW
HStem: -68.667 170.667 1362 20G<1024 1024>
VStem: 768 512<272.667 784.667 272.667 784.667>
LayerCount: 2
Fore
SplineSet
426.666992188 -68.6669921875 m 1
 426.666992188 102 l 1
 1621.33300781 102 l 1
 1621.33300781 -68.6669921875 l 1
 426.666992188 -68.6669921875 l 1
426.666992188 784.666992188 m 1
 1024 1382 l 1
 1621.33300781 784.666992188 l 1
 1280 784.666992188 l 1
 1280 272.666992188 l 1
 768 272.666992188 l 1
 768 784.666992188 l 1
 426.666992188 784.666992188 l 1
EndSplineSet
Validated: 524289
EndChar

StartChar: uni21A7
Encoding: 8615 8615 34
Width: 2048
GlyphClass: 2
Flags: MW
HStem: -68.667 170.667 1362 20G<768 1280 1280 1280>
VStem: 768 512<870 1382 870 1382>
LayerCount: 2
Fore
SplineSet
426.666992188 -68.6669921875 m 1
 426.666992188 102 l 1
 1621.33300781 102 l 1
 1621.33300781 -68.6669921875 l 1
 426.666992188 -68.6669921875 l 1
1621.33300781 870 m 1
 1024 272.666992188 l 1
 426.666992188 870 l 1
 768 870 l 1
 768 1382 l 1
 1280 1382 l 1
 1280 870 l 1
 1621.33300781 870 l 1
EndSplineSet
Validated: 524289
EndChar

StartChar: uni21C4
Encoding: 8644 8644 35
Width: 1920
GlyphClass: 2
Flags: MW
HStem: -68.667 21G 187.333 170.667 870 170.667
LayerCount: 2
Fore
SplineSet
1877.33300781 955.333007812 m 1
 1536 614 l 1
 1536 870 l 1
 256 870 l 1
 256 1040.66699219 l 1
 1536 1040.66699219 l 1
 1536 1296.66699219 l 1
 1877.33300781 955.333007812 l 1
170.666992188 272.666992188 m 1
 512 614 l 1
 512 358 l 1
 1792 358 l 1
 1792 187.333007812 l 1
 512 187.333007812 l 1
 512 -68.6669921875 l 1
 170.666992188 272.666992188 l 1
EndSplineSet
Validated: 524289
EndChar

StartChar: uni21C5
Encoding: 8645 8645 36
Width: 2048
GlyphClass: 2
Flags: MW
HStem: 1362 20G<768 768>
VStem: 682.667 170.666<443.333 1041.52 443.333 1041.52> 1194.67 170.666<186.48 784.667>
LayerCount: 2
Fore
SplineSet
1365.33300781 186.48046875 m 1
 1621.33300781 186.48046875 l 1
 1280 -154 l 1
 938.666992188 186.48046875 l 1
 1194.66699219 186.48046875 l 1
 1194.66699219 784.666992188 l 1
 1365.33300781 784.666992188 l 1
 1365.33300781 186.48046875 l 1
768 1382 m 1
 1109.33300781 1041.51953125 l 1
 853.333007812 1041.51953125 l 1
 853.333007812 443.333007812 l 1
 682.666992188 443.333007812 l 1
 682.666992188 1041.51953125 l 1
 426.666992188 1041.51953125 l 1
 768 1382 l 1
EndSplineSet
Validated: 524289
EndChar

StartChar: uni21E5
Encoding: 8677 8677 37
Width: 2048
GlyphClass: 2
Flags: MW
HStem: 528.667 170.666<85.333 1294.51 85.333 1294.51>
VStem: 1706.67 170.666<102 1126 102 1126>
LayerCount: 2
Fore
SplineSet
989.013671875 1005.6796875 m 1
 1109.33300781 1126 l 1
 1621.33300781 614 l 1
 1109.33300781 102 l 1
 988.16015625 222.3203125 l 1
 1294.50683594 528.666992188 l 1
 85.3330078125 528.666992188 l 1
 85.3330078125 699.333007812 l 1
 1294.50683594 699.333007812 l 1
 989.013671875 1005.6796875 l 1
1706.66699219 1126 m 1
 1877.33300781 1126 l 1
 1877.33300781 102 l 1
 1706.66699219 102 l 1
 1706.66699219 1126 l 1
EndSplineSet
Validated: 524289
EndChar

StartChar: summation
Encoding: 8721 8721 38
Width: 2048
GlyphClass: 2
Flags: MW
HStem: -68.667 256<938.667 1536 938.667 1536> 1040.67 256<938.667 1536 938.667 938.667>
LayerCount: 2
Fore
SplineSet
1536 1296.66699219 m 1
 1536 1040.66699219 l 1
 938.666992188 1040.66699219 l 1
 1365.33300781 614 l 1
 938.666992188 187.333007812 l 1
 1536 187.333007812 l 1
 1536 -68.6669921875 l 1
 512 -68.6669921875 l 1
 512 102 l 1
 1066.66699219 614 l 1
 512 1126 l 1
 512 1296.66699219 l 1
 1536 1296.66699219 l 1
EndSplineSet
Validated: 524289
EndChar

StartChar: minus
Encoding: 8722 8722 39
Width: 2048
GlyphClass: 2
Flags: MW
HStem: 528.667 170.666<426.667 1621.33 426.667 1621.33>
LayerCount: 2
Fore
SplineSet
1621.33300781 528.666992188 m 1
 426.666992188 528.666992188 l 1
 426.666992188 699.333007812 l 1
 1621.33300781 699.333007812 l 1
 1621.33300781 528.666992188 l 1
EndSplineSet
Validated: 524289
EndChar

StartChar: uni2213
Encoding: 8723 8723 40
Width: 2048
GlyphClass: 2
Flags: MW
HStem: -154 170.667<256 426.667 426.667 1621.33> 272.667 128<1066.67 1237.33 1066.67 1237.33 1365.33 1536> 1040.67 341.333<512 512 512 938.667>
VStem: 256 256<912.667 1040.67 912.667 1211.33 912.667 1258.27> 1237.33 128<102 272.667 102 272.667 400.667 571.333> 1621.33 170.667<-154 16.667 16.667 1211.33>
LayerCount: 2
Fore
SplineSet
1621.33300781 1382 m 2
 1715.20019531 1382 1792 1305.20019531 1792 1211.33300781 c 2
 1792 16.6669921875 l 2
 1792 -77.2001953125 1715.20019531 -154 1621.33300781 -154 c 2
 426.666992188 -154 l 2
 332.799804688 -154 256 -77.2001953125 256 16.6669921875 c 2
 256 1211.33300781 l 2
 256 1305.20019531 332.799804688 1382 426.666992188 1382 c 2
 1621.33300781 1382 l 2
512 1040.66699219 m 1
 512 912.666992188 l 1
 938.666992188 912.666992188 l 1
 938.666992188 1040.66699219 l 1
 512 1040.66699219 l 1
1621.33300781 16.6669921875 m 1
 1621.33300781 1211.33300781 l 1
 426.666992188 16.6669921875 l 1
 1621.33300781 16.6669921875 l 1
1237.33300781 272.666992188 m 1
 1066.66699219 272.666992188 l 1
 1066.66699219 400.666992188 l 1
 1237.33300781 400.666992188 l 1
 1237.33300781 571.333007812 l 1
 1365.33300781 571.333007812 l 1
 1365.33300781 400.666992188 l 1
 1536 400.666992188 l 1
 1536 272.666992188 l 1
 1365.33300781 272.666992188 l 1
 1365.33300781 102 l 1
 1237.33300781 102 l 1
 1237.33300781 272.666992188 l 1
EndSplineSet
Validated: 524289
EndChar

StartChar: infinity
Encoding: 8734 8734 41
Width: 1920
GlyphClass: 2
Flags: MW
HStem: 154.906 170.667 902.427 170.667
VStem: 0 171.52 1876.48 171.52
LayerCount: 2
Fore
SplineSet
1587.20019531 1073.09375 m 0
 1841.49316406 1073.09375 2048 868.29296875 2048 614.853515625 c 0
 2048 361.413085938 1841.49316406 155.759765625 1587.20019531 155.759765625 c 0
 1463.46679688 155.759765625 1348.26660156 203.546875 1261.2265625 289.733398438 c 1
 1152.85351562 385.306640625 l 1
 1281.70703125 499.653320312 l 1
 1378.98632812 413.466796875 l 1
 1437.01367188 355.440429688 1510.40039062 325.573242188 1587.20019531 325.573242188 c 0
 1746.7734375 325.573242188 1876.48046875 454.426757812 1876.48046875 614 c 0
 1876.48046875 773.573242188 1746.7734375 902.426757812 1587.20019531 902.426757812 c 0
 1509.546875 902.426757812 1437.01367188 872.559570312 1382.40039062 817.946289062 c 1
 1152.85351562 614 l 1
 1153.70703125 614 l 1
 1024.85351562 497.946289062 l 1
 1024 498.799804688 l 1
 782.506835938 285.466796875 l 1
 699.733398438 202.693359375 583.6796875 154.90625 460.799804688 154.90625 c 0
 206.506835938 154.90625 0 361.413085938 0 614 c 0
 0 866.586914062 206.506835938 1073.09375 460.799804688 1073.09375 c 0
 583.6796875 1073.09375 699.733398438 1025.30664062 786.7734375 938.266601562 c 1
 894.29296875 843.546875 l 1
 765.440429688 729.200195312 l 1
 669.013671875 814.533203125 l 1
 610.986328125 872.559570312 538.453125 902.426757812 460.799804688 902.426757812 c 0
 301.2265625 902.426757812 171.51953125 773.573242188 171.51953125 614 c 0
 171.51953125 454.426757812 301.2265625 325.573242188 460.799804688 325.573242188 c 0
 538.453125 325.573242188 610.986328125 355.440429688 665.599609375 410.053710938 c 1
 895.146484375 614 l 1
 894.29296875 614 l 1
 1024 728.346679688 l 1
 1265.49316406 942.533203125 l 1
 1348.26660156 1025.30664062 1464.3203125 1073.09375 1587.20019531 1073.09375 c 0
EndSplineSet
Validated: 524289
EndChar

StartChar: equivalence
Encoding: 8801 8801 42
Width: 2048
GlyphClass: 2
Flags: MW
HStem: 102 171<256 1792 256 1792> 529 171<256 1792 256 1792> 956 171
CounterMasks: 1 e0
LayerCount: 2
Fore
SplineSet
256 102 m 1
 256 273 l 1
 1792 273 l 1
 1792 102 l 1
 256 102 l 1
256 529 m 1
 256 700 l 1
 1792 700 l 1
 1792 529 l 1
 256 529 l 1
256 1126 m 1
 1792 1126 l 1
 1792 956 l 1
 256 956 l 1
 256 1126 l 1
EndSplineSet
Validated: 1
EndChar

StartChar: uni2263
Encoding: 8803 8803 43
Width: 2048
GlyphClass: 2
Flags: MW
HStem: 16.667 170.666 358 170.667 699.333 170.667 1040.67 170.666
LayerCount: 2
Fore
SplineSet
256 358 m 1
 256 528.666992188 l 1
 1792 528.666992188 l 1
 1792 358 l 1
 256 358 l 1
256 16.6669921875 m 1
 256 187.333007812 l 1
 1792 187.333007812 l 1
 1792 16.6669921875 l 1
 256 16.6669921875 l 1
256 699.333007812 m 1
 256 870 l 1
 1792 870 l 1
 1792 699.333007812 l 1
 256 699.333007812 l 1
256 1211.33300781 m 1
 1792 1211.33300781 l 1
 1792 1040.66699219 l 1
 256 1040.66699219 l 1
 256 1211.33300781 l 1
EndSplineSet
Validated: 524289
EndChar

StartChar: circleplus
Encoding: 8853 8853 44
Width: 2048
GlyphClass: 2
Flags: MW
HStem: -239.333 170.666 528.667 170.666 1296.67 170.666
VStem: 170.667 170.666 1706.67 170.666
CounterMasks: 1 e0
LayerCount: 2
Fore
SplineSet
597.333007812 699.333007812 m 1
 1450.66699219 699.333007812 l 1
 1450.66699219 528.666992188 l 1
 597.333007812 528.666992188 l 1
 597.333007812 699.333007812 l 1
1024 1467.33300781 m 0
 1495.04003906 1467.33300781 1877.33300781 1085.04003906 1877.33300781 614 c 0
 1877.33300781 142.959960938 1495.04003906 -239.333007812 1024 -239.333007812 c 0
 552.959960938 -239.333007812 170.666992188 142.959960938 170.666992188 614 c 0
 170.666992188 1085.04003906 552.959960938 1467.33300781 1024 1467.33300781 c 0
1024 -68.6669921875 m 0
 1400.3203125 -68.6669921875 1706.66699219 237.6796875 1706.66699219 614 c 0
 1706.66699219 990.3203125 1400.3203125 1296.66699219 1024 1296.66699219 c 0
 647.6796875 1296.66699219 341.333007812 990.3203125 341.333007812 614 c 0
 341.333007812 237.6796875 647.6796875 -68.6669921875 1024 -68.6669921875 c 0
EndSplineSet
Validated: 524289
EndChar

StartChar: uni2296
Encoding: 8854 8854 45
Width: 2048
GlyphClass: 2
Flags: MW
HStem: -239.333 170.666 528.667 170.666 1296.67 170.666
VStem: 170.667 170.666 938.667 170.666 1706.67 170.666
CounterMasks: 1 fc
LayerCount: 2
Fore
SplineSet
1109.33300781 1040.66699219 m 1
 1109.33300781 699.333007812 l 1
 1450.66699219 699.333007812 l 1
 1450.66699219 528.666992188 l 1
 1109.33300781 528.666992188 l 1
 1109.33300781 187.333007812 l 1
 938.666992188 187.333007812 l 1
 938.666992188 528.666992188 l 1
 597.333007812 528.666992188 l 1
 597.333007812 699.333007812 l 1
 938.666992188 699.333007812 l 1
 938.666992188 1040.66699219 l 1
 1109.33300781 1040.66699219 l 1
1024 1467.33300781 m 0
 1495.04003906 1467.33300781 1877.33300781 1085.04003906 1877.33300781 614 c 0
 1877.33300781 142.959960938 1495.04003906 -239.333007812 1024 -239.333007812 c 0
 552.959960938 -239.333007812 170.666992188 142.959960938 170.666992188 614 c 0
 170.666992188 1085.04003906 552.959960938 1467.33300781 1024 1467.33300781 c 0
1024 -68.6669921875 m 0
 1400.3203125 -68.6669921875 1706.66699219 237.6796875 1706.66699219 614 c 0
 1706.66699219 990.3203125 1400.3203125 1296.66699219 1024 1296.66699219 c 0
 647.6796875 1296.66699219 341.333007812 990.3203125 341.333007812 614 c 0
 341.333007812 237.6796875 647.6796875 -68.6669921875 1024 -68.6669921875 c 0
EndSplineSet
Validated: 524289
EndChar

StartChar: uni2298
Encoding: 8856 8856 46
Width: 2048
GlyphClass: 2
Flags: MW
HStem: -239.333 170.666<945.067 1212.59 945.067 1259.52> 1296.67 170.666<835.414 1102.93>
VStem: 170.667 170.666<535.067 802.586 535.067 849.52> 1706.67 170.666<425.414 692.933>
LayerCount: 2
Fore
SplineSet
1024 1467.33300781 m 0
 1495.04003906 1467.33300781 1877.33300781 1085.04003906 1877.33300781 614 c 0
 1877.33300781 142.959960938 1495.04003906 -239.333007812 1024 -239.333007812 c 0
 552.959960938 -239.333007812 170.666992188 142.959960938 170.666992188 614 c 0
 170.666992188 1085.04003906 552.959960938 1467.33300781 1024 1467.33300781 c 0
341.333007812 614 m 0
 341.333007812 456.133789062 395.09375 311.06640625 485.546875 195.866210938 c 1
 1442.13378906 1152.453125 l 1
 1326.93359375 1242.90625 1181.86621094 1296.66699219 1024 1296.66699219 c 0
 646.827148438 1296.66699219 341.333007812 991.172851562 341.333007812 614 c 0
1024 -68.6669921875 m 0
 1401.17285156 -68.6669921875 1706.66699219 236.827148438 1706.66699219 614 c 0
 1706.66699219 771.866210938 1652.90625 916.93359375 1562.453125 1032.13378906 c 1
 605.866210938 75.546875 l 1
 721.06640625 -14.90625 866.133789062 -68.6669921875 1024 -68.6669921875 c 0
EndSplineSet
Validated: 524289
EndChar

StartChar: house
Encoding: 8962 8962 47
Width: 2048
GlyphClass: 2
Flags: MW
HStem: 444 341<853 1195 853 1195>
VStem: 427 427 1195 427 1365 256<1075 1297>
LayerCount: 2
Fore
SplineSet
1621 845 m 1xe0
 1877 614 l 1
 1621 614 l 1xd0
 1621 -68 l 1
 1195 -68 l 1
 1195 444 l 1xe0
 853 444 l 1
 853 -68 l 1
 427 -68 l 1
 427 614 l 1
 171 614 l 1
 1024 1382 l 1
 1365 1075 l 1
 1365 1297 l 1
 1621 1297 l 1xd0
 1621 845 l 1xe0
853 785 m 1
 1195 785 l 1xe0
 1195 879 1118 956 1024 956 c 0
 930 956 853 879 853 785 c 1
EndSplineSet
Validated: 1
EndChar

StartChar: uni231A
Encoding: 8986 8986 48
Width: 1920
GlyphClass: 2
Flags: MW
HStem: -410 512<882.773 1165.23 882.773 1365.33 682.667 1165.23> 1126 512<882.773 1165.23>
VStem: 341.333 170.667 1536 170.667
LayerCount: 2
Fore
SplineSet
1706.66699219 614 m 0
 1706.66699219 397.252929688 1605.12011719 203.546875 1447.25292969 78.9599609375 c 1
 1365.33300781 -410 l 1
 682.666992188 -410 l 1
 601.599609375 78.9599609375 l 1
 442.879882812 203.546875 341.333007812 396.400390625 341.333007812 614 c 0
 341.333007812 831.599609375 442.879882812 1024.453125 601.599609375 1149.04003906 c 1
 682.666992188 1638 l 1
 1365.33300781 1638 l 1
 1447.25292969 1149.04003906 l 1
 1605.12011719 1024.453125 1706.66699219 830.747070312 1706.66699219 614 c 0
512 614 m 0
 512 331.546875 741.546875 102 1024 102 c 0
 1306.453125 102 1536 331.546875 1536 614 c 0
 1536 896.453125 1306.453125 1126 1024 1126 c 0
 741.546875 1126 512 896.453125 512 614 c 0
EndSplineSet
Validated: 524289
EndChar

StartChar: uni231B
Encoding: 8987 8987 49
Width: 2048
GlyphClass: 2
Flags: MW
HStem: 1297 171<683 1365 683 683>
VStem: 512 171<998 998 998 1297> 1365 170
LayerCount: 2
Fore
SplineSet
1536 -239 m 1
 512 -239 l 1
 512 274 l 1
 853 614 l 1
 512 956 l 1
 512 1468 l 1
 1536 1468 l 1
 1535 957 l 1
 1195 614 l 1
 1535 273 l 1
 1536 -239 l 1
683 998 m 1
 1024 657 l 1
 1365 998 l 1
 1365 1297 l 1
 683 1297 l 1
 683 998 l 1
EndSplineSet
Validated: 1
EndChar

StartChar: uni2328
Encoding: 9000 9000 50
Width: 2048
GlyphClass: 2
Flags: MW
HStem: 16.667 170.666 358 170.667 699.333 85.334 955.333 256
VStem: 170.667 256 597.333 85.334 853.333 85.334 1109.33 85.334 1365.33 85.334 1621.33 256
LayerCount: 2
Fore
SplineSet
1706.66699219 1211.33300781 m 2
 1800.53320312 1211.33300781 1877.33300781 1134.53320312 1877.33300781 1040.66699219 c 2
 1877.33300781 187.333007812 l 2
 1877.33300781 93.466796875 1800.53320312 16.6669921875 1706.66699219 16.6669921875 c 2
 341.333007812 16.6669921875 l 2
 247.466796875 16.6669921875 170.666992188 93.466796875 170.666992188 187.333007812 c 2
 171.51953125 1040.66699219 l 2
 171.51953125 1134.53320312 247.466796875 1211.33300781 341.333007812 1211.33300781 c 2
 1706.66699219 1211.33300781 l 2
938.666992188 955.333007812 m 1
 938.666992188 784.666992188 l 1
 1109.33300781 784.666992188 l 1
 1109.33300781 955.333007812 l 1
 938.666992188 955.333007812 l 1
938.666992188 699.333007812 m 1
 938.666992188 528.666992188 l 1
 1109.33300781 528.666992188 l 1
 1109.33300781 699.333007812 l 1
 938.666992188 699.333007812 l 1
682.666992188 955.333007812 m 1
 682.666992188 784.666992188 l 1
 853.333007812 784.666992188 l 1
 853.333007812 955.333007812 l 1
 682.666992188 955.333007812 l 1
682.666992188 699.333007812 m 1
 682.666992188 528.666992188 l 1
 853.333007812 528.666992188 l 1
 853.333007812 699.333007812 l 1
 682.666992188 699.333007812 l 1
597.333007812 528.666992188 m 1
 597.333007812 699.333007812 l 1
 426.666992188 699.333007812 l 1
 426.666992188 528.666992188 l 1
 597.333007812 528.666992188 l 1
597.333007812 784.666992188 m 1
 597.333007812 955.333007812 l 1
 426.666992188 955.333007812 l 1
 426.666992188 784.666992188 l 1
 597.333007812 784.666992188 l 1
1365.33300781 187.333007812 m 1
 1365.33300781 358 l 1
 682.666992188 358 l 1
 682.666992188 187.333007812 l 1
 1365.33300781 187.333007812 l 1
1365.33300781 528.666992188 m 1
 1365.33300781 699.333007812 l 1
 1194.66699219 699.333007812 l 1
 1194.66699219 528.666992188 l 1
 1365.33300781 528.666992188 l 1
1365.33300781 784.666992188 m 1
 1365.33300781 955.333007812 l 1
 1194.66699219 955.333007812 l 1
 1194.66699219 784.666992188 l 1
 1365.33300781 784.666992188 l 1
1621.33300781 528.666992188 m 1
 1621.33300781 699.333007812 l 1
 1450.66699219 699.333007812 l 1
 1450.66699219 528.666992188 l 1
 1621.33300781 528.666992188 l 1
1621.33300781 784.666992188 m 1
 1621.33300781 955.333007812 l 1
 1450.66699219 955.333007812 l 1
 1450.66699219 784.666992188 l 1
 1621.33300781 784.666992188 l 1
EndSplineSet
Validated: 524289
EndChar

StartChar: uni232B
Encoding: 9003 9003 51
Width: 1920
GlyphClass: 2
Flags: MW
HStem: 1362 20G<597.333 1877.33 1877.33 1924.27>
LayerCount: 2
Fore
SplineSet
1877.33300781 1382 m 2
 1971.20019531 1382 2048 1305.20019531 2048 1211.33300781 c 2
 2048 16.6669921875 l 2
 2048 -77.2001953125 1971.20019531 -154 1877.33300781 -154 c 2
 597.333007812 -154 l 2
 538.453125 -154 492.373046875 -123.280273438 461.653320312 -78.0537109375 c 2
 0 614 l 1
 461.653320312 1306.90625 l 2
 492.373046875 1352.13378906 538.453125 1382 597.333007812 1382 c 2
 1877.33300781 1382 l 2
1621.33300781 307.653320312 m 1
 1314.98632812 614 l 1
 1621.33300781 920.346679688 l 1
 1501.01367188 1040.66699219 l 1
 1194.66699219 734.3203125 l 1
 888.3203125 1040.66699219 l 1
 768 920.346679688 l 1
 1074.34667969 614 l 1
 768 307.653320312 l 1
 888.3203125 187.333007812 l 1
 1194.66699219 493.6796875 l 1
 1501.01367188 187.333007812 l 1
 1621.33300781 307.653320312 l 1
EndSplineSet
Validated: 524289
EndChar

StartChar: uni2347
Encoding: 9031 9031 52
Width: 1920
GlyphClass: 2
Flags: MW
HStem: -154 170.667 528.667 170.666 1211.33 170.667
VStem: 170.667 170.666
CounterMasks: 1 e0
LayerCount: 2
Fore
SplineSet
1450.66699219 1040.66699219 m 1
 1877.33300781 614 l 1
 1450.66699219 187.333007812 l 1
 1330.34667969 308.506835938 l 1
 1550.50683594 528.666992188 l 1
 682.666992188 528.666992188 l 1
 682.666992188 699.333007812 l 1
 1550.50683594 699.333007812 l 1
 1330.34667969 920.346679688 l 1
 1450.66699219 1040.66699219 l 1
341.333007812 1211.33300781 m 1
 341.333007812 16.6669921875 l 1
 1024 16.6669921875 l 1
 1024 -154 l 1
 341.333007812 -154 l 2
 247.466796875 -154 170.666992188 -77.2001953125 170.666992188 16.6669921875 c 2
 170.666992188 1211.33300781 l 2
 170.666992188 1305.20019531 247.466796875 1382 341.333007812 1382 c 2
 1024 1382 l 1
 1024 1211.33300781 l 1
 341.333007812 1211.33300781 l 1
EndSplineSet
Validated: 524289
EndChar

StartChar: uni2348
Encoding: 9032 9032 53
Width: 1920
GlyphClass: 2
Flags: MW
HStem: -154 170.667 528.667 170.666 1211.33 170.667
VStem: 1706.67 170.666
CounterMasks: 1 e0
LayerCount: 2
Fore
SplineSet
938.666992188 1040.66699219 m 1
 1365.33300781 614 l 1
 938.666992188 187.333007812 l 1
 819.200195312 306.799804688 l 1
 1041.06640625 528.666992188 l 1
 170.666992188 528.666992188 l 1
 170.666992188 699.333007812 l 1
 1041.06640625 699.333007812 l 1
 819.200195312 921.200195312 l 1
 938.666992188 1040.66699219 l 1
1706.66699219 16.6669921875 m 1
 1706.66699219 1211.33300781 l 1
 1024 1211.33300781 l 1
 1024 1382 l 1
 1706.66699219 1382 l 2
 1800.53320312 1382 1877.33300781 1305.20019531 1877.33300781 1211.33300781 c 2
 1877.33300781 16.6669921875 l 2
 1877.33300781 -77.2001953125 1800.53320312 -154 1706.66699219 -154 c 2
 1024 -154 l 1
 1024 16.6669921875 l 1
 1706.66699219 16.6669921875 l 1
EndSplineSet
Validated: 524289
EndChar

StartChar: uni2349
Encoding: 9033 9033 54
Width: 2048
GlyphClass: 2
Flags: MW
HStem: -239.333 170.666 1296.67 170.666 1378.21 20G
VStem: 170.667 170.666 1706.67 170.666
LayerCount: 2
Fore
SplineSet
239.787109375 1398.21289062 m 1xb8
 1808.21289062 -171.06640625 l 1
 1687.89355469 -291.38671875 l 1
 1494.18652344 -97.6796875 l 1
 1359.36035156 -187.280273438 1198.08007812 -239.333007812 1024 -239.333007812 c 0
 552.959960938 -239.333007812 170.666992188 142.959960938 170.666992188 614 c 0
 170.666992188 788.080078125 222.719726562 949.360351562 312.3203125 1084.18652344 c 1
 118.61328125 1277.89355469 l 1
 239.787109375 1398.21289062 l 1xb8
1024 -68.6669921875 m 0
 1150.29296875 -68.6669921875 1268.05371094 -33.6796875 1370.453125 26.90625 c 1
 436.90625 960.453125 l 1
 376.3203125 858.053710938 341.333007812 740.29296875 341.333007812 614 c 0
 341.333007812 237.6796875 647.6796875 -68.6669921875 1024 -68.6669921875 c 0
677.546875 1201.09375 m 1
 553.813476562 1325.6796875 l 1
 688.639648438 1415.28027344 849.919921875 1467.33300781 1024 1467.33300781 c 0
 1495.04003906 1467.33300781 1877.33300781 1085.04003906 1877.33300781 614 c 0
 1877.33300781 439.919921875 1825.28027344 278.639648438 1735.6796875 143.813476562 c 1
 1611.09375 268.400390625 l 1
 1671.6796875 369.946289062 1706.66699219 487.70703125 1706.66699219 614 c 0
 1706.66699219 990.3203125 1400.3203125 1296.66699219 1024 1296.66699219 c 0xd8
 897.70703125 1296.66699219 779.946289062 1261.6796875 677.546875 1201.09375 c 1
EndSplineSet
Validated: 524289
EndChar

StartChar: uni23CF
Encoding: 9167 9167 55
Width: 2048
GlyphClass: 2
Flags: MW
HStem: 16.667 170.666<426.667 1621.33 426.667 1621.33>
LayerCount: 2
Fore
SplineSet
426.666992188 187.333007812 m 1
 1621.33300781 187.333007812 l 1
 1621.33300781 16.6669921875 l 1
 426.666992188 16.6669921875 l 1
 426.666992188 187.333007812 l 1
1024 1211.33300781 m 1
 1593.17285156 358 l 1
 454.827148438 358 l 1
 1024 1211.33300781 l 1
EndSplineSet
Validated: 524289
EndChar

StartChar: uni23E9
Encoding: 9193 9193 56
Width: 2048
GlyphClass: 2
Flags: W
LayerCount: 2
Fore
SplineSet
341.333007812 102 m 1
 341.333007812 1126 l 1
 1066.66699219 614 l 1
 341.333007812 102 l 1
1109.33300781 1126 m 1
 1834.66699219 614 l 1
 1109.33300781 102 l 1
 1109.33300781 1126 l 1
EndSplineSet
Validated: 524289
EndChar

StartChar: uni23EA
Encoding: 9194 9194 57
Width: 2048
GlyphClass: 2
Flags: W
LayerCount: 2
Fore
SplineSet
938.666992188 102 m 1
 213.333007812 614 l 1
 938.666992188 1126 l 1
 938.666992188 102 l 1
981.333007812 614 m 1
 1706.66699219 1126 l 1
 1706.66699219 102 l 1
 981.333007812 614 l 1
EndSplineSet
Validated: 524289
EndChar

StartChar: uni23F0
Encoding: 9200 9200 58
Width: 1920
GlyphClass: 2
Flags: MW
HStem: -239.333 170.666 1126 170.667
VStem: 256 170.667 938.667 128 1621.33 170.667
LayerCount: 2
Fore
SplineSet
1877.33300781 1149.89355469 m 1
 1767.25292969 1019.33300781 l 1
 1374.71972656 1348.71972656 l 1
 1484.79980469 1479.28027344 l 1
 1877.33300781 1149.89355469 l 1
672.426757812 1348.71972656 m 1
 280.747070312 1020.18652344 l 1
 170.666992188 1150.74707031 l 1
 563.200195312 1479.28027344 l 1
 672.426757812 1348.71972656 l 1
1066.66699219 955.333007812 m 1
 1066.66699219 507.333007812 l 1
 1408 305.09375 l 1
 1344 200.133789062 l 1
 938.666992188 443.333007812 l 1
 938.666992188 955.333007812 l 1
 1066.66699219 955.333007812 l 1
1024 1296.66699219 m 0
 1448.10644531 1296.66699219 1792 952.7734375 1792 528.666992188 c 0
 1792 104.559570312 1448.10644531 -239.333007812 1024 -239.333007812 c 0
 599.040039062 -239.333007812 256 104.559570312 256 528.666992188 c 0
 256 952.7734375 599.893554688 1296.66699219 1024 1296.66699219 c 0
1024 -68.6669921875 m 0
 1354.24023438 -68.6669921875 1621.33300781 198.426757812 1621.33300781 528.666992188 c 0
 1621.33300781 858.90625 1354.24023438 1126 1024 1126 c 0
 693.759765625 1126 426.666992188 858.90625 426.666992188 528.666992188 c 0
 426.666992188 198.426757812 693.759765625 -68.6669921875 1024 -68.6669921875 c 0
EndSplineSet
Validated: 524289
EndChar

StartChar: uni23F2
Encoding: 9202 9202 59
Width: 1920
GlyphClass: 2
Flags: MW
HStem: -239.333 170.666 1126 170.667 1382 170.667
VStem: 256 170.667 938.667 170.666 1621.33 170.667
CounterMasks: 1 1c
LayerCount: 2
Fore
SplineSet
1280 1552.66699219 m 1
 1280 1382 l 1
 768 1382 l 1
 768 1552.66699219 l 1
 1280 1552.66699219 l 1
938.666992188 443.333007812 m 1
 938.666992188 955.333007812 l 1
 1109.33300781 955.333007812 l 1
 1109.33300781 443.333007812 l 1
 938.666992188 443.333007812 l 1
1623.89355469 1007.38671875 m 1
 1728.85351562 875.973632812 1792 709.573242188 1792 528.666992188 c 0
 1792 104.559570312 1448.95996094 -239.333007812 1024 -239.333007812 c 0
 599.040039062 -239.333007812 256 104.559570312 256 528.666992188 c 0
 256 952.7734375 599.893554688 1296.66699219 1024 1296.66699219 c 0
 1204.90625 1296.66699219 1371.30664062 1233.51953125 1503.57324219 1127.70703125 c 1
 1624.74707031 1248.87988281 l 1
 1668.26660156 1213.04003906 1708.37304688 1172.08007812 1745.06640625 1128.55957031 c 1
 1623.89355469 1007.38671875 l 1
1024 -68.6669921875 m 0
 1354.24023438 -68.6669921875 1621.33300781 198.426757812 1621.33300781 528.666992188 c 0
 1621.33300781 858.90625 1354.24023438 1126 1024 1126 c 0
 693.759765625 1126 426.666992188 858.90625 426.666992188 528.666992188 c 0
 426.666992188 198.426757812 693.759765625 -68.6669921875 1024 -68.6669921875 c 0
EndSplineSet
Validated: 524289
EndChar

StartChar: uni23F3
Encoding: 9203 9203 60
Width: 2048
GlyphClass: 2
Flags: MW
HStem: -239 171<683 1365 683 1536>
VStem: 512 171 1365 171<-68 230 230 230>
LayerCount: 2
Fore
SplineSet
512 1468 m 1
 1536 1468 l 1
 1536 955 l 1
 1195 614 l 1
 1536 273 l 1
 1536 -239 l 1
 512 -239 l 1
 513 272 l 1
 853 614 l 1
 513 956 l 1
 512 1468 l 1
1365 230 m 1
 1024 572 l 1
 683 230 l 1
 683 -68 l 1
 1365 -68 l 1
 1365 230 l 1
EndSplineSet
Validated: 1
EndChar

StartChar: uni23FB
Encoding: 9211 9211 61
Width: 2048
GlyphClass: 2
Flags: MW
HStem: -154 170.667 1362 20G<938.667 1109.33 1109.33 1109.33>
VStem: 256 170.667 938.667 170.666 1621.33 170.667
CounterMasks: 1 38
LayerCount: 2
Fore
SplineSet
1109.33300781 1382 m 1
 1109.33300781 528.666992188 l 1
 938.666992188 528.666992188 l 1
 938.666992188 1382 l 1
 1109.33300781 1382 l 1
1521.49316406 1196.82714844 m 1
 1687.04003906 1056.02636719 1792 847.813476562 1792 614 c 0
 1792 189.893554688 1448.10644531 -154 1024 -154 c 0
 599.893554688 -154 256 189.893554688 256 614 c 0
 256 847.813476562 360.959960938 1056.02636719 526.506835938 1196.82714844 c 1
 646.827148438 1076.50683594 l 1
 512.853515625 967.280273438 426.666992188 800.879882812 426.666992188 614 c 0
 426.666992188 283.759765625 693.759765625 16.6669921875 1024 16.6669921875 c 0
 1354.24023438 16.6669921875 1621.33300781 283.759765625 1621.33300781 614 c 0
 1621.33300781 800.879882812 1535.14648438 967.280273438 1400.3203125 1075.65332031 c 1
 1521.49316406 1196.82714844 l 1
EndSplineSet
Validated: 524289
EndChar

StartChar: uni24D5
Encoding: 9429 9429 62
Width: 2048
GlyphClass: 2
Flags: MW
HStem: 614 256<1195 1365 1195 1365 1109 1365> 1126 341
VStem: 1365 512<392.5 614 614 614 392.5 1126 392.5 1126>
LayerCount: 2
Fore
SplineSet
1877 614 m 0
 1877 171 1540 -192 1109 -235 c 1
 1109 358 l 1
 1365 358 l 1
 1365 614 l 1
 1109 614 l 1
 1109 785 l 2
 1109 832 1148 870 1195 870 c 2
 1365 870 l 1
 1365 1126 l 1
 1152 1126 l 2
 987 1126 853 993 853 828 c 2
 853 614 l 1
 683 614 l 1
 683 358 l 1
 853 358 l 1
 853 -222 l 1
 464 -143 171 201 171 614 c 0
 171 1085 553 1468 1024 1468 c 0
 1495 1468 1877 1085 1877 614 c 0
EndSplineSet
Validated: 1
EndChar

StartChar: uni24E3
Encoding: 9443 9443 63
Width: 1920
GlyphClass: 2
Flags: MW
HStem: -270.1 417.736 991.952 506.147
VStem: 75.9004 438.514 1404.7 439.397
LayerCount: 2
Fore
SplineSet
960 1498.09960938 m 0
 1447.94726562 1498.09960938 1844.09960938 1101.94726562 1844.09960938 614 c 0
 1844.09960938 126.052734375 1447.94726562 -270.099609375 960 -270.099609375 c 0
 472.052734375 -270.099609375 75.900390625 126.052734375 75.900390625 614 c 0
 75.900390625 1101.94726562 472.052734375 1498.09960938 960 1498.09960938 c 0
798.208984375 147.63671875 m 0
 1190.30957031 147.63671875 1404.70214844 472.544921875 1404.70214844 754.129882812 c 0
 1404.70214844 763.412109375 1404.70214844 772.694335938 1404.26074219 781.537109375 c 1
 1445.81347656 811.59765625 1482.06152344 849.170898438 1510.79394531 892.048828125 c 1
 1472.77832031 875.252929688 1431.66894531 863.758789062 1388.34570312 858.453125 c 1
 1432.55273438 884.978515625 1466.14648438 926.530273438 1482.06152344 976.479492188 c 1
 1440.95019531 952.166992188 1395.42089844 934.486328125 1346.79394531 924.760742188 c 1
 1307.89453125 966.314453125 1252.63671875 991.952148438 1191.19335938 991.952148438 c 0
 1073.60644531 991.952148438 978.124023438 896.46875 978.124023438 778.884765625 c 0
 978.124023438 762.086914062 979.892578125 745.73046875 983.87109375 730.259765625 c 1
 806.607421875 739.100585938 649.682617188 823.974609375 544.473632812 953.053710938 c 1
 526.349609375 921.666992188 515.739257812 884.978515625 515.739257812 846.075195312 c 0
 515.739257812 772.252929688 553.3125 706.830078125 610.779296875 668.814453125 c 1
 575.860351562 669.697265625 543.146484375 679.422851562 514.4140625 695.336914062 c 1
 514.4140625 692.684570312 l 2
 514.4140625 589.24609375 587.794921875 503.48828125 685.487304688 483.594726562 c 1
 667.8046875 478.731445312 648.794921875 476.081054688 629.34765625 476.081054688 c 0
 615.643554688 476.081054688 602.380859375 477.40625 589.120117188 480.060546875 c 1
 616.084960938 395.184570312 694.770507812 333.739257812 788.04296875 331.97265625 c 1
 715.10546875 274.946289062 623.158203125 240.91015625 523.254882812 240.91015625 c 0
 506.013671875 240.91015625 489.216796875 241.794921875 472.41796875 244.004882812 c 1
 565.690429688 183 677.97265625 147.63671875 798.208984375 147.63671875 c 0
EndSplineSet
Validated: 524289
EndChar

StartChar: filledbox
Encoding: 9632 9632 64
Width: 2048
GlyphClass: 2
Flags: MW
HStem: -154 1621
VStem: 85 1877
LayerCount: 2
Fore
SplineSet
85 -154 m 1
 85 1468 l 1
 1963 1468 l 1
 1963 -154 l 1
 85 -154 l 1
EndSplineSet
Validated: 1
EndChar

StartChar: H18543
Encoding: 9642 9642 65
Width: 2048
GlyphClass: 2
Flags: MW
HStem: 102 1024<512 1536 512 1536>
VStem: 512 1024<102 1126 102 1126>
LayerCount: 2
Fore
SplineSet
512 1126 m 1
 1536 1126 l 1
 1536 102 l 1
 512 102 l 1
 512 1126 l 1
EndSplineSet
Validated: 1
EndChar

StartChar: triagup
Encoding: 9650 9650 66
Width: 2048
GlyphClass: 2
Flags: W
LayerCount: 2
Fore
SplineSet
85 -154 m 1
 1024 1468 l 1
 1963 -154 l 1
 85 -154 l 1
EndSplineSet
Validated: 1
EndChar

StartChar: uni25B5
Encoding: 9653 9653 67
Width: 2048
GlyphClass: 2
Flags: MW
HStem: -68 171
LayerCount: 2
Fore
SplineSet
1024 975 m 1
 479 102 l 1
 1569 102 l 1
 1024 975 l 1
1024 1297 m 1
 1877 -68 l 1
 171 -68 l 1
 1024 1297 l 1
EndSplineSet
Validated: 1
EndChar

StartChar: triagrt
Encoding: 9658 9658 68
Width: 1920
GlyphClass: 2
Flags: W
LayerCount: 2
Fore
SplineSet
682.666992188 1211.33300781 m 1
 1621.33300781 614 l 1
 682.666992188 16.6669921875 l 1
 682.666992188 1211.33300781 l 1
EndSplineSet
Validated: 524289
EndChar

StartChar: H18533
Encoding: 9679 9679 69
Width: 2048
GlyphClass: 2
Flags: W
LayerCount: 2
Fore
SplineSet
341.333007812 614 m 0
 341.333007812 991.026367188 646.973632812 1296.66699219 1024 1296.66699219 c 0
 1401.02636719 1296.66699219 1706.66699219 991.026367188 1706.66699219 614 c 0
 1706.66699219 236.973632812 1401.02636719 -68.6669921875 1024 -68.6669921875 c 0
 646.973632812 -68.6669921875 341.333007812 236.973632812 341.333007812 614 c 0
EndSplineSet
Validated: 524289
EndChar

StartChar: uni2601
Encoding: 9729 9729 70
Width: 2048
GlyphClass: 2
Flags: MW
HStem: -68 1365<371 1179.5 900.5 1179.5 900.5 1621>
LayerCount: 2
Fore
SplineSet
1651 782 m 1
 1873 767 2048 583 2048 358 c 0
 2048 122 1857 -68 1621 -68 c 2
 512 -68 l 2
 230 -68 0 162 0 444 c 0
 0 708 200 925 457 952 c 1
 564 1157 777 1297 1024 1297 c 0
 1335 1297 1593 1076 1651 782 c 1
EndSplineSet
Validated: 1
EndChar

StartChar: uni2602
Encoding: 9730 9730 71
Width: 2048
GlyphClass: 2
Flags: MW
HStem: 1389 164<1140 1164>
VStem: 939 171 1195 171
LayerCount: 2
Fore
SplineSet
1237 1048 m 1
 1536 1120 l 1
 1105 -180 l 2
 1092 -219 1058 -239 1024 -239 c 0
 990 -239 956 -219 943 -181 c 2
 512 1120 l 1
 811 1048 l 1
 939 1146 l 1
 939 1307 l 1
 939 1348 l 2
 939 1461 1034 1553 1152 1553 c 0
 1270 1553 1365 1461 1365 1348 c 2
 1365 1297 l 1
 1195 1297 l 1
 1195 1348 l 2
 1195 1371 1176 1389 1152 1389 c 0
 1128 1389 1109 1370 1109 1348 c 2
 1109 1307 l 1
 1109 1146 l 1
 1237 1048 l 1
1133 913 m 1
 1109 931 l 1
 1109 375 l 1
 1277 883 l 1
 1198 864 l 1
 1133 913 l 1
850 863 m 1
 771 882 l 1
 939 375 l 1
 939 931 l 1
 915 912 l 1
 850 863 l 1
EndSplineSet
Validated: 1
EndChar

StartChar: uni2605
Encoding: 9733 9733 72
Width: 2048
GlyphClass: 2
Flags: W
LayerCount: 2
Fore
SplineSet
1231 785 m 1
 1877 785 l 1
 1351 409 l 1
 1551 -239 l 1
 1024 161 l 1
 497 -239 l 1
 698 409 l 1
 171 785 l 1
 817 785 l 1
 1024 1468 l 1
 1231 785 l 1
EndSplineSet
Validated: 1
EndChar

StartChar: uni263E
Encoding: 9790 9790 73
Width: 2048
GlyphClass: 2
Flags: MW
HStem: -239.333 1706.67
VStem: 341.333 853.334
LayerCount: 2
Fore
SplineSet
1194.66699219 1467.33300781 m 0
 1349.97363281 1467.33300781 1495.89355469 1424.66699219 1621.33300781 1352.13378906 c 1
 1366.18652344 1204.50683594 1194.66699219 929.733398438 1194.66699219 614 c 0
 1194.66699219 298.266601562 1366.18652344 23.4931640625 1621.33300781 -124.133789062 c 1
 1495.89355469 -196.666992188 1349.97363281 -239.333007812 1194.66699219 -239.333007812 c 0
 723.626953125 -239.333007812 341.333007812 142.959960938 341.333007812 614 c 0
 341.333007812 1085.04003906 723.626953125 1467.33300781 1194.66699219 1467.33300781 c 0
EndSplineSet
Validated: 524289
EndChar

StartChar: female
Encoding: 9792 9792 74
Width: 2048
GlyphClass: 2
Flags: MW
HStem: 16.667 170.666 366.533 162.134 1126 170.667
VStem: 554.667 170.666 938.667 170.666 1322.67 170.666
CounterMasks: 1 1c
LayerCount: 2
Fore
SplineSet
1493.33300781 827.333007812 m 0
 1493.33300781 596.93359375 1327.78710938 406.639648438 1109.33300781 366.533203125 c 1
 1109.33300781 187.333007812 l 1
 1280 187.333007812 l 1
 1280 16.6669921875 l 1
 1109.33300781 16.6669921875 l 1
 1109.33300781 -154 l 1
 938.666992188 -154 l 1
 938.666992188 16.6669921875 l 1
 768 16.6669921875 l 1
 768 187.333007812 l 1
 938.666992188 187.333007812 l 1
 938.666992188 366.533203125 l 1
 720.212890625 406.639648438 554.666992188 596.93359375 554.666992188 827.333007812 c 0
 554.666992188 1086.74707031 764.586914062 1296.66699219 1024 1296.66699219 c 0
 1283.41308594 1296.66699219 1493.33300781 1086.74707031 1493.33300781 827.333007812 c 0
725.333007812 827.333007812 m 0
 725.333007812 662.639648438 859.306640625 528.666992188 1024 528.666992188 c 0
 1188.69335938 528.666992188 1322.66699219 662.639648438 1322.66699219 827.333007812 c 0
 1322.66699219 992.026367188 1188.69335938 1126 1024 1126 c 0
 859.306640625 1126 725.333007812 992.026367188 725.333007812 827.333007812 c 0
EndSplineSet
Validated: 524289
EndChar

StartChar: male
Encoding: 9794 9794 75
Width: 2048
GlyphClass: 2
Flags: MW
HStem: -68.667 170.667 699.333 170.667 1126 170.667
VStem: 341.333 170.667 1109.33 170.667 1536 170.667
LayerCount: 2
Fore
SplineSet
810.666992188 699.333007812 m 0
 645.973632812 699.333007812 512 565.360351562 512 400.666992188 c 0
 512 235.973632812 645.973632812 102 810.666992188 102 c 0
 975.360351562 102 1109.33300781 235.973632812 1109.33300781 400.666992188 c 0
 1109.33300781 565.360351562 975.360351562 699.333007812 810.666992188 699.333007812 c 0
810.666992188 870 m 0
 909.653320312 870 1000.95996094 839.280273438 1076.05371094 787.2265625 c 1
 1414.82714844 1126 l 1
 1194.66699219 1126 l 1
 1194.66699219 1296.66699219 l 1
 1706.66699219 1296.66699219 l 1
 1706.66699219 784.666992188 l 1
 1536 784.666992188 l 1
 1536 1004.82714844 l 1
 1197.2265625 666.90625 l 1
 1249.28027344 590.959960938 1280 499.653320312 1280 400.666992188 c 0
 1280 141.252929688 1070.08007812 -68.6669921875 810.666992188 -68.6669921875 c 0
 551.252929688 -68.6669921875 341.333007812 141.252929688 341.333007812 400.666992188 c 0
 341.333007812 660.080078125 551.252929688 870 810.666992188 870 c 0
EndSplineSet
Validated: 524289
EndChar

StartChar: uni2661
Encoding: 9825 9825 76
Width: 2048
GlyphClass: 2
Flags: MW
HStem: 1212 171
VStem: 171 171 1707 171
LayerCount: 2
Fore
SplineSet
1408 1382 m 0
 1671 1382 1877 1176 1877 913 c 0
 1877 590 1587 328 1148 -71 c 2
 1024 -183 l 1
 900 -72 l 1
 461 327 171 590 171 913 c 0
 171 1176 377 1382 640 1382 c 0
 788 1382 931 1313 1024 1204 c 1
 1117 1313 1260 1382 1408 1382 c 0
1033 55 m 1
 1439 423 1707 666 1707 913 c 0
 1707 1084 1579 1212 1408 1212 c 0
 1277 1212 1148 1127 1104 1010 c 1
 945 1010 l 1
 900 1127 771 1212 640 1212 c 0
 469 1212 341 1084 341 913 c 0
 341 666 609 423 1015 55 c 1
 1024 47 l 1
 1033 55 l 1
EndSplineSet
Validated: 1
EndChar

StartChar: heart
Encoding: 9829 9829 77
Width: 2048
GlyphClass: 2
Flags: MW
VStem: 171 1707
LayerCount: 2
Fore
SplineSet
1024 -183 m 1
 900 -71 l 2
 461 328 171 590 171 913 c 0
 171 1176 377 1382 640 1382 c 0
 788 1382 931 1313 1024 1204 c 1
 1117 1313 1260 1382 1408 1382 c 0
 1671 1382 1877 1176 1877 913 c 0
 1877 590 1587 327 1148 -72 c 1
 1024 -183 l 1
EndSplineSet
Validated: 1
EndChar

StartChar: musicalnote
Encoding: 9834 9834 78
Width: 2048
GlyphClass: 2
Flags: MW
HStem: -154 768<790 918.5 790 994.5> 1126 256<1280 1621 1280 1280>
VStem: 512 768<188 336> 1024 256<591 1126 188 1382>
LayerCount: 2
Fore
SplineSet
1024 1382 m 1xd0
 1621 1382 l 1
 1621 1126 l 1
 1280 1126 l 1xd0
 1280 188 l 1
 1276 188 l 1
 1255 -4 1093 -154 896 -154 c 0
 684 -154 512 18 512 230 c 0xe0
 512 442 684 614 896 614 c 0
 941 614 984 606 1024 591 c 1
 1024 1382 l 1xd0
EndSplineSet
Validated: 1
EndChar

StartChar: uni267F
Encoding: 9855 9855 79
Width: 2048
GlyphClass: 2
Flags: MW
HStem: -239.333 170.666<697.6 838.4 697.6 885.76> 272.667 213.333<1291.95 1450.67> 443.333 170.667<697.6 768> 870 170.667<835.412 1024 835.412 835.412> 1079.92 341.333<1403.54 1497.79>
VStem: 341.333 170.667<116.933 257.733 116.933 305.093> 1024 170.667<116.933 187.333> 1280 341.333<1203.46 1297.72> 1450.67 170.666
LayerCount: 2
Fore
SplineSet
1280 1250.58691406 m 0x9f
 1280 1344.84375 1356.41015625 1421.25292969 1450.66699219 1421.25292969 c 0x9e80
 1544.92285156 1421.25292969 1621.33300781 1344.84375 1621.33300781 1250.58691406 c 0x9f
 1621.33300781 1156.33007812 1544.92285156 1079.91992188 1450.66699219 1079.91992188 c 0x9e80
 1356.41015625 1079.91992188 1280 1156.33007812 1280 1250.58691406 c 0x9f
1194.66699219 187.333007812 m 1
 1194.66699219 -48.1865234375 1003.51953125 -239.333007812 768 -239.333007812 c 0
 532.48046875 -239.333007812 341.333007812 -48.1865234375 341.333007812 187.333007812 c 0
 341.333007812 422.853515625 532.48046875 614 768 614 c 1
 768 443.333007812 l 1xbe
 627.200195312 443.333007812 512 328.133789062 512 187.333007812 c 0
 512 46.533203125 627.200195312 -68.6669921875 768 -68.6669921875 c 0
 908.799804688 -68.6669921875 1024 46.533203125 1024 187.333007812 c 1
 1194.66699219 187.333007812 l 1
1450.66699219 486 m 2xde80
 1544.53320312 486 1621.33105469 409.200195312 1621.33105469 315.333007812 c 2
 1621.33105469 -154 l 1
 1450.66503906 -154 l 1
 1450.66503906 272.666992188 l 1
 1025.70507812 272.666992188 l 2
 926.4375 272.666992188 852.631835938 357.719726562 852.631835938 449.698242188 c 0
 852.631835938 473.158203125 857.43359375 497.069335938 867.838867188 520.133789062 c 2
 1023.99902344 870 l 1
 835.412109375 870 l 1
 779.9453125 739.440429688 l 1
 616.10546875 784.666992188 l 1
 673.279296875 938.266601562 l 1
 701.439453125 1000.55957031 763.732421875 1040.66699219 832.852539062 1040.66699219 c 2
 1276.5859375 1040.66699219 l 2
 1376.80859375 1040.66699219 1450.16210938 960.05859375 1450.16210938 870.059570312 c 0
 1450.16210938 846.6484375 1445.19824219 822.6015625 1434.453125 799.172851562 c 2
 1291.94628906 486 l 1
 1450.66699219 486 l 2xde80
EndSplineSet
Validated: 524289
EndChar

StartChar: uni2690
Encoding: 9872 9872 80
Width: 2048
GlyphClass: 2
Flags: MW
HStem: 273 171<1195 1536 597 1109> 444 171 956 171 1126 171<597 1024 597 597 427 1707>
VStem: 427 171 1536 171<444 956 956 956>
LayerCount: 2
Fore
SplineSet
1195 1126 m 1x2c
 1707 1126 l 1
 1707 273 l 1
 1109 273 l 1x9c
 1024 444 l 1
 597 444 l 1
 597 -154 l 1
 427 -154 l 1
 427 1297 l 1
 1109 1297 l 1x5c
 1195 1126 l 1x2c
1536 444 m 1
 1536 956 l 1
 1109 956 l 1xac
 1024 1126 l 1
 597 1126 l 1
 597 614 l 1
 1109 614 l 1x5c
 1195 444 l 1
 1536 444 l 1
EndSplineSet
Validated: 1
EndChar

StartChar: uni2691
Encoding: 9873 9873 81
Width: 2048
GlyphClass: 2
Flags: MW
VStem: 427 171
LayerCount: 2
Fore
SplineSet
1229 1126 m 1
 1707 1126 l 1
 1707 273 l 1
 1109 273 l 1
 1075 444 l 1
 597 444 l 1
 597 -154 l 1
 427 -154 l 1
 427 1297 l 1
 1195 1297 l 1
 1229 1126 l 1
EndSplineSet
Validated: 1
EndChar

StartChar: uni2693
Encoding: 9875 9875 82
Width: 2048
GlyphClass: 2
Flags: MW
HStem: -239 177 700 171 1297 171<1000.5 1047.5>
VStem: 768 171<1188.5 1235.5> 939 171 1109 171<1188.5 1235.5>
LayerCount: 2
Fore
SplineSet
1451 358 m 1xe8
 1792 614 l 1
 1792 358 l 2
 1792 27 1372 -239 1024 -239 c 0
 676 -239 256 27 256 358 c 2
 256 614 l 1
 597 358 l 1
 465 226 l 1
 547 82 750 -33 939 -61 c 1
 939 700 l 1
 683 700 l 1
 683 870 l 1
 939 870 l 1
 939 971 l 1xe8
 840 1007 768 1101 768 1212 c 0
 768 1353 883 1468 1024 1468 c 0
 1165 1468 1280 1353 1280 1212 c 0xf4
 1280 1101 1208 1007 1109 971 c 1
 1109 870 l 1
 1365 870 l 1
 1365 700 l 1
 1109 700 l 1
 1109 -61 l 1
 1298 -33 1501 82 1583 226 c 1
 1451 358 l 1xe8
1024 1297 m 0
 977 1297 939 1259 939 1212 c 0
 939 1165 977 1126 1024 1126 c 0
 1071 1126 1109 1165 1109 1212 c 0xf4
 1109 1259 1071 1297 1024 1297 c 0
EndSplineSet
Validated: 1
EndChar

StartChar: uni2699
Encoding: 9881 9881 83
Width: 2048
GlyphClass: 2
Flags: MW
HStem: -205 512<850 1108.5 939.5 1108.5 939.5 1188> 922 512<939.5 1108.5>
VStem: 410 307<601 627> 819 409<-170 -170> 1331 307<600 627.5 600 698.5>
LayerCount: 2
Fore
SplineSet
1633 534 m 1
 1805 399 l 2
 1821 387 1825 366 1815 347 c 2
 1651 64 l 2
 1641 45 1620 38 1601 45 c 2
 1397 127 l 1
 1355 95 1309 67 1259 47 c 1
 1228 -170 l 2
 1225 -190 1208 -205 1188 -205 c 2
 860 -205 l 2
 840 -205 823 -190 819 -170 c 2
 788 47 l 1
 738 67 693 95 650 127 c 1
 446 45 l 2
 427 39 406 45 396 64 c 2
 232 347 l 2
 223 364 227 387 242 399 c 2
 416 534 l 1
 412 560 410 588 410 614 c 0
 410 640 413 669 417 695 c 1
 244 829 l 2
 227 841 224 863 234 881 c 2
 397 1165 l 2
 407 1184 428 1191 447 1184 c 2
 651 1102 l 1
 693 1134 739 1162 789 1182 c 1
 820 1399 l 2
 823 1419 840 1434 860 1434 c 2
 1188 1434 l 2
 1208 1434 1226 1419 1229 1399 c 2
 1260 1182 l 1
 1310 1162 1355 1134 1398 1102 c 1
 1602 1184 l 2
 1621 1190 1642 1184 1652 1165 c 2
 1816 881 l 2
 1825 864 1821 841 1806 829 c 2
 1632 695 l 1
 1636 669 1638 641 1638 614 c 0
 1638 586 1636 560 1633 534 c 1
1024 307 m 0
 1193 307 1331 445 1331 614 c 0
 1331 783 1193 922 1024 922 c 0
 855 922 717 783 717 614 c 0
 717 445 855 307 1024 307 c 0
EndSplineSet
Validated: 1
EndChar

StartChar: uni269D
Encoding: 9885 9885 84
Width: 2048
GlyphClass: 2
Flags: W
LayerCount: 2
Fore
SplineSet
1877.33300781 849.51953125 m 1
 1412.26660156 445.893554688 l 1
 1551.36035156 -154 l 1
 1024 164.29296875 l 1
 496.639648438 -154 l 1
 636.586914062 445.893554688 l 1
 170.666992188 849.51953125 l 1
 784.212890625 901.573242188 l 1
 1024 1467.33300781 l 1
 1263.78710938 902.426757812 l 1
 1877.33300781 849.51953125 l 1
1024 323.866210938 m 1
 1345.70703125 129.306640625 l 1
 1260.37304688 494.533203125 l 1
 1543.6796875 740.29296875 l 1
 1169.91992188 772.719726562 l 1
 1024 1117.46679688 l 1
 878.93359375 773.573242188 l 1
 505.172851562 741.146484375 l 1
 788.48046875 495.38671875 l 1
 703.146484375 130.16015625 l 1
 1024 323.866210938 l 1
EndSplineSet
Validated: 524289
EndChar

StartChar: uni26A0
Encoding: 9888 9888 85
Width: 2048
GlyphClass: 2
Flags: MW
HStem: -154 256<939 1109 939 1963> 273 171<939 1109 939 1109>
LayerCount: 2
Fore
SplineSet
85 -154 m 1
 1024 1468 l 1
 1963 -154 l 1
 85 -154 l 1
1109 102 m 1
 1109 273 l 1
 939 273 l 1
 939 102 l 1
 1109 102 l 1
1109 444 m 1
 1109 785 l 1
 939 785 l 1
 939 444 l 1
 1109 444 l 1
EndSplineSet
Validated: 1
EndChar

StartChar: uni26A1
Encoding: 9889 9889 86
Width: 2048
GlyphClass: 2
Flags: MW
HStem: 1362 20G
LayerCount: 2
Fore
SplineSet
939 -154 m 1
 853 -154.000976562 l 1
 939 442.999023438 l 1
 640 442.999023438 l 2
 609 442.999023438 598 453.999023438 598 468.999023438 c 0
 598 477.999023438 602 488.999023438 608 499.999023438 c 0
 701.202148438 668.927734375 885.002929688 987.967773438 1109 1381.99902344 c 1
 1195 1381.99902344 l 1
 1109 784.999023438 l 1
 1408 784.999023438 l 2
 1440 784.999023438 1451 767.999023438 1451 753.999023438 c 0
 1451 743.5390625 1445.53515625 735.659179688 1442 728 c 0
 1106 140 939 -154 939 -154 c 1
EndSplineSet
Validated: 524289
EndChar

StartChar: uni26A7
Encoding: 9895 9895 87
Width: 2048
GlyphClass: 2
Flags: MW
HStem: -154 170.667 195.014 162.986 955.333 170.667 1040.67 512 1382 170.667
VStem: 128 170.667 554.667 170.666 938.667 170.666 1322.67 170.666 1749.33 170.667
LayerCount: 2
Fore
SplineSet
1024 955.333007812 m 0xe7c0
 859.306640625 955.333007812 725.333007812 821.360351562 725.333007812 656.666992188 c 0
 725.333007812 491.973632812 859.306640625 358 1024 358 c 0
 1188.69335938 358 1322.66699219 491.973632812 1322.66699219 656.666992188 c 0
 1322.66699219 821.360351562 1188.69335938 955.333007812 1024 955.333007812 c 0xe7c0
1410.55957031 922.90625 m 1
 1462.61328125 846.959960938 1493.33300781 755.653320312 1493.33300781 656.666992188 c 0
 1493.33300781 426.266601562 1327.78710938 235.120117188 1109.33300781 195.013671875 c 1
 1109.33300781 16.6669921875 l 1
 1280 16.6669921875 l 1
 1280 -154 l 1
 1109.33300781 -154 l 1
 1109.33300781 -324.666992188 l 1
 938.666992188 -324.666992188 l 1
 938.666992188 -154 l 1
 768 -154 l 1
 768 16.6669921875 l 1
 938.666992188 16.6669921875 l 1
 938.666992188 195.013671875 l 1
 720.212890625 235.120117188 554.666992188 426.266601562 554.666992188 656.666992188 c 0
 554.666992188 755.653320312 585.38671875 846.959960938 636.586914062 922.053710938 c 1
 581.120117188 977.51953125 l 1
 460.799804688 857.200195312 l 1
 340.48046875 977.51953125 l 1
 461.653320312 1098.69335938 l 1
 298.666992188 1260.82714844 l 1
 298.666992188 1040.66699219 l 1
 128 1040.66699219 l 1
 128 1552.66699219 l 1xd7c0
 640 1552.66699219 l 1
 640 1382 l 1
 419.83984375 1382 l 1
 581.973632812 1219.86621094 l 1
 703.146484375 1340.18652344 l 1
 823.466796875 1219.01367188 l 1
 703.146484375 1098.69335938 l 1
 758.61328125 1043.2265625 l 1
 833.70703125 1095.28027344 925.013671875 1126 1024 1126 c 0
 1122.98632812 1126 1214.29296875 1095.28027344 1289.38671875 1043.2265625 c 1
 1628.16015625 1382 l 1
 1408 1382 l 1
 1408 1552.66699219 l 1xefc0
 1920 1552.66699219 l 1
 1920 1040.66699219 l 1
 1749.33300781 1040.66699219 l 1xd7c0
 1749.33300781 1260.82714844 l 1
 1410.55957031 922.90625 l 1
EndSplineSet
Validated: 524289
EndChar

StartChar: uni26AB
Encoding: 9899 9899 88
Width: 2048
GlyphClass: 2
Flags: MW
HStem: -239 1707<788.5 1259.5>
VStem: 171 1707
LayerCount: 2
Fore
SplineSet
1024 1468 m 0
 1495 1468 1877 1085 1877 614 c 0
 1877 143 1495 -239 1024 -239 c 0
 553 -239 171 143 171 614 c 0
 171 1085 553 1468 1024 1468 c 0
EndSplineSet
Validated: 1
EndChar

StartChar: uni26BD
Encoding: 9917 9917 89
Width: 1920
GlyphClass: 2
Flags: MW
HStem: -239.333 170.666 187.333 170.667
VStem: 170.667 170.666 938.667 170.666 1706.67 170.666
CounterMasks: 1 38
LayerCount: 2
Fore
SplineSet
1024 1467.33300781 m 0
 1495.04003906 1467.33300781 1877.33300781 1085.04003906 1877.33300781 614 c 0
 1877.33300781 142.959960938 1495.04003906 -239.333007812 1024 -239.333007812 c 0
 552.959960938 -239.333007812 170.666992188 142.959960938 170.666992188 614 c 0
 170.666992188 1085.04003906 552.959960938 1467.33300781 1024 1467.33300781 c 0
1109.33300781 1185.73339844 m 1
 1109.33300781 1066.26660156 l 1
 1449.81347656 828.186523438 l 1
 1565.01367188 867.440429688 l 1
 1598.29296875 981.787109375 l 1
 1512.10644531 1116.61328125 1379.83984375 1219.01367188 1224.53320312 1266.79980469 c 1
 1109.33300781 1185.73339844 l 1
823.466796875 1266.79980469 m 1
 668.16015625 1218.16015625 535.893554688 1115.75976562 449.70703125 981.787109375 c 1
 482.986328125 867.440429688 l 1
 598.186523438 828.186523438 l 1
 938.666992188 1066.26660156 l 1
 938.666992188 1185.73339844 l 1
 823.466796875 1266.79980469 l 1
604.16015625 177.946289062 m 1
 670.719726562 294.853515625 l 1
 546.133789062 665.200195312 l 1
 428.373046875 706.16015625 l 1
 343.040039062 643.866210938 l 1
 342.186523438 633.626953125 341.333007812 624.240234375 341.333007812 614 c 0
 341.333007812 444.186523438 403.626953125 288.879882812 506.879882812 169.413085938 c 1
 604.16015625 177.946289062 l 1
1237.33300781 -33.6796875 m 1
 1297.06640625 92.61328125 l 1
 1242.453125 187.333007812 l 1
 806.400390625 187.333007812 l 1
 751.787109375 93.466796875 l 1
 810.666992188 -33.6796875 l 1
 878.080078125 -55.8662109375 949.759765625 -68.6669921875 1024 -68.6669921875 c 0
 1098.24023438 -68.6669921875 1169.91992188 -55.8662109375 1237.33300781 -33.6796875 c 1
1217.70703125 358 m 1
 1333.75976562 701.040039062 l 1
 1024 917.787109375 l 1
 715.09375 701.040039062 l 1
 830.29296875 358 l 1
 1217.70703125 358 l 1
1541.12011719 169.413085938 m 1
 1644.37304688 288.879882812 1706.66699219 444.186523438 1706.66699219 614 c 0
 1706.66699219 624.240234375 1705.81347656 633.626953125 1704.95996094 643.013671875 c 1
 1619.62695312 705.306640625 l 1
 1501.01367188 665.200195312 l 1
 1376.42675781 294.853515625 l 1
 1443.83984375 177.946289062 l 1
 1541.12011719 169.413085938 l 1
EndSplineSet
Validated: 524289
EndChar

StartChar: uni26BE
Encoding: 9918 9918 90
Width: 1920
GlyphClass: 2
Flags: MW
HStem: -239.333 1706.67
VStem: 170.667 512 853.333 341.334 1365.33 512
CounterMasks: 1 70
LayerCount: 2
Fore
SplineSet
325.120117188 1102.10644531 m 1
 531.626953125 1036.40039062 682.666992188 842.693359375 682.666992188 614 c 0
 682.666992188 385.306640625 531.626953125 191.599609375 325.120117188 125.893554688 c 1
 227.83984375 264.133789062 170.666992188 432.240234375 170.666992188 614 c 0
 170.666992188 795.759765625 227.83984375 963.866210938 325.120117188 1102.10644531 c 1
1722.87988281 1102.10644531 m 1
 1820.16015625 963.866210938 1877.33300781 795.759765625 1877.33300781 614 c 0
 1877.33300781 432.240234375 1820.16015625 264.133789062 1722.87988281 125.893554688 c 1
 1516.37304688 191.599609375 1365.33300781 385.306640625 1365.33300781 614 c 0
 1365.33300781 842.693359375 1516.37304688 1036.40039062 1722.87988281 1102.10644531 c 1
1194.66699219 614 m 0
 1194.66699219 334.106445312 1362.7734375 94.3203125 1603.41308594 -11.4931640625 c 1
 1451.51953125 -152.29296875 1248.42675781 -239.333007812 1024 -239.333007812 c 0
 799.573242188 -239.333007812 596.48046875 -152.29296875 444.586914062 -11.4931640625 c 1
 685.2265625 94.3203125 853.333007812 334.106445312 853.333007812 614 c 0
 853.333007812 893.893554688 685.2265625 1133.6796875 444.586914062 1239.49316406 c 1
 596.48046875 1380.29296875 799.573242188 1467.33300781 1024 1467.33300781 c 0
 1248.42675781 1467.33300781 1451.51953125 1380.29296875 1603.41308594 1239.49316406 c 1
 1362.7734375 1133.6796875 1194.66699219 893.893554688 1194.66699219 614 c 0
EndSplineSet
Validated: 524289
EndChar

StartChar: uni26F3
Encoding: 9971 9971 91
Width: 2048
GlyphClass: 2
Flags: MW
HStem: -239 171<712 768 597 994> -154 256<1628.5 1699.5>
VStem: 768 171<100 872 100 1468> 1536 256<-61.5 9.5>
LayerCount: 2
Fore
SplineSet
1536 -26 m 0x70
 1536 45 1593 102 1664 102 c 0
 1735 102 1792 45 1792 -26 c 0
 1792 -97 1735 -154 1664 -154 c 0
 1593 -154 1536 -97 1536 -26 c 0x70
1451 1133 m 1
 939 872 l 1
 939 100 l 1
 1181 86 1365 16 1365 -68 c 0
 1365 -162 1135 -239 853 -239 c 0
 571 -239 341 -162 341 -68 c 0
 341 -5 444 49 597 79 c 1
 597 -68 l 1
 768 -68 l 1xb0
 768 1468 l 1
 1451 1133 l 1
EndSplineSet
Validated: 1
EndChar

StartChar: uni2702
Encoding: 9986 9986 92
Width: 2048
GlyphClass: 2
Flags: MW
HStem: -239 171 273 171 572 85 785 171 1297 171 1341 21G
VStem: 171 171 683 171 981 85
LayerCount: 2
Fore
SplineSet
823 987 m 1xfb80
 1878 -68 l 1
 1878 -154 l 1
 1622 -154 l 1
 1024 444 l 1
 823 242 l 1
 841 201 854 153 854 102 c 0
 854 -86 700 -240 512 -240 c 0
 324 -240 170 -86 170 102 c 0
 170 290 324 444 512 444 c 0
 563 444 610 432 651 414 c 1
 854 614 l 1
 651 815 l 1
 610 797 563 784 512 784 c 0
 324 784 170 938 170 1126 c 0
 170 1314 324 1468 512 1468 c 0
 700 1468 854 1314 854 1126 c 0
 854 1075 841 1028 823 987 c 1xfb80
512 956 m 0
 606 956 682 1032 682 1126 c 0
 682 1220 606 1296 512 1296 c 0
 418 1296 342 1220 342 1126 c 0
 342 1032 418 956 512 956 c 0
512 -68 m 0
 606 -68 682 8 682 102 c 0
 682 196 606 272 512 272 c 0
 418 272 342 196 342 102 c 0
 342 8 418 -68 512 -68 c 0
1024 571 m 0
 1049 571 1067 589 1067 614 c 0
 1067 639 1049 657 1024 657 c 0
 999 657 981 639 981 614 c 0
 981 589 999 571 1024 571 c 0
1622 1382 m 1xf780
 1878 1382 l 1
 1878 1296 l 1
 1280 700 l 1
 1110 870 l 1
 1622 1382 l 1xf780
EndSplineSet
Validated: 1
EndChar

StartChar: uni2708
Encoding: 9992 9992 93
Width: 1920
GlyphClass: 2
Flags: MW
VStem: 896 256<16.667 486 16.667 486 870 1339.33>
LayerCount: 2
Fore
SplineSet
1877.33300781 272.666992188 m 1
 1152 486 l 1
 1152 16.6669921875 l 1
 1365.33300781 -111.333007812 l 1
 1365.33300781 -239.333007812 l 1
 1024 -154 l 1
 682.666992188 -239.333007812 l 1
 682.666992188 -111.333007812 l 1
 896 16.6669921875 l 1
 896 486 l 1
 170.666992188 272.666992188 l 1
 170.666992188 443.333007812 l 1
 896 870 l 1
 896 1339.33300781 l 2
 896 1410.16015625 953.172851562 1467.33300781 1024 1467.33300781 c 0
 1094.82714844 1467.33300781 1152 1410.16015625 1152 1339.33300781 c 2
 1152 870 l 1
 1877.33300781 443.333007812 l 1
 1877.33300781 272.666992188 l 1
EndSplineSet
Validated: 524289
EndChar

StartChar: uni270B
Encoding: 9995 9995 94
Width: 2048
GlyphClass: 2
Flags: MW
VStem: 682.667 256 1024 256<699.333 1510 699.333 1545.41> 1365.33 256 1706.67 256
LayerCount: 2
Fore
SplineSet
1962.66699219 1168.66699219 m 2
 1962.66699219 -68.6669921875 l 2
 1962.66699219 -256.400390625 1809.06640625 -410 1621.33300781 -410 c 2
 998.400390625 -410 l 2
 906.240234375 -410 819.200195312 -373.306640625 755.200195312 -308.453125 c 2
 85.3330078125 372.506835938 l 1
 85.3330078125 372.506835938 192.853515625 477.466796875 196.266601562 479.172851562 c 0
 215.040039062 495.38671875 238.080078125 503.919921875 263.6796875 503.919921875 c 0
 282.453125 503.919921875 299.51953125 498.799804688 314.879882812 490.266601562 c 0
 318.29296875 489.413085938 682.666992188 280.346679688 682.666992188 280.346679688 c 1
 682.666992188 1296.66699219 l 2
 682.666992188 1367.49316406 739.83984375 1424.66699219 810.666992188 1424.66699219 c 0
 881.493164062 1424.66699219 938.666992188 1367.49316406 938.666992188 1296.66699219 c 2
 938.666992188 699.333007812 l 1
 1024 699.333007812 l 1
 1024 1510 l 2
 1024 1580.82714844 1081.17285156 1638 1152 1638 c 0
 1222.82714844 1638 1280 1580.82714844 1280 1510 c 2
 1280 699.333007812 l 1
 1365.33300781 699.333007812 l 1
 1365.33300781 1424.66699219 l 2
 1365.33300781 1495.49316406 1422.50683594 1552.66699219 1493.33300781 1552.66699219 c 0
 1564.16015625 1552.66699219 1621.33300781 1495.49316406 1621.33300781 1424.66699219 c 2
 1621.33300781 699.333007812 l 1
 1706.66699219 699.333007812 l 1
 1706.66699219 1168.66699219 l 2
 1706.66699219 1239.49316406 1763.83984375 1296.66699219 1834.66699219 1296.66699219 c 0
 1905.49316406 1296.66699219 1962.66699219 1239.49316406 1962.66699219 1168.66699219 c 2
EndSplineSet
Validated: 524289
EndChar

StartChar: uni2713
Encoding: 10003 10003 95
Width: 2048
GlyphClass: 2
Flags: W
LayerCount: 2
Fore
SplineSet
768 255.599609375 m 1
 1672.53320312 1160.13378906 l 1
 1792 1040.66699219 l 1
 768 16.6669921875 l 1
 290.133789062 494.533203125 l 1
 409.599609375 614 l 1
 768 255.599609375 l 1
EndSplineSet
Validated: 524289
EndChar

StartChar: uni272A
Encoding: 10026 10026 96
Width: 2048
GlyphClass: 2
Flags: MW
HStem: -239.333 1706.67
VStem: 170.667 1706.67
LayerCount: 2
Fore
SplineSet
1023.14648438 1467.33300781 m 0
 1495.04003906 1467.33300781 1877.33300781 1085.04003906 1877.33300781 614 c 0
 1877.33300781 142.959960938 1495.04003906 -239.333007812 1023.14648438 -239.333007812 c 0
 552.106445312 -239.333007812 170.666992188 142.959960938 170.666992188 614 c 0
 170.666992188 1085.04003906 552.106445312 1467.33300781 1023.14648438 1467.33300781 c 0
1384.95996094 102 m 1
 1289.38671875 513.306640625 l 1
 1607.6796875 788.93359375 l 1
 1187.83984375 824.7734375 l 1
 1024 1211.33300781 l 1
 860.16015625 823.919921875 l 1
 440.3203125 788.080078125 l 1
 758.61328125 512.453125 l 1
 663.040039062 102 l 1
 1024 319.599609375 l 1
 1384.95996094 102 l 1
EndSplineSet
Validated: 524289
EndChar

StartChar: uni273C
Encoding: 10044 10044 97
Width: 2048
GlyphClass: 2
Flags: MW
VStem: 768 512
LayerCount: 2
Fore
SplineSet
1595.73339844 579.866210938 m 0
 1759.57324219 485.146484375 1850.88183594 313.624023438 1851.73535156 136.983398438 c 1
 1773.50097656 92.216796875 1684.640625 68.48046875 1594.62597656 68.48046875 c 0
 1507.91113281 68.48046875 1420.125 90.5087890625 1339.734375 136.984375 c 0
 1315.84082031 150.637695312 1293.65429688 165.998046875 1273.17382812 183.064453125 c 1
 1277.44140625 156.611328125 1280.00097656 129.3046875 1280.00097656 101.998046875 c 0
 1280.00097656 -87.4423828125 1176.74804688 -252.135742188 1024.00097656 -340.881835938 c 1
 871.25390625 -252.135742188 768.000976562 -87.4423828125 768.000976562 101.998046875 c 0
 768.000976562 129.3046875 770.560546875 156.611328125 774.828125 183.91796875 c 1
 754.34765625 167.705078125 732.161132812 151.491210938 708.267578125 137.837890625 c 0
 627.458007812 91.3623046875 539.458007812 69.333984375 452.735351562 69.333984375 c 0
 362.712890625 69.333984375 274.06640625 93.0703125 196.266601562 137.837890625 c 1
 197.120117188 314.478515625 288.426757812 485.998046875 452.266601562 580.717773438 c 0
 476.16015625 594.37109375 500.90625 605.46484375 525.653320312 614.8515625 c 1
 500.90625 624.23828125 476.16015625 635.331054688 452.266601562 648.984375 c 0
 287.573242188 743.705078125 196.266601562 915.224609375 196.266601562 1091.86425781 c 1
 274.500976562 1136.63183594 363.361328125 1160.36914062 453.375976562 1160.36914062 c 0
 540.090820312 1160.36914062 627.876953125 1138.34082031 708.267578125 1091.86523438 c 0
 732.161132812 1078.21191406 754.34765625 1061.99902344 774.828125 1044.93261719 c 1
 770.560546875 1071.38574219 768.000976562 1098.69238281 768.000976562 1125.99902344 c 0
 768.000976562 1315.43945312 871.25390625 1480.1328125 1024.00097656 1568.87890625 c 1
 1176.74804688 1480.1328125 1280.00097656 1315.43945312 1280.00097656 1125.99902344 c 0
 1280.00097656 1098.69238281 1277.44140625 1071.38574219 1273.17382812 1044.93261719 c 1
 1293.65429688 1061.14550781 1315.84082031 1077.359375 1339.734375 1091.01269531 c 0
 1420.54296875 1137.48828125 1508.54199219 1159.51660156 1595.26464844 1159.51660156 c 0
 1685.28710938 1159.51660156 1773.93359375 1135.78027344 1851.73339844 1091.01367188 c 1
 1850.87988281 914.373046875 1759.57324219 742.853515625 1595.73339844 648.133789062 c 0
 1571.83984375 634.48046875 1547.09375 623.38671875 1522.34667969 614 c 1
 1547.09375 604.61328125 1571.83984375 593.51953125 1595.73339844 579.866210938 c 0
1024.00195312 272.6640625 m 0
 1212.58886719 272.6640625 1365.33496094 425.41015625 1365.33496094 613.997070312 c 0
 1365.33496094 802.583984375 1212.58886719 955.330078125 1024.00195312 955.330078125 c 0
 835.415039062 955.330078125 682.668945312 802.583984375 682.668945312 613.997070312 c 0
 682.668945312 425.41015625 835.415039062 272.6640625 1024.00195312 272.6640625 c 0
EndSplineSet
Validated: 524289
EndChar

StartChar: uni2744
Encoding: 10052 10052 98
Width: 2048
GlyphClass: 2
Flags: MW
HStem: 528.667 170.666<170.667 526.507 170.667 526.507 768 938.667 1109.33 1280 1521.49 1877.33>
VStem: 938.667 170.666<-239.333 116.507 -239.333 116.507 358 528.667 699.333 870 1111.49 1467.33>
LayerCount: 2
Fore
SplineSet
1877.33300781 699.333007812 m 1
 1877.33300781 528.666992188 l 1
 1521.49316406 528.666992188 l 1
 1797.97363281 252.186523438 l 1
 1677.65332031 131.013671875 l 1
 1280 528.666992188 l 1
 1109.33300781 528.666992188 l 1
 1109.33300781 358 l 1
 1506.98632812 -39.6533203125 l 1
 1385.81347656 -159.973632812 l 1
 1109.33300781 116.506835938 l 1
 1109.33300781 -239.333007812 l 1
 938.666992188 -239.333007812 l 1
 938.666992188 116.506835938 l 1
 662.186523438 -159.973632812 l 1
 541.013671875 -39.6533203125 l 1
 938.666992188 358 l 1
 938.666992188 528.666992188 l 1
 768 528.666992188 l 1
 370.346679688 131.013671875 l 1
 250.026367188 252.186523438 l 1
 526.506835938 528.666992188 l 1
 170.666992188 528.666992188 l 1
 170.666992188 699.333007812 l 1
 526.506835938 699.333007812 l 1
 250.026367188 975.813476562 l 1
 370.346679688 1096.98632812 l 1
 768 699.333007812 l 1
 938.666992188 699.333007812 l 1
 938.666992188 870 l 1
 541.013671875 1267.65332031 l 1
 662.186523438 1387.97363281 l 1
 938.666992188 1111.49316406 l 1
 938.666992188 1467.33300781 l 1
 1109.33300781 1467.33300781 l 1
 1109.33300781 1111.49316406 l 1
 1385.81347656 1387.97363281 l 1
 1506.98632812 1267.65332031 l 1
 1109.33300781 870 l 1
 1109.33300781 699.333007812 l 1
 1280 699.333007812 l 1
 1677.65332031 1096.98632812 l 1
 1797.97363281 975.813476562 l 1
 1521.49316406 699.333007812 l 1
 1877.33300781 699.333007812 l 1
EndSplineSet
Validated: 524289
EndChar

StartChar: uni274C
Encoding: 10060 10060 99
Width: 2048
GlyphClass: 2
Flags: W
LayerCount: 2
Fore
SplineSet
1621 1091 m 1
 1144 614 l 1
 1621 137 l 1
 1501 17 l 1
 1024 494 l 1
 547 17 l 1
 427 137 l 1
 904 614 l 1
 427 1091 l 1
 547 1212 l 1
 1024 735 l 1
 1501 1212 l 1
 1621 1091 l 1
EndSplineSet
Validated: 1
EndChar

StartChar: uni274E
Encoding: 10062 10062 100
Width: 2048
GlyphClass: 2
Flags: MW
HStem: -239 1707<788 1260>
VStem: 171 1707
LayerCount: 2
Fore
SplineSet
1024 1468 m 0
 1496 1468 1877 1086 1877 614 c 0
 1877 142 1496 -239 1024 -239 c 0
 552 -239 171 142 171 614 c 0
 171 1086 552 1468 1024 1468 c 0
1451 308 m 1
 1144 614 l 1
 1451 921 l 1
 1330 1041 l 1
 1024 735 l 1
 718 1041 l 1
 597 921 l 1
 904 614 l 1
 597 308 l 1
 718 188 l 1
 1024 494 l 1
 1330 188 l 1
 1451 308 l 1
EndSplineSet
Validated: 1
EndChar

StartChar: uni2922
Encoding: 10530 10530 101
Width: 2048
GlyphClass: 2
Flags: MW
HStem: 1362 20G<1109.33 1792 1792 1792>
LayerCount: 2
Fore
SplineSet
1792 699.333007812 m 1
 1511.25292969 980.080078125 l 1
 657.919921875 126.747070312 l 1
 938.666992188 -154 l 1
 256 -154 l 1
 256 528.666992188 l 1
 536.747070312 247.919921875 l 1
 1390.08007812 1101.25292969 l 1
 1109.33300781 1382 l 1
 1792 1382 l 1
 1792 699.333007812 l 1
EndSplineSet
Validated: 524289
EndChar

StartChar: uni292D
Encoding: 10541 10541 102
Width: 2048
GlyphClass: 2
Flags: MW
HStem: -68.667 21G<461.653 461.653 1237.33 1237.33 1237.33 1706.67>
LayerCount: 2
Fore
SplineSet
903.6796875 855.493164062 m 1
 782.506835938 735.172851562 l 1
 341.333007812 1176.34667969 l 1
 461.653320312 1296.66699219 l 1
 903.6796875 855.493164062 l 1
1237.33300781 1296.66699219 m 1
 1706.66699219 1296.66699219 l 1
 1706.66699219 827.333007812 l 1
 1532.58691406 1001.41308594 l 1
 461.653320312 -68.6669921875 l 1
 341.333007812 51.6533203125 l 1
 1411.41308594 1122.58691406 l 1
 1237.33300781 1296.66699219 l 1
1265.49316406 493.6796875 m 1
 1532.58691406 226.586914062 l 1
 1706.66699219 400.666992188 l 1
 1706.66699219 -68.6669921875 l 1
 1237.33300781 -68.6669921875 l 1
 1412.26660156 106.266601562 l 1
 1145.17285156 373.360351562 l 1
 1265.49316406 493.6796875 l 1
EndSplineSet
Validated: 524289
EndChar

StartChar: uni292E
Encoding: 10542 10542 103
Width: 2048
GlyphClass: 2
Flags: MW
HStem: -324.667 256<209.067 461.653 461.653 461.653 1237.33 1706.67> 1296.67 256<461.653 461.653 1237.33 1706.67 1237.33 1237.33>
VStem: 1706.67 256<-68.667 400.667 400.667 400.667 827.333 1296.67 1296.67 1296.67>
LayerCount: 2
Fore
SplineSet
1792 1552.66699219 m 2
 1885.86621094 1552.66699219 1962.66699219 1475.86621094 1962.66699219 1382 c 2
 1962.66699219 -154 l 2
 1962.66699219 -247.866210938 1885.86621094 -324.666992188 1792 -324.666992188 c 2
 256 -324.666992188 l 2
 162.133789062 -324.666992188 85.3330078125 -247.866210938 85.3330078125 -154 c 2
 85.3330078125 1382 l 2
 85.3330078125 1475.86621094 162.133789062 1552.66699219 256 1552.66699219 c 2
 1792 1552.66699219 l 2
903.6796875 855.493164062 m 1
 461.653320312 1296.66699219 l 1
 341.333007812 1176.34667969 l 1
 782.506835938 735.172851562 l 1
 903.6796875 855.493164062 l 1
1237.33300781 1296.66699219 m 1
 1411.41308594 1122.58691406 l 1
 341.333007812 51.6533203125 l 1
 461.653320312 -68.6669921875 l 1
 1532.58691406 1001.41308594 l 1
 1706.66699219 827.333007812 l 1
 1706.66699219 1296.66699219 l 1
 1237.33300781 1296.66699219 l 1
1265.49316406 493.6796875 m 1
 1145.17285156 373.360351562 l 1
 1412.26660156 106.266601562 l 1
 1237.33300781 -68.6669921875 l 1
 1706.66699219 -68.6669921875 l 1
 1706.66699219 400.666992188 l 1
 1532.58691406 226.586914062 l 1
 1265.49316406 493.6796875 l 1
EndSplineSet
Validated: 524289
EndChar

StartChar: uni29D6
Encoding: 10710 10710 104
Width: 2048
GlyphClass: 2
Flags: MW
HStem: -239 171<683 1365 683 1536> 1297 171<683 1365 683 683>
VStem: 512 171<-68 230 -68 272 -68 272 -68 273 998 1297> 1365 171<-68 230 230 230 998 1297 1297 1297>
LayerCount: 2
Fore
SplineSet
512 1468 m 1
 1536 1468 l 1
 1536 956 l 1
 1535 956 l 1
 1536 955 l 1
 1195 614 l 1
 1536 273 l 1
 1535 272 l 1
 1536 272 l 1
 1536 -239 l 1
 512 -239 l 1
 512 272 l 1
 513 272 l 1
 512 273 l 1
 853 614 l 1
 512 955 l 1
 513 956 l 1
 512 956 l 1
 512 1468 l 1
1365 230 m 1
 1024 572 l 1
 683 230 l 1
 683 -68 l 1
 1365 -68 l 1
 1365 230 l 1
1024 657 m 1
 1365 998 l 1
 1365 1297 l 1
 683 1297 l 1
 683 998 l 1
 1024 657 l 1
EndSplineSet
Validated: 1
EndChar

StartChar: uni29D7
Encoding: 10711 10711 105
Width: 2048
GlyphClass: 2
Flags: MW
VStem: 512 1024<-239 272 -239 272 -239 273 -239 955 956 1468>
LayerCount: 2
Fore
SplineSet
512 1468 m 1
 1536 1468 l 1
 1536 956 l 1
 1535 956 l 1
 1536 955 l 1
 1195 614 l 1
 1536 273 l 1
 1535 272 l 1
 1536 272 l 1
 1536 -239 l 1
 512 -239 l 1
 512 272 l 1
 513 272 l 1
 512 273 l 1
 853 614 l 1
 512 955 l 1
 513 956 l 1
 512 956 l 1
 512 1468 l 1
EndSplineSet
Validated: 1
EndChar

StartChar: uni2BEA
Encoding: 11242 11242 106
Width: 2048
GlyphClass: 2
Flags: W
LayerCount: 2
Fore
SplineSet
1877.33300781 849.51953125 m 1
 1412.26660156 445.893554688 l 1
 1551.36035156 -154 l 1
 1024 164.29296875 l 1
 496.639648438 -154 l 1
 636.586914062 445.893554688 l 1
 170.666992188 849.51953125 l 1
 784.212890625 901.573242188 l 1
 1024 1467.33300781 l 1
 1263.78710938 902.426757812 l 1
 1877.33300781 849.51953125 l 1
1024 323.866210938 m 1
 1345.70703125 129.306640625 l 1
 1260.37304688 494.533203125 l 1
 1543.6796875 740.29296875 l 1
 1169.91992188 772.719726562 l 1
 1024 1117.46679688 l 1
 1024 323.866210938 l 1
EndSplineSet
Validated: 524289
EndChar

StartChar: uni33BC
Encoding: 13244 13244 107
Width: 2048
GlyphClass: 2
Flags: MW
HStem: 614 256<1195 1365 1195 1365 1109 1365> 1126 341
VStem: 1365 512<392.5 614 614 614 392.5 1126 392.5 1126>
LayerCount: 2
Fore
SplineSet
1877 614 m 0
 1877 171 1540 -192 1109 -235 c 1
 1109 358 l 1
 1365 358 l 1
 1365 614 l 1
 1109 614 l 1
 1109 785 l 2
 1109 832 1148 870 1195 870 c 2
 1365 870 l 1
 1365 1126 l 1
 1152 1126 l 2
 987 1126 853 993 853 828 c 2
 853 614 l 1
 683 614 l 1
 683 358 l 1
 853 358 l 1
 853 -222 l 1
 464 -143 171 201 171 614 c 0
 171 1085 553 1468 1024 1468 c 0
 1495 1468 1877 1085 1877 614 c 0
EndSplineSet
Validated: 1
EndChar

StartChar: uni33CC
Encoding: 13260 13260 108
Width: 2048
GlyphClass: 2
Flags: MW
HStem: -154 169 818 68<508 650 560 650 560 691> 1213 169<560 650>
VStem: 256 185<1005 1095 1005 1243 1005 1281.5> 256 222<45 56 56 778> 731 114<56 778 778 781> 768 1024<1005 1095> 1098 273 1631 161<53 402 402 407 407 483.5>
LayerCount: 2
Fore
SplineSet
1653 1382 m 2xf080
 1730 1382 1792 1320 1792 1243 c 2
 1792 -15 l 2
 1792 -92 1730 -154 1653 -154 c 2
 395 -154 l 2
 318 -154 256 -92 256 -15 c 2
 256 1243 l 2
 256 1320 318 1382 395 1382 c 2
 1653 1382 l 2xf080
731 56 m 2xec
 731 778 l 2
 731 800 713 818 691 818 c 2
 519 818 l 2
 497 818 478 800 478 778 c 2
 478 56 l 2
 478 34 497 16 519 16 c 2
 691 16 l 2
 713 16 731 34 731 56 c 2xec
605 886 m 0
 695 886 768 960 768 1050 c 0
 768 1140 695 1213 605 1213 c 0
 515 1213 441 1140 441 1050 c 0xf2
 441 960 515 886 605 886 c 0
1631 53 m 2xe580
 1631 402 l 1
 1631 407 l 2
 1631 560 1629 830 1337 830 c 0
 1203 830 1140 781 1098 718 c 1
 1098 781 l 2
 1098 802 1082 818 1061 818 c 2
 882 818 l 2
 861 818 845 802 845 781 c 2
 845 53 l 2
 845 32 861 16 882 16 c 2
 1061 16 l 2
 1082 16 1098 32 1098 53 c 2
 1098 443 l 1
 1103 495 1126 613 1240 613 c 0
 1362 613 1372 495 1372 426 c 2
 1372 391 l 1
 1372 53 l 2
 1372 32 1388 16 1409 16 c 2
 1594 16 l 2
 1615 16 1631 32 1631 53 c 2xe580
EndSplineSet
Validated: 1
EndChar

StartChar: uniFE19
Encoding: 65049 65049 109
Width: 1920
GlyphClass: 2
Flags: MW
HStem: -68.667 341.334 443.333 341.334 955.333 341.334
VStem: 853.333 341.334
CounterMasks: 1 e0
LayerCount: 2
Fore
SplineSet
1024 955.333007812 m 0
 930.133789062 955.333007812 853.333007812 1032.13378906 853.333007812 1126 c 0
 853.333007812 1219.86621094 930.133789062 1296.66699219 1024 1296.66699219 c 0
 1117.86621094 1296.66699219 1194.66699219 1219.86621094 1194.66699219 1126 c 0
 1194.66699219 1032.13378906 1117.86621094 955.333007812 1024 955.333007812 c 0
1024 784.666992188 m 0
 1117.86621094 784.666992188 1194.66699219 707.866210938 1194.66699219 614 c 0
 1194.66699219 520.133789062 1117.86621094 443.333007812 1024 443.333007812 c 0
 930.133789062 443.333007812 853.333007812 520.133789062 853.333007812 614 c 0
 853.333007812 707.866210938 930.133789062 784.666992188 1024 784.666992188 c 0
1024 272.666992188 m 0
 1117.86621094 272.666992188 1194.66699219 195.866210938 1194.66699219 102 c 0
 1194.66699219 8.1337890625 1117.86621094 -68.6669921875 1024 -68.6669921875 c 0
 930.133789062 -68.6669921875 853.333007812 8.1337890625 853.333007812 102 c 0
 853.333007812 195.866210938 930.133789062 272.666992188 1024 272.666992188 c 0
EndSplineSet
Validated: 524289
EndChar

StartChar: uniFF1D
Encoding: 65309 65309 110
Width: 1920
GlyphClass: 2
Flags: MW
HStem: 358 170.667 699.333 170.667
LayerCount: 2
Fore
SplineSet
1706.66699219 870 m 1
 1706.66699219 699.333007812 l 1
 341.333007812 699.333007812 l 1
 341.333007812 870 l 1
 1706.66699219 870 l 1
341.333007812 358 m 1
 341.333007812 528.666992188 l 1
 1706.66699219 528.666992188 l 1
 1706.66699219 358 l 1
 341.333007812 358 l 1
EndSplineSet
Validated: 524289
EndChar

StartChar: uniFF22
Encoding: 65314 65314 111
Width: 2048
GlyphClass: 2
Flags: MW
HStem: 102 213.333<853.333 1152 1152 1187.41 853.333 1198.08> 571.333 256<853.333 1109.33 1109.33 1144.75 853.333 1152 853.333 1109.33> 1083.33 213.334<853.333 853.333 853.333 1109.33>
VStem: 597.333 256<315.333 571.333 827.333 1083.33> 1237.33 234.667<919.92 990.747> 1280 234.667<407.92 478.747>
LayerCount: 2
Fore
SplineSet
1331.20019531 717.252929688 m 1xf8
 1441.28027344 666.053710938 1514.66699219 555.120117188 1514.66699219 425.413085938 c 0xf4
 1514.66699219 247.06640625 1376.42675781 102 1198.08007812 102 c 2
 597.333007812 102 l 1
 597.333007812 1296.66699219 l 1
 1130.66699219 1296.66699219 l 2
 1322.66699219 1296.66699219 1472 1148.18652344 1472 955.333007812 c 0
 1472 868.29296875 1413.97363281 774.426757812 1331.20019531 717.252929688 c 1xf8
853.333007812 1083.33300781 m 1
 853.333007812 827.333007812 l 1
 1109.33300781 827.333007812 l 2
 1180.16015625 827.333007812 1237.33300781 884.506835938 1237.33300781 955.333007812 c 0xf8
 1237.33300781 1026.16015625 1180.16015625 1083.33300781 1109.33300781 1083.33300781 c 2
 853.333007812 1083.33300781 l 1
1152 315.333007812 m 2
 1222.82714844 315.333007812 1280 372.506835938 1280 443.333007812 c 0xf4
 1280 514.16015625 1222.82714844 571.333007812 1152 571.333007812 c 2
 853.333007812 571.333007812 l 1
 853.333007812 315.333007812 l 1
 1152 315.333007812 l 2
EndSplineSet
Validated: 524289
EndChar

StartChar: u115D5
Encoding: 71125 71125 112
Width: 2048
GlyphClass: 2
Flags: MW
HStem: -239.333 341.333 -43.0664 21G<482.134 482.134> 443.333 341.334 1126 341.333
VStem: 170.667 341.333 853.333 341.334 1536 341.333
CounterMasks: 1 0e
LayerCount: 2
Fore
SplineSet
1536 614 m 0x3e
 1536 708.256835938 1612.41015625 784.666992188 1706.66699219 784.666992188 c 0
 1800.92285156 784.666992188 1877.33300781 708.256835938 1877.33300781 614 c 0
 1877.33300781 519.743164062 1800.92285156 443.333007812 1706.66699219 443.333007812 c 0
 1612.41015625 443.333007812 1536 519.743164062 1536 614 c 0x3e
170.666992188 614 m 0
 170.666992188 708.256835938 247.077148438 784.666992188 341.333007812 784.666992188 c 0
 435.58984375 784.666992188 512 708.256835938 512 614 c 0
 512 519.743164062 435.58984375 443.333007812 341.333007812 443.333007812 c 0
 247.077148438 443.333007812 170.666992188 519.743164062 170.666992188 614 c 0
853.333007812 -68.6669921875 m 0
 853.333007812 25.58984375 929.743164062 102 1024 102 c 0
 1118.25683594 102 1194.66699219 25.58984375 1194.66699219 -68.6669921875 c 0
 1194.66699219 -162.922851562 1118.25683594 -239.333007812 1024 -239.333007812 c 0xbe
 929.743164062 -239.333007812 853.333007812 -162.922851562 853.333007812 -68.6669921875 c 0
857.599609375 904.986328125 m 1
 736.426757812 784.666992188 l 1
 709.973632812 811.973632812 l 1
 709.120117188 811.120117188 l 1
 366.080078125 1156.71972656 l 1
 487.252929688 1277.04003906 l 1
 513.70703125 1249.73339844 l 1
 514.559570312 1249.73339844 l 1
 857.599609375 904.986328125 l 1
1189.80273438 902.682617188 m 1
 1565.69628906 1277.46679688 l 1
 1686.18652344 1156.71972656 l 1
 1310.29296875 781.850585938 l 1
 1189.80273438 902.682617188 l 1
854.186523438 327.280273438 m 1
 826.026367188 299.973632812 l 1
 482.133789062 -43.06640625 l 1x7e
 361.813476562 77.2529296875 l 1
 389.120117188 105.413085938 l 1
 733.013671875 447.599609375 l 1
 854.186523438 327.280273438 l 1
1686.18652344 76.400390625 m 1
 1565.01367188 -43.919921875 l 1
 1535.14648438 -14.0537109375 l 1
 1194.66699219 328.133789062 l 1
 1314.98632812 448.453125 l 1
 1345.70703125 418.586914062 l 1
 1686.18652344 76.400390625 l 1
853.333007812 1296.66699219 m 0
 853.333007812 1390.92285156 929.743164062 1467.33300781 1024 1467.33300781 c 0
 1118.25683594 1467.33300781 1194.66699219 1390.92285156 1194.66699219 1296.66699219 c 0
 1194.66699219 1202.41015625 1118.25683594 1126 1024 1126 c 0
 929.743164062 1126 853.333007812 1202.41015625 853.333007812 1296.66699219 c 0
EndSplineSet
Validated: 524289
EndChar

StartChar: u1F30A
Encoding: 127754 127754 113
Width: 2048
GlyphClass: 2
Flags: MW
HStem: -97.6797 166.399 21.7871 166.399 282.054 166.399 401.52 166.4 661.787 166.399 781.253 166.4 1041.52 164.693 1160.99 164.693
LayerCount: 2
Fore
SplineSet
1450.66699219 188.186523438 m 0x40
 1565.86621094 188.186523438 1638.40039062 152.346679688 1702.40039062 119.919921875 c 0
 1757.86621094 90.0537109375 1800.53320312 68.7197265625 1877.33300781 68.7197265625 c 1
 1877.33300781 -97.6796875 l 1x80
 1760.42675781 -97.6796875 1689.59960938 -61.83984375 1625.59960938 -29.4130859375 c 0
 1570.13378906 0.453125 1527.46679688 21.787109375 1450.66699219 21.787109375 c 0x40
 1376.42675781 21.787109375 1331.20019531 -1.2529296875 1275.73339844 -29.4130859375 c 0
 1211.73339844 -61.83984375 1141.75976562 -97.6796875 1024 -97.6796875 c 0x80
 906.240234375 -97.6796875 836.266601562 -61.83984375 772.266601562 -29.4130859375 c 0
 716.799804688 0.453125 672.426757812 21.787109375 597.333007812 21.787109375 c 0x40
 522.240234375 21.787109375 477.866210938 -1.2529296875 422.400390625 -29.4130859375 c 0
 358.400390625 -61.83984375 285.866210938 -97.6796875 170.666992188 -97.6796875 c 1
 170.666992188 68.7197265625 l 1x80
 245.759765625 68.7197265625 290.133789062 91.759765625 345.599609375 119.919921875 c 0
 409.599609375 152.346679688 479.573242188 188.186523438 597.333007812 188.186523438 c 0x40
 715.09375 188.186523438 785.06640625 152.346679688 849.06640625 119.919921875 c 0
 904.533203125 90.0537109375 947.200195312 68.7197265625 1024 68.7197265625 c 0x80
 1098.24023438 68.7197265625 1143.46679688 91.759765625 1198.93359375 119.919921875 c 0
 1262.93359375 152.346679688 1335.46679688 188.186523438 1450.66699219 188.186523438 c 0x40
1450.66699219 567.919921875 m 0x10
 1565.86621094 567.919921875 1638.40039062 532.080078125 1702.40039062 499.653320312 c 0
 1757.86621094 469.787109375 1800.53320312 448.453125 1877.33300781 448.453125 c 1
 1877.33300781 282.053710938 l 1x20
 1760.42675781 282.053710938 1689.59960938 317.893554688 1625.59960938 350.3203125 c 0
 1570.13378906 380.186523438 1527.46679688 401.51953125 1450.66699219 401.51953125 c 0x10
 1373.86621094 401.51953125 1331.20019531 380.186523438 1275.73339844 350.3203125 c 0
 1211.73339844 318.747070312 1141.75976562 282.053710938 1024 282.053710938 c 0x20
 906.240234375 282.053710938 836.266601562 317.893554688 772.266601562 350.3203125 c 0
 716.799804688 380.186523438 674.133789062 401.51953125 597.333007812 401.51953125 c 0x10
 520.533203125 401.51953125 477.866210938 380.186523438 422.400390625 350.3203125 c 0
 358.400390625 318.747070312 285.866210938 282.053710938 170.666992188 282.053710938 c 1
 170.666992188 448.453125 l 1x20
 245.759765625 448.453125 290.133789062 472.346679688 345.599609375 499.653320312 c 0
 409.599609375 531.2265625 479.573242188 567.919921875 597.333007812 567.919921875 c 0x10
 715.09375 567.919921875 785.06640625 532.080078125 849.06640625 499.653320312 c 0
 904.533203125 469.787109375 947.200195312 448.453125 1024 448.453125 c 0x20
 1098.24023438 448.453125 1143.46679688 472.346679688 1198.93359375 499.653320312 c 0
 1262.93359375 531.2265625 1335.46679688 567.919921875 1450.66699219 567.919921875 c 0x10
1702.40039062 1257.41308594 m 0
 1757.86621094 1229.25292969 1800.53320312 1207.91992188 1877.33300781 1207.91992188 c 1
 1877.33300781 1041.51953125 l 1x02
 1760.42675781 1041.51953125 1689.59960938 1077.36035156 1625.59960938 1109.78710938 c 0
 1570.13378906 1139.65332031 1527.46679688 1160.98632812 1450.66699219 1160.98632812 c 0x01
 1376.42675781 1160.98632812 1331.20019531 1137.09375 1275.73339844 1109.78710938 c 0
 1211.73339844 1078.21289062 1141.75976562 1041.51953125 1024 1041.51953125 c 0x02
 906.240234375 1041.51953125 836.266601562 1077.36035156 772.266601562 1109.78710938 c 0
 716.799804688 1139.65332031 672.426757812 1160.98632812 597.333007812 1160.98632812 c 0x01
 522.240234375 1160.98632812 477.866210938 1137.94628906 422.400390625 1109.78710938 c 0
 358.400390625 1078.21289062 285.866210938 1041.51953125 170.666992188 1041.51953125 c 1
 170.666992188 1206.21289062 l 1x02
 245.759765625 1206.21289062 290.133789062 1229.25292969 345.599609375 1257.41308594 c 0
 409.599609375 1289.83984375 479.573242188 1325.6796875 597.333007812 1325.6796875 c 0x01
 715.09375 1325.6796875 785.06640625 1288.98632812 849.06640625 1257.41308594 c 0
 904.533203125 1227.546875 947.200195312 1206.21289062 1024 1206.21289062 c 0x02
 1098.24023438 1206.21289062 1143.46679688 1230.10644531 1198.93359375 1257.41308594 c 0
 1262.93359375 1289.83984375 1333.75976562 1325.6796875 1450.66699219 1325.6796875 c 0x01
 1567.57324219 1325.6796875 1638.40039062 1289.83984375 1702.40039062 1257.41308594 c 0
1450.66699219 947.653320312 m 0x04
 1565.86621094 947.653320312 1638.40039062 911.813476562 1702.40039062 879.38671875 c 0
 1757.86621094 849.51953125 1800.53320312 828.186523438 1877.33300781 828.186523438 c 1
 1877.33300781 661.787109375 l 1x08
 1760.42675781 661.787109375 1689.59960938 697.626953125 1625.59960938 730.053710938 c 0
 1570.13378906 759.919921875 1527.46679688 781.252929688 1450.66699219 781.252929688 c 0x04
 1376.42675781 781.252929688 1331.20019531 757.360351562 1275.73339844 730.053710938 c 0
 1211.73339844 698.48046875 1141.75976562 661.787109375 1024 661.787109375 c 0x08
 906.240234375 661.787109375 836.266601562 697.626953125 772.266601562 730.053710938 c 0
 716.799804688 759.919921875 671.573242188 781.252929688 597.333007812 781.252929688 c 0x04
 523.09375 781.252929688 477.866210938 757.360351562 422.400390625 730.053710938 c 0
 358.400390625 698.48046875 285.866210938 661.787109375 170.666992188 661.787109375 c 1
 170.666992188 828.186523438 l 1x08
 247.466796875 828.186523438 290.133789062 849.51953125 345.599609375 879.38671875 c 0
 409.599609375 910.959960938 479.573242188 947.653320312 597.333007812 947.653320312 c 0x04
 715.09375 947.653320312 785.06640625 911.813476562 849.06640625 879.38671875 c 0
 904.533203125 849.51953125 947.200195312 828.186523438 1024 828.186523438 c 0x08
 1100.79980469 828.186523438 1143.46679688 849.51953125 1198.93359375 879.38671875 c 0
 1262.93359375 910.959960938 1335.46679688 947.653320312 1450.66699219 947.653320312 c 0x04
EndSplineSet
Validated: 524289
EndChar

StartChar: u1F30E
Encoding: 127758 127758 114
Width: 2048
GlyphClass: 2
Flags: MW
HStem: -239.333 512<768 1259.52> 1040.67 426.666<938.667 1109.33 938.667 938.667>
VStem: 170.667 170.666<439.92 640.453 439.92 849.52> 1706.67 170.666<525.253 756.933>
LayerCount: 2
Fore
SplineSet
1024 1467.33300781 m 0
 1495.04003906 1467.33300781 1877.33300781 1085.04003906 1877.33300781 614 c 0
 1877.33300781 142.959960938 1495.04003906 -239.333007812 1024 -239.333007812 c 0
 552.959960938 -239.333007812 170.666992188 142.959960938 170.666992188 614 c 0
 170.666992188 1085.04003906 552.959960938 1467.33300781 1024 1467.33300781 c 0
938.666992188 -62.693359375 m 1
 938.666992188 102 l 1
 844.799804688 102 768 178.799804688 768 272.666992188 c 2
 768 358 l 1
 359.252929688 766.747070312 l 1
 348.16015625 717.252929688 341.333007812 666.90625 341.333007812 614 c 0
 341.333007812 265.83984375 601.599609375 -20.8798828125 938.666992188 -62.693359375 c 1
1527.46679688 154.053710938 m 1
 1638.40039062 275.2265625 1706.66699219 436.506835938 1706.66699219 614 c 0
 1706.66699219 899.866210938 1530.02636719 1144.7734375 1280 1246.3203125 c 1
 1280 1211.33300781 l 2
 1280 1117.46679688 1203.20019531 1040.66699219 1109.33300781 1040.66699219 c 2
 938.666992188 1040.66699219 l 1
 938.666992188 870 l 2
 938.666992188 823.06640625 900.266601562 784.666992188 853.333007812 784.666992188 c 2
 682.666992188 784.666992188 l 1
 682.666992188 614 l 1
 1194.66699219 614 l 2
 1241.59960938 614 1280 575.599609375 1280 528.666992188 c 2
 1280 272.666992188 l 1
 1365.33300781 272.666992188 l 2
 1442.13378906 272.666992188 1505.28027344 223.172851562 1527.46679688 154.053710938 c 1
EndSplineSet
Validated: 524289
EndChar

StartChar: u1F310
Encoding: 127760 127760 115
Width: 2048
GlyphClass: 2
Flags: MW
HStem: 273 171<433 433 433 652 364 685 861 861 861 1187 1396 1615> 785 171<433 652 364 685 433 824 861 1187 1396 1396 1396 1615>
VStem: 171 171 640 171<585 643> 1237 171<585 643> 1707 171
LayerCount: 2
Fore
SplineSet
1023 1468 m 0
 1495 1468 1877 1085 1877 614 c 0
 1877 143 1495 -239 1023 -239 c 0
 552 -239 171 143 171 614 c 0
 171 1085 552 1468 1023 1468 c 0
1615 956 m 1
 1533 1097 1402 1206 1245 1260 c 1
 1296 1165 1336 1063 1363 956 c 1
 1615 956 l 1
1024 1294 m 1
 953 1192 898 1078 861 956 c 1
 1187 956 l 1
 1150 1078 1095 1192 1024 1294 c 1
364 444 m 1
 652 444 l 1
 645 500 640 556 640 614 c 0
 640 672 645 729 652 785 c 1
 364 785 l 1
 350 730 341 673 341 614 c 0
 341 555 350 499 364 444 c 1
433 273 m 1
 515 131 646 23 803 -31 c 1
 752 64 712 166 685 273 c 1
 433 273 l 1
685 956 m 1
 712 1063 752 1165 803 1260 c 1
 646 1206 515 1098 433 956 c 1
 685 956 l 1
1024 -65 m 1
 1095 37 1150 151 1187 273 c 1
 861 273 l 1
 898 151 953 37 1024 -65 c 1
1224 444 m 1
 1232 500 1237 556 1237 614 c 0
 1237 672 1232 730 1224 785 c 1
 824 785 l 1
 816 730 811 672 811 614 c 0
 811 556 816 500 824 444 c 1
 1224 444 l 1
1245 -31 m 1
 1402 23 1533 132 1615 273 c 1
 1363 273 l 1
 1336 166 1296 64 1245 -31 c 1
1396 444 m 1
 1684 444 l 1
 1698 499 1707 555 1707 614 c 0
 1707 673 1698 730 1684 785 c 1
 1396 785 l 1
 1403 729 1408 672 1408 614 c 0
 1408 556 1403 500 1396 444 c 1
EndSplineSet
Validated: 1
EndChar

StartChar: u1F321
Encoding: 127777 127777 116
Width: 2048
GlyphClass: 2
Flags: MW
HStem: 784.667 85.333 1040.67 85.333 1296.67 170.666
VStem: 597.333 853.334 768 170.667 1024 256<784.667 870 870 870 1040.67 1126 1126 1126> 1109.33 170.667
LayerCount: 2
Fore
SplineSet
1280 528.666992188 m 1xe2
 1383.25292969 451.013671875 1450.66699219 326.426757812 1450.66699219 187.333007812 c 0xf0
 1450.66699219 -48.1865234375 1259.51953125 -239.333007812 1024 -239.333007812 c 0xe4
 788.48046875 -239.333007812 597.333007812 -48.1865234375 597.333007812 187.333007812 c 0xf0
 597.333007812 326.426757812 664.747070312 451.013671875 768 528.666992188 c 1
 768 1211.33300781 l 2
 768 1352.98632812 882.346679688 1467.33300781 1024 1467.33300781 c 0xec
 1165.65332031 1467.33300781 1280 1352.98632812 1280 1211.33300781 c 2
 1280 528.666992188 l 1xe2
938.666992188 699.333007812 m 1xec
 1109.33300781 699.333007812 l 1
 1109.33300781 784.666992188 l 1xea
 1024 784.666992188 l 1
 1024 870 l 1xe4
 1109.33300781 870 l 1
 1109.33300781 955.333007812 l 1
 1109.33300781 1040.66699219 l 1xe2
 1024 1040.66699219 l 1
 1024 1126 l 1xe4
 1109.33300781 1126 l 1
 1109.33300781 1211.33300781 l 2xe2
 1109.33300781 1258.26660156 1070.93359375 1296.66699219 1024 1296.66699219 c 0
 977.06640625 1296.66699219 938.666992188 1258.26660156 938.666992188 1211.33300781 c 2
 938.666992188 699.333007812 l 1xec
EndSplineSet
Validated: 524289
EndChar

StartChar: u1F332
Encoding: 127794 127794 117
Width: 2048
GlyphClass: 2
Flags: MW
VStem: 855.04 337.92
LayerCount: 2
Fore
SplineSet
1450.66699219 614 m 1
 1792 102 l 1
 1192.95996094 102 l 1
 1192.95996094 -239.333007812 l 1
 855.040039062 -239.333007812 l 1
 855.040039062 102 l 1
 264.533203125 102 l 1
 597.333007812 614 l 1
 430.93359375 614 l 1
 1024 1467.33300781 l 1
 1621.33300781 614 l 1
 1450.66699219 614 l 1
EndSplineSet
Validated: 524289
EndChar

StartChar: u1F354
Encoding: 127828 127828 118
Width: 2048
GlyphClass: 2
Flags: MW
HStem: -68.667 341.334 400.667 170.666 486 170.667 784.667 512
LayerCount: 2
Fore
SplineSet
1877.33300781 784.666992188 m 1x90
 172.375 784.666992188 l 1
 171.475585938 793.88671875 171.03125 803.0546875 171.03125 812.1640625 c 0
 171.03125 1079.59863281 553.651367188 1296.66601562 1024.85449219 1296.66601562 c 0
 1496.05664062 1296.66601562 1878.67675781 1079.59863281 1878.67675781 812.1640625 c 0
 1878.67675781 803.0546875 1878.23242188 793.88671875 1877.33300781 784.666992188 c 1x90
456.53515625 486 m 0xb0
 409.6015625 486 390.829101562 474.90625 359.254882812 455.280273438 c 0
 318.294921875 432.240234375 265.388671875 400.666992188 170.668945312 400.666992188 c 1
 170.668945312 571.333007812 l 1xd0
 218.455078125 571.333007812 237.228515625 582.426757812 268.801757812 602.053710938 c 0
 307.202148438 625.09375 360.108398438 656.666992188 454.829101562 656.666992188 c 0xb0
 549.548828125 656.666992188 602.455078125 625.09375 640.85546875 602.053710938 c 0
 672.428710938 583.280273438 692.055664062 571.333007812 738.98828125 571.333007812 c 0xd0
 786.775390625 571.333007812 805.548828125 582.426757812 837.122070312 602.053710938 c 0
 875.521484375 625.09375 928.428710938 656.666992188 1023.1484375 656.666992188 c 0xb0
 1117.86816406 656.666992188 1170.77539062 625.09375 1209.17480469 602.053710938 c 0
 1240.74902344 583.280273438 1260.375 571.333007812 1307.30859375 571.333007812 c 0xd0
 1354.2421875 571.333007812 1373.86816406 582.426757812 1405.44238281 602.053710938 c 0
 1443.84179688 625.09375 1496.74902344 656.666992188 1591.46875 656.666992188 c 0xb0
 1686.18847656 656.666992188 1739.09570312 625.09375 1777.49511719 602.053710938 c 0
 1809.06835938 583.280273438 1876.48242188 569.626953125 1876.48242188 569.626953125 c 1
 1876.48242188 400.666992188 l 1xd0
 1782.61523438 401.51953125 1729.70898438 432.240234375 1691.30859375 455.280273438 c 0
 1659.73535156 474.053710938 1640.10839844 486 1593.17480469 486 c 0xb0
 1545.38867188 486 1526.61523438 474.90625 1495.04199219 455.280273438 c 0
 1456.64160156 432.240234375 1403.73535156 400.666992188 1309.015625 400.666992188 c 0xd0
 1214.29492188 400.666992188 1161.38867188 432.240234375 1122.98828125 455.280273438 c 0
 1091.41503906 474.053710938 1071.7890625 486 1024.85546875 486 c 0xb0
 977.068359375 486 958.294921875 474.90625 926.721679688 455.280273438 c 0
 888.322265625 432.240234375 835.415039062 400.666992188 740.6953125 400.666992188 c 0xd0
 645.975585938 400.666992188 593.068359375 432.240234375 554.668945312 455.280273438 c 0
 523.095703125 474.053710938 503.46875 486 456.53515625 486 c 0xb0
170.668945312 272.666992188 m 1
 1877.33496094 272.666992188 l 1
 1877.33496094 102 l 2
 1877.33496094 8.1337890625 1800.53515625 -68.6669921875 1706.66894531 -68.6669921875 c 2
 341.334960938 -68.6669921875 l 2
 247.46875 -68.6669921875 170.668945312 8.1337890625 170.668945312 102 c 2
 170.668945312 272.666992188 l 1
EndSplineSet
Validated: 524289
EndChar

StartChar: u1F355
Encoding: 127829 127829 119
Width: 2048
GlyphClass: 2
Flags: MW
HStem: 1211.33 256
LayerCount: 2
Fore
SplineSet
1024 1467.33300781 m 0
 1328.63964844 1467.33300781 1602.55957031 1335.06640625 1791.14648438 1126 c 1
 1024 -239.333007812 l 1
 256.853515625 1126 l 1
 446.29296875 1335.91992188 719.360351562 1467.33300781 1024 1467.33300781 c 0
597.333007812 1040.66699219 m 0
 597.333007812 946.799804688 674.133789062 870 768 870 c 0
 861.866210938 870 938.666992188 946.799804688 938.666992188 1040.66699219 c 0
 938.666992188 1134.53320312 861.866210938 1211.33300781 768 1211.33300781 c 0
 674.133789062 1211.33300781 597.333007812 1134.53320312 597.333007812 1040.66699219 c 0
1024 358 m 0
 1117.86621094 358 1194.66699219 434.799804688 1194.66699219 528.666992188 c 0
 1194.66699219 622.533203125 1117.86621094 699.333007812 1024 699.333007812 c 0
 930.133789062 699.333007812 853.333007812 622.533203125 853.333007812 528.666992188 c 0
 853.333007812 434.799804688 930.133789062 358 1024 358 c 0
EndSplineSet
Validated: 524289
EndChar

StartChar: u1F366
Encoding: 127846 127846 120
Width: 2048
GlyphClass: 2
Flags: MW
HStem: 528.667 938.666
VStem: 341.333 1365.33
LayerCount: 2
Fore
SplineSet
750.080078125 579.866210938 m 1
 1028.26660156 49.09375 l 1
 1298.7734375 579.013671875 l 1
 1289.38671875 585.83984375 1280.85351562 592.666992188 1273.17285156 600.346679688 c 1
 1201.49316406 555.120117188 1115.30664062 528.666992188 1024 528.666992188 c 0
 932.693359375 528.666992188 846.506835938 555.120117188 774.827148438 600.346679688 c 1
 767.146484375 592.666992188 758.61328125 585.83984375 750.080078125 579.866210938 c 1
582.827148438 529.51953125 m 1
 448 537.200195312 341.333007812 648.133789062 341.333007812 784.666992188 c 0
 341.333007812 911.813476562 434.346679688 1017.62695312 556.373046875 1037.25292969 c 1
 576 1277.89355469 778.240234375 1467.33300781 1024 1467.33300781 c 0
 1269.75976562 1467.33300781 1472 1277.89355469 1491.62695312 1037.25292969 c 1
 1613.65332031 1017.62695312 1706.66699219 911.813476562 1706.66699219 784.666992188 c 0
 1706.66699219 648.986328125 1600.85351562 537.200195312 1466.87988281 529.51953125 c 1
 1029.97363281 -324.666992188 l 1
 582.827148438 529.51953125 l 1
EndSplineSet
Validated: 524289
EndChar

StartChar: u1F382
Encoding: 127874 127874 121
Width: 2048
GlyphClass: 2
Flags: MW
HStem: -239 426<317.5 462.5 392 462.5 1585.5 1656>
VStem: 853 342<1250 1313> 939 170<870 1041 870 1041>
LayerCount: 2
Fore
SplineSet
1024 1126 m 0xc0
 930 1126 853 1203 853 1297 c 0
 853 1329 862 1359 878 1385 c 2
 1024 1638 l 1
 1170 1385 l 2
 1186 1359 1195 1329 1195 1297 c 0
 1195 1203 1119 1126 1024 1126 c 0xc0
1417 274 m 2
 1472 218 1546 187 1625 187 c 0
 1687 187 1744 207 1792 239 c 1
 1792 -154 l 2
 1792 -201 1754 -239 1707 -239 c 2
 341 -239 l 2
 294 -239 256 -201 256 -154 c 2
 256 239 l 1
 304 207 361 187 423 187 c 0
 502 187 576 218 631 274 c 2
 724 365 l 1
 816 274 l 2
 872 218 948 190 1024 190 c 0
 1101 190 1177 218 1233 274 c 2
 1325 365 l 1
 1417 274 l 2
1536 870 m 2
 1677.38183594 870 1791.00585938 756.990234375 1791.00585938 615.853515625 c 0
 1791.00585938 615.236328125 1791.00390625 614.618164062 1791 614 c 2
 1791 483 l 2
 1791 390 1716 315 1624 315 c 0
 1580 315 1538 332 1506 364 c 2
 1324 546 l 1
 1142 364 l 2
 1110 332 1067 317 1024 317 c 0
 980 317 937 332 905 364 c 2
 724 546 l 1
 541 364 l 2
 510 332 468 315 423 315 c 0
 331 315 256 390 256 483 c 2
 256 614 l 2
 256 756 370 870 512 870 c 2
 939 870 l 1
 939 1041 l 1
 1109 1041 l 1
 1109 870 l 1xa0
 1536 870 l 2
EndSplineSet
Validated: 524289
EndChar

StartChar: u1F393
Encoding: 127891 127891 122
Width: 2048
GlyphClass: 2
Flags: MW
HStem: 1362 20G<1024 1024>
VStem: 1792 170.667
LayerCount: 2
Fore
SplineSet
426.666992188 513.306640625 m 1
 1024 187.333007812 l 1
 1621.33300781 513.306640625 l 1
 1621.33300781 171.973632812 l 1
 1024 -154 l 1
 426.666992188 171.973632812 l 1
 426.666992188 513.306640625 l 1
1024 1382 m 1
 1962.66699219 870 l 1
 1962.66699219 187.333007812 l 1
 1792 187.333007812 l 1
 1792 776.986328125 l 1
 1024 358 l 1
 85.3330078125 870 l 1
 1024 1382 l 1
EndSplineSet
Validated: 524289
EndChar

StartChar: u1F396
Encoding: 127894 127894 123
Width: 2048
GlyphClass: 2
Flags: MW
HStem: 1382 85.333<938.667 1109.33 938.667 938.667>
VStem: 597.333 341.334<747.974 1382 594.373 1467.33 594.373 1467.33> 1109.33 341.334<732.613 747.974 747.974 1382 1382 1382>
LayerCount: 2
Fore
SplineSet
1450.66699219 747.973632812 m 2
 1450.66699219 717.252929688 1435.30664062 689.946289062 1409.70703125 674.586914062 c 2
 1053.01367188 460.400390625 l 1
 1137.49316406 260.719726562 l 1
 1428.48046875 235.973632812 l 1
 1207.46679688 44.8271484375 l 1
 1274.02636719 -239.333007812 l 1
 1024 -88.29296875 l 1
 773.973632812 -239.333007812 l 1
 841.38671875 44.8271484375 l 1
 620.373046875 235.973632812 l 1
 911.360351562 260.719726562 l 1
 995.83984375 460.400390625 l 1
 639.146484375 674.586914062 l 2
 612.693359375 689.946289062 597.333007812 718.106445312 597.333007812 747.973632812 c 2
 597.333007812 1467.33300781 l 1
 1450.66699219 1467.33300781 l 1
 1450.66699219 747.973632812 l 2
1109.33300781 594.373046875 m 1
 1109.33300781 1382 l 1
 938.666992188 1382 l 1
 938.666992188 594.373046875 l 1
 1024 543.172851562 l 1
 1109.33300781 594.373046875 l 1
EndSplineSet
Validated: 524289
EndChar

StartChar: u1F39E
Encoding: 127902 127902 124
Width: 2048
GlyphClass: 2
Flags: MW
HStem: 17 171<512 683 512 683 1365 1536> 358 171<512 683 512 683 1365 1536> 700 171 1041 171<512 683 512 683 1365 1536>
VStem: 341 171<-154 17 188 358 529 700 870 1041 1212 1382> 683 683 1536 171<-154 17 17 17 188 358 358 358 529 700 700 700 870 1041 1041 1041 1212 1382 -154 1382>
CounterMasks: 1 0e
LayerCount: 2
Fore
SplineSet
1536 1382 m 1
 1707 1382 l 1
 1707 -154 l 1
 1536 -154 l 1
 1536 17 l 1
 1365 17 l 1
 1365 -154 l 1
 683 -154 l 1
 683 17 l 1
 512 17 l 1
 512 -154 l 1
 341 -154 l 1
 341 1382 l 1
 512 1382 l 1
 512 1212 l 1
 683 1212 l 1
 683 1382 l 1
 1365 1382 l 1
 1365 1212 l 1
 1536 1212 l 1
 1536 1382 l 1
683 188 m 1
 683 358 l 1
 512 358 l 1
 512 188 l 1
 683 188 l 1
683 529 m 1
 683 700 l 1
 512 700 l 1
 512 529 l 1
 683 529 l 1
683 870 m 1
 683 1041 l 1
 512 1041 l 1
 512 870 l 1
 683 870 l 1
1536 188 m 1
 1536 358 l 1
 1365 358 l 1
 1365 188 l 1
 1536 188 l 1
1536 529 m 1
 1536 700 l 1
 1365 700 l 1
 1365 529 l 1
 1536 529 l 1
1536 870 m 1
 1536 1041 l 1
 1365 1041 l 1
 1365 870 l 1
 1536 870 l 1
EndSplineSet
Validated: 1
EndChar

StartChar: u1F3A1
Encoding: 127905 127905 125
Width: 2048
GlyphClass: 2
Flags: MW
HStem: -239 341<403.5 654 403.5 493 997 1051> 320 583<1004.5 1043> 1126 341<992.5 1055.5>
VStem: 262 341<261.5 287.5 261.5 298> 299 119<595 650> 729 590<577.5 692.5 577 693> 1445 340<263 288.5> 1626 122<596 650 578 655>
LayerCount: 2
Fore
SplineSet
890 38 m 1xe4
 922 77 970 102 1024 102 c 0
 1078 102 1126 77 1157 38 c 1
 1190 46 1222 56 1253 69 c 1
 1132 340 l 1
 1098 327 1062 320 1024 320 c 0
 985 320 947 328 913 342 c 1
 791 70 l 1
 823 56 856 45 890 38 c 1xe4
439 785 m 1
 426 734 418 681 418 627 c 0xed
 418 563 428 501 446 443 c 1
 500 439 550 409 579 359 c 0
 595 332 603 302 603 273 c 0
 603 250 598 227 589 206 c 1
 612 183 637 161 663 141 c 1
 793 431 l 1
 753 480 729 543 729 612 c 0
 729 774 861 903 1024 903 c 0
 1187 903 1319 773 1319 612 c 0
 1319 542 1295 478 1253 428 c 1
 1381 142 l 1
 1408 163 1434 185 1457 210 c 1
 1449 230 1445 252 1445 274 c 0xf6
 1445 303 1452 332 1468 359 c 0
 1496 407 1545 437 1597 443 c 1
 1616 501 1626 564 1626 628 c 0xe5
 1626 682 1619 736 1605 786 c 1
 1551 790 1498 820 1469 872 c 0
 1453 899 1446 928 1446 957 c 0
 1446 985 1453 1013 1466 1038 c 1
 1388 1122 1287 1184 1172 1213 c 1
 1143 1160 1087 1126 1024 1126 c 0
 961 1126 905 1161 876 1212 c 1
 761 1183 660 1123 582 1039 c 1
 596 1013 604 985 604 955 c 0
 604 926 596 897 580 870 c 0
 550 817 496 787 439 785 c 1
329 821 m 1
 286 853 262 904 262 956 c 0
 262 985 269 1014 285 1041 c 0
 317 1095 374 1126 433 1126 c 0
 455 1126 477 1122 497 1113 c 1
 592 1213 716 1286 854 1320 c 1
 866 1403 938 1467 1024 1467 c 0
 1110 1467 1182 1403 1193 1320 c 1
 1332 1286 1455 1214 1550 1113 c 1
 1571 1122 1593 1126 1615 1126 c 0
 1674 1126 1731 1095 1762 1041 c 0
 1778 1014 1785 985 1785 956 c 0xf6
 1785 904 1761 853 1719 821 c 1
 1738 755 1748 686 1748 614 c 0xe5
 1748 542 1738 473 1719 407 c 1
 1761 375 1785 324 1785 272 c 0
 1785 243 1778 214 1762 187 c 0
 1730 133 1673 102 1614 102 c 0
 1593 102 1571 106 1550 115 c 1
 1516 78 1477 46 1435 17 c 1
 1550 -239 l 1
 1391 -239 l 1
 1308 -54 l 1
 1271 -70 1233 -82 1194 -92 c 1
 1182 -175 1110 -239 1024 -239 c 0
 938 -239 866 -175 855 -92 c 1
 814 -81 775 -69 737 -52 c 1
 654 -239 l 1
 493 -239 l 1
 609 19 l 1
 569 47 532 80 498 115 c 1
 477 106 455 102 433 102 c 0
 374 102 317 133 285 187 c 0
 269 214 262 243 262 272 c 0xf6
 262 324 286 375 329 407 c 1
 309 473 299 542 299 614 c 0
 299 686 309 755 329 821 c 1
EndSplineSet
Validated: 1
EndChar

StartChar: u1F3A4
Encoding: 127908 127908 126
Width: 2048
GlyphClass: 2
Flags: MW
HStem: 126 138 444 1024<953 1095>
VStem: 427 145<572 700 572 700> 768 511<629 1212> 939 171 1476 145<572 700>
LayerCount: 2
Fore
SplineSet
1024 444 m 0xf4
 882 444 768 558 768 700 c 2
 768 1212 l 2
 768 1354 882 1468 1024 1468 c 0
 1166 1468 1280 1354 1280 1212 c 2
 1279 700 l 2
 1279 558 1166 444 1024 444 c 0xf4
1476 700 m 1
 1621 700 l 1
 1621 408 1389 167 1109 126 c 1
 1109 -154 l 1
 939 -154 l 1
 939 126 l 1xec
 659 168 427 409 427 700 c 1
 572 700 l 1
 572 444 788 265 1024 265 c 0
 1260 265 1476 444 1476 700 c 1
EndSplineSet
Validated: 1
EndChar

StartChar: u1F3A8
Encoding: 127912 127912 127
Width: 2048
GlyphClass: 2
Flags: MW
HStem: -154 768<519.253 1059.41> 272.667 341.333 1211.33 170.667
VStem: 256 170.667 938.667 170.666 1621.33 170.667
CounterMasks: 1 1c
LayerCount: 2
Fore
SplineSet
1024 1382 m 0x7c
 1448.10644531 1382 1792 1076.50683594 1792 699.333007812 c 0
 1792 463.813476562 1600.85351562 272.666992188 1365.33300781 272.666992188 c 2
 1214.29296875 272.666992188 l 2x7c
 1143.46679688 272.666992188 1086.29296875 215.493164062 1086.29296875 144.666992188 c 0
 1086.29296875 112.240234375 1099.09375 82.373046875 1118.71972656 60.1865234375 c 0
 1139.20019531 37.146484375 1152 7.2802734375 1152 -26 c 0
 1152 -96.8271484375 1094.82714844 -154 1024 -154 c 0xbc
 599.893554688 -154 256 189.893554688 256 614 c 0
 256 1038.10644531 599.893554688 1382 1024 1382 c 0x7c
554.666992188 614 m 0xbc
 625.493164062 614 682.666992188 671.172851562 682.666992188 742 c 0
 682.666992188 812.827148438 625.493164062 870 554.666992188 870 c 0
 483.83984375 870 426.666992188 812.827148438 426.666992188 742 c 0
 426.666992188 671.172851562 483.83984375 614 554.666992188 614 c 0xbc
810.666992188 955.333007812 m 0
 881.493164062 955.333007812 938.666992188 1012.50683594 938.666992188 1083.33300781 c 0
 938.666992188 1154.16015625 881.493164062 1211.33300781 810.666992188 1211.33300781 c 0
 739.83984375 1211.33300781 682.666992188 1154.16015625 682.666992188 1083.33300781 c 0
 682.666992188 1012.50683594 739.83984375 955.333007812 810.666992188 955.333007812 c 0
1237.33300781 955.333007812 m 0
 1308.16015625 955.333007812 1365.33300781 1012.50683594 1365.33300781 1083.33300781 c 0
 1365.33300781 1154.16015625 1308.16015625 1211.33300781 1237.33300781 1211.33300781 c 0
 1166.50683594 1211.33300781 1109.33300781 1154.16015625 1109.33300781 1083.33300781 c 0
 1109.33300781 1012.50683594 1166.50683594 955.333007812 1237.33300781 955.333007812 c 0
1493.33300781 614 m 0x7c
 1564.16015625 614 1621.33300781 671.172851562 1621.33300781 742 c 0
 1621.33300781 812.827148438 1564.16015625 870 1493.33300781 870 c 0
 1422.50683594 870 1365.33300781 812.827148438 1365.33300781 742 c 0
 1365.33300781 671.172851562 1422.50683594 614 1493.33300781 614 c 0x7c
EndSplineSet
Validated: 524289
EndChar

StartChar: u1F3AE
Encoding: 127918 127918 128
Width: 2048
GlyphClass: 2
Flags: MW
HStem: 955.333 256<682.667 768 682.667 682.667 1256.53 1303.47>
VStem: 768 426.667<528.667 893.467 699.333 893.467 846.533 893.467 846.533 955.333 846.533 955.333>
LayerCount: 2
Fore
SplineSet
1841.49316406 264.986328125 m 2
 1843.00292969 254.420898438 1843.734375 243.94921875 1843.734375 233.625 c 0
 1843.734375 115.53125 1748.01757812 16.6669921875 1625.59960938 16.6669921875 c 0
 1568.42675781 16.6669921875 1512.95996094 39.70703125 1472 80.6669921875 c 2
 1280 272.666992188 l 1
 768 272.666992188 l 1
 575.146484375 80.6669921875 l 2
 534.186523438 39.70703125 479.573242188 16.6669921875 421.546875 16.6669921875 c 0
 299.91796875 16.6669921875 204.265625 115.525390625 204.265625 233.615234375 c 0
 204.265625 243.943359375 204.997070312 254.41796875 206.506835938 264.986328125 c 2
 299.51953125 918.639648438 l 2
 323.413085938 1086.74707031 467.626953125 1211.33300781 637.440429688 1211.33300781 c 2
 1410.55957031 1211.33300781 l 2
 1580.37304688 1211.33300781 1724.58691406 1086.74707031 1748.48046875 918.639648438 c 2
 1841.49316406 264.986328125 l 2
938.666992188 699.333007812 m 1
 938.666992188 784.666992188 l 1
 768 784.666992188 l 1
 768 955.333007812 l 1
 682.666992188 955.333007812 l 1
 682.666992188 784.666992188 l 1
 512 784.666992188 l 1
 512 699.333007812 l 1
 682.666992188 699.333007812 l 1
 682.666992188 528.666992188 l 1
 768 528.666992188 l 1
 768 699.333007812 l 1
 938.666992188 699.333007812 l 1
1280 784.666992188 m 0
 1326.93359375 784.666992188 1365.33300781 823.06640625 1365.33300781 870 c 0
 1365.33300781 916.93359375 1326.93359375 955.333007812 1280 955.333007812 c 0
 1233.06640625 955.333007812 1194.66699219 916.93359375 1194.66699219 870 c 0
 1194.66699219 823.06640625 1233.06640625 784.666992188 1280 784.666992188 c 0
1450.66699219 528.666992188 m 0
 1497.59960938 528.666992188 1536 567.06640625 1536 614 c 0
 1536 660.93359375 1497.59960938 699.333007812 1450.66699219 699.333007812 c 0
 1403.73339844 699.333007812 1365.33300781 660.93359375 1365.33300781 614 c 0
 1365.33300781 567.06640625 1403.73339844 528.666992188 1450.66699219 528.666992188 c 0
EndSplineSet
Validated: 524289
EndChar

StartChar: u1F3B2
Encoding: 127922 127922 129
Width: 2048
GlyphClass: 2
Flags: MW
HStem: -154 256<379.733 675.414 604.586 675.414 1372.59 1443.41> 358 512<604.586 675.414 1372.59 1443.41> 1126 256<604.586 675.414 1372.59 1443.41>
VStem: 256 256<194.586 265.414 962.586 1033.41> 768 512<194.586 265.414 962.586 1033.41> 1536 256<194.586 265.414 962.586 1033.41>
CounterMasks: 1 fc
LayerCount: 2
Fore
SplineSet
1621.33300781 1382 m 2
 1715.20019531 1382 1792 1305.20019531 1792 1211.33300781 c 2
 1792 16.6669921875 l 2
 1792 -77.2001953125 1715.20019531 -154 1621.33300781 -154 c 2
 426.666992188 -154 l 2
 332.799804688 -154 256 -77.2001953125 256 16.6669921875 c 2
 256 1211.33300781 l 2
 256 1305.20019531 332.799804688 1382 426.666992188 1382 c 2
 1621.33300781 1382 l 2
640 102 m 0
 710.827148438 102 768 159.172851562 768 230 c 0
 768 300.827148438 710.827148438 358 640 358 c 0
 569.172851562 358 512 300.827148438 512 230 c 0
 512 159.172851562 569.172851562 102 640 102 c 0
640 870 m 0
 710.827148438 870 768 927.172851562 768 998 c 0
 768 1068.82714844 710.827148438 1126 640 1126 c 0
 569.172851562 1126 512 1068.82714844 512 998 c 0
 512 927.172851562 569.172851562 870 640 870 c 0
1024 486 m 0
 1094.82714844 486 1152 543.172851562 1152 614 c 0
 1152 684.827148438 1094.82714844 742 1024 742 c 0
 953.172851562 742 896 684.827148438 896 614 c 0
 896 543.172851562 953.172851562 486 1024 486 c 0
1408 102 m 0
 1478.82714844 102 1536 159.172851562 1536 230 c 0
 1536 300.827148438 1478.82714844 358 1408 358 c 0
 1337.17285156 358 1280 300.827148438 1280 230 c 0
 1280 159.172851562 1337.17285156 102 1408 102 c 0
1408 870 m 0
 1478.82714844 870 1536 927.172851562 1536 998 c 0
 1536 1068.82714844 1478.82714844 1126 1408 1126 c 0
 1337.17285156 1126 1280 1068.82714844 1280 998 c 0
 1280 927.172851562 1337.17285156 870 1408 870 c 0
EndSplineSet
Validated: 524289
EndChar

StartChar: u1F3C0
Encoding: 127936 127936 130
Width: 1920
GlyphClass: 2
Flags: MW
VStem: 762.026 176.641 1109.33 176.641
LayerCount: 2
Fore
SplineSet
1458.34667969 699.333007812 m 1
 1486.50683594 865.733398438 1594.02636719 1003.97363281 1741.65332031 1074.79980469 c 1
 1812.48046875 964.719726562 1859.41308594 836.719726562 1873.06640625 699.333007812 c 1
 1458.34667969 699.333007812 l 1
589.653320312 699.333007812 m 1
 174.93359375 699.333007812 l 1
 188.586914062 836.719726562 235.51953125 964.719726562 306.346679688 1074.79980469 c 1
 453.973632812 1003.97363281 561.493164062 865.733398438 589.653320312 699.333007812 c 1
1285.97363281 699.333007812 m 1
 1109.33300781 699.333007812 l 1
 1109.33300781 1463.06640625 l 1
 1313.28027344 1442.58691406 1495.89355469 1350.42675781 1632.42675781 1211.33300781 c 1
 1446.40039062 1108.08007812 1313.28027344 920.346679688 1285.97363281 699.333007812 c 1
762.026367188 699.333007812 m 1
 734.719726562 920.346679688 601.599609375 1108.08007812 415.573242188 1211.33300781 c 1
 551.252929688 1350.42675781 734.719726562 1442.58691406 938.666992188 1463.06640625 c 1
 938.666992188 699.333007812 l 1
 762.026367188 699.333007812 l 1
1285.97363281 528.666992188 m 1
 1313.28027344 307.653320312 1446.40039062 119.919921875 1632.42675781 16.6669921875 c 1
 1496.74707031 -122.426757812 1313.28027344 -214.586914062 1109.33300781 -235.06640625 c 1
 1109.33300781 528.666992188 l 1
 1285.97363281 528.666992188 l 1
306.346679688 153.200195312 m 1
 235.51953125 263.280273438 188.586914062 391.280273438 174.93359375 528.666992188 c 1
 589.653320312 528.666992188 l 1
 561.493164062 363.120117188 453.120117188 224.026367188 306.346679688 153.200195312 c 1
1458.34667969 528.666992188 m 1
 1873.06640625 528.666992188 l 1
 1859.41308594 391.280273438 1812.48046875 263.280273438 1741.65332031 153.200195312 c 1
 1594.02636719 224.026367188 1486.50683594 362.266601562 1458.34667969 528.666992188 c 1
762.026367188 528.666992188 m 1
 938.666992188 528.666992188 l 1
 938.666992188 -235.06640625 l 1
 734.719726562 -214.586914062 552.106445312 -122.426757812 415.573242188 16.6669921875 c 1
 601.599609375 119.919921875 734.719726562 307.653320312 762.026367188 528.666992188 c 1
EndSplineSet
Validated: 524289
EndChar

StartChar: u1F3C2
Encoding: 127938 127938 131
Width: 2048
GlyphClass: 2
Flags: MW
HStem: -282.108 128.17 614 170.667<1627.73 1706.67 1627.73 1706.67> 1040.67 170.666<776.533 977.066 776.533 776.533> 1211.33 341.334<682.667 1412.27 1169.07 1412.27 1318.4 1412.27>
VStem: 1194.67 341.333<1335.07 1428.93>
LayerCount: 2
Fore
SplineSet
1194.66699219 1382 m 0xd8
 1194.66699219 1475.86621094 1271.46679688 1552.66699219 1365.33300781 1552.66699219 c 0
 1459.20019531 1552.66699219 1536 1475.86621094 1536 1382 c 0
 1536 1288.13378906 1459.20019531 1211.33300781 1365.33300781 1211.33300781 c 0
 1271.46679688 1211.33300781 1194.66699219 1288.13378906 1194.66699219 1382 c 0xd8
1826.13378906 -76.3466796875 m 0
 1858.45996094 -83.1123046875 1877.54101562 -111.732421875 1877.54101562 -140.62109375 c 0
 1877.54101562 -144.524414062 1877.19238281 -148.432617188 1876.48144531 -152.291992188 c 0
 1873.92089844 -165.092773438 1867.09472656 -177.892578125 1856.00097656 -187.279296875 c 0
 1786.83691406 -247.131835938 1697.97949219 -282.107421875 1603.96777344 -282.107421875 c 0
 1577.34863281 -282.107421875 1550.31640625 -279.303710938 1523.20117188 -273.466796875 c 2
 445.44140625 -43.919921875 l 2
 322.560546875 -17.466796875 226.134765625 64.453125 176.640625 170.266601562 c 0
 170.66796875 183.06640625 168.9609375 197.573242188 172.374023438 209.51953125 c 0
 178.352539062 237.915039062 204.616210938 260.421875 235.692382812 260.421875 c 0
 240.103515625 260.421875 244.612304688 259.96875 249.173828125 259.013671875 c 0
 268.80078125 254.747070312 284.161132812 241.09375 292.694335938 223.172851562 c 0
 325.974609375 153.200195312 389.974609375 97.7333984375 471.89453125 80.6669921875 c 2
 512.000976562 72.1337890625 l 1
 810.66796875 272.666992188 l 1
 741.547851562 570.48046875 l 2
 738.581054688 583.3359375 737.118164062 596.40625 737.118164062 609.421875 c 0
 737.118164062 641.33203125 745.909179688 672.912109375 762.879882812 700.186523438 c 2
 977.06640625 1040.66699219 l 1
 776.533203125 1040.66699219 l 1xe8
 614.400390625 779.546875 l 1
 469.333007812 870 l 1
 682.666992188 1211.33300781 l 1
 1169.06640625 1211.33300781 l 2
 1246.71972656 1211.33300781 1293.65332031 1156.71972656 1309.86621094 1120.02636719 c 2
 1354.24023438 1016.7734375 l 2
 1413.12011719 880.240234375 1548.79980469 784.666992188 1706.66699219 784.666992188 c 1
 1706.66699219 614 l 1
 1508.69335938 614 1333.75976562 718.106445312 1235.62695312 875.120117188 c 1
 1082.02636719 628.506835938 l 1
 1365.33300781 400.666992188 l 1
 1450.66699219 -127.546875 l 1
 1549.65332031 -148.026367188 l 2
 1567.9140625 -152.020507812 1586.13183594 -153.9375 1604.07128906 -153.9375 c 0
 1666.61132812 -153.9375 1725.76464844 -130.640625 1771.51953125 -90.853515625 c 0
 1786.87988281 -78.0537109375 1806.50683594 -72.080078125 1826.13378906 -76.3466796875 c 0
744.9609375 22.640625 m 1
 1271.46777344 -89.1455078125 l 1
 1207.46777344 306.80078125 l 1
 965.12109375 479.173828125 l 1
 1002.66796875 195.8671875 l 1
 744.9609375 22.640625 l 1
EndSplineSet
Validated: 524289
EndChar

StartChar: u1F3C4
Encoding: 127940 127940 132
Width: 2048
GlyphClass: 2
Flags: MW
HStem: -324.667 170.667<1748.05 1877.33 1792 1877.33> -88.667 20G 614 170.667 1168.67 341.333
VStem: 1194.67 170.666 1280 341.333<1292.4 1386.27>
LayerCount: 2
Fore
SplineSet
1792 -324.666992188 m 2xf4
 1704.10644531 -324.666992188 1616.21289062 -303.33203125 1536 -260.666015625 c 1
 1455.359375 -303.33203125 1367.6796875 -324.665039062 1280 -324.665039062 c 0
 1192.3203125 -324.665039062 1104.640625 -303.33203125 1024 -260.666015625 c 1
 943.359375 -303.33203125 855.6796875 -324.665039062 768 -324.665039062 c 0
 680.3203125 -324.665039062 592.640625 -303.33203125 512 -260.666015625 c 1
 430.93359375 -303.33203125 343.893554688 -324.666015625 256 -324.666015625 c 2
 170.666992188 -324.666015625 l 1
 170.666992188 -153.999023438 l 1
 256 -153.999023438 l 2
 344.747070312 -153.999023438 433.493164062 -124.1328125 512 -68.666015625 c 1
 590.080078125 -124.1328125 679.040039062 -151.866210938 768 -151.866210938 c 0
 856.959960938 -151.866210938 945.919921875 -124.1328125 1024 -68.666015625 c 1
 1102.08007812 -124.1328125 1191.04003906 -151.866210938 1280 -151.866210938 c 0
 1368.95996094 -151.866210938 1457.91992188 -124.1328125 1536 -68.6669921875 c 1
 1613.65332031 -124.133789062 1703.25292969 -154 1792 -154 c 2
 1877.33300781 -154 l 1
 1877.33300781 -324.666992188 l 1
 1792 -324.666992188 l 2xf4
1450.66699219 1510.00097656 m 0
 1544.53320312 1510.00097656 1621.33300781 1433.20117188 1621.33300781 1339.33398438 c 0
 1621.33300781 1245.46777344 1544.53320312 1168.66796875 1450.66699219 1168.66796875 c 0
 1356.79980469 1168.66796875 1280 1245.46777344 1280 1339.33398438 c 0
 1280 1433.20117188 1356.79980469 1510.00097656 1450.66699219 1510.00097656 c 0
1231.36035156 914.374023438 m 1
 1039.36132812 784.66796875 l 1
 1365.33398438 528.66796875 l 1
 1365.33398438 200.987304688 l 1xf8
 1410.56054688 168.560546875 1453.22753906 134.427734375 1492.48144531 101.147460938 c 1
 1434.45410156 51.654296875 1360.21386719 16.66796875 1280.00097656 16.66796875 c 0
 1177.60058594 16.66796875 1086.29394531 72.9873046875 1024.00097656 144.66796875 c 1
 961.708007812 72.9873046875 870.401367188 16.66796875 768.000976562 16.66796875 c 0
 739.840820312 16.66796875 712.534179688 20.9345703125 686.081054688 28.6142578125 c 1
 442.880859375 195.8671875 256.000976562 381.89453125 256.000976562 504.774414062 c 0
 256.000976562 592.66796875 342.1875 614.000976562 413.8671875 614.000976562 c 0
 497.494140625 614.000976562 608.427734375 587.547851562 729.600585938 543.173828125 c 1
 684.374023438 807.708007812 l 2
 683.0625 815.694335938 682.416992188 823.748046875 682.416992188 831.7890625 c 0
 682.416992188 881.30859375 706.885742188 930.35546875 750.93359375 960.454101562 c 2
 934.400390625 1084.1875 l 1
 763.733398438 1115.76074219 l 1
 523.09375 951.067382812 l 1
 426.666992188 1091.8671875 l 1
 725.333007812 1296.66796875 l 1
 1198.93359375 1208.77441406 l 2
 1237.33300781 1201.09472656 1278.29296875 1177.20117188 1303.04003906 1132.828125 c 2
 1378.13378906 1000.56054688 l 2
 1451.51953125 871.708007812 1590.61328125 784.66796875 1749.33300781 784.66796875 c 1
 1749.33300781 614.000976562 l 1
 1528.3203125 614.000976562 1334.61328125 735.173828125 1231.36035156 914.374023438 c 1
878.934570312 690.80078125 m 1
 916.481445312 464.66796875 l 1
 994.987304688 428.828125 1128.10742188 356.293945312 1194.66796875 315.333984375 c 1
 1194.66796875 443.333984375 l 1
 878.934570312 690.80078125 l 1
EndSplineSet
Validated: 524289
EndChar

StartChar: u1F3C8
Encoding: 127944 127944 133
Width: 2048
GlyphClass: 2
Flags: MW
HStem: 1338.11 21G
LayerCount: 2
Fore
SplineSet
257.70703125 305.09375 m 1
 715.09375 -152.29296875 l 1
 695.54296875 -153.0234375 676.362304688 -153.368164062 657.6328125 -153.368164062 c 0
 479.345703125 -153.368164062 341.908203125 -122.147460938 314.879882812 -95.1201171875 c 0
 287.62890625 -67.8681640625 256.825195312 70.9189453125 256.825195312 251.884765625 c 0
 256.825195312 269.252929688 257.109375 287.009765625 257.70703125 305.09375 c 1
1116.16015625 1358.10644531 m 1
 1767.25292969 707.013671875 l 1
 1731.41308594 508.186523438 1652.05371094 299.120117188 1495.89355469 142.106445312 c 0
 1339.73339844 -14.90625 1130.66699219 -94.2666015625 930.986328125 -129.252929688 c 1
 279.893554688 521.83984375 l 1
 315.733398438 720.666992188 395.09375 929.733398438 551.252929688 1086.74707031 c 0
 707.413085938 1243.75976562 917.333007812 1322.26660156 1116.16015625 1358.10644531 c 1
844.799804688 315.333007812 m 1
 1322.66699219 793.200195312 l 1
 1203.20019531 912.666992188 l 1
 725.333007812 434.799804688 l 1
 844.799804688 315.333007812 l 1
1790.29296875 922.90625 m 1
 1332.90625 1380.29296875 l 1
 1352.45703125 1381.0234375 1371.63769531 1381.36816406 1390.3671875 1381.36816406 c 0
 1568.65429688 1381.36816406 1706.09179688 1350.14746094 1733.12011719 1323.12011719 c 0
 1760.37109375 1295.86816406 1791.17480469 1157.08105469 1791.17480469 976.115234375 c 0
 1791.17480469 958.747070312 1790.890625 940.990234375 1790.29296875 922.90625 c 1
EndSplineSet
Validated: 524289
EndChar

StartChar: u1F3C9
Encoding: 127945 127945 134
Width: 2048
GlyphClass: 2
Flags: MW
HStem: -193.253 173.227 1248.03 173.227
VStem: 217.562 171.558 1658.88 171.558
LayerCount: 2
Fore
SplineSet
1748.48046875 1338.48046875 m 0
 1795.8828125 1290.74121094 1830.4375 1155.3203125 1830.4375 984.190429688 c 0
 1830.4375 720.951171875 1748.67285156 373.216796875 1506.1328125 130.159179688 c 0
 1264.63867188 -111.333984375 917.33203125 -193.25390625 654.505859375 -193.25390625 c 0
 482.985351562 -193.25390625 347.305664062 -158.267578125 299.518554688 -110.481445312 c 0
 252.116210938 -62.7421875 217.561523438 72.6787109375 217.561523438 243.80859375 c 0
 217.561523438 507.047851562 299.326171875 854.782226562 541.866210938 1097.83984375 c 0
 783.360351562 1339.33300781 1130.66699219 1421.25292969 1393.49316406 1421.25292969 c 0
 1565.01367188 1421.25292969 1700.69335938 1386.26660156 1748.48046875 1338.48046875 c 0
662.186523438 975.813476562 m 0
 464.212890625 778.693359375 397.653320312 500.506835938 389.120117188 288.879882812 c 1
 470.186523438 463.813476562 599.040039062 670.3203125 783.360351562 854.639648438 c 0
 966.827148438 1038.95996094 1172.48046875 1167.81347656 1347.41308594 1248.02636719 c 1
 1204.05371094 1242.05371094 887.466796875 1201.09375 662.186523438 975.813476562 c 0
1385.81347656 252.186523438 m 0
 1583.78710938 449.306640625 1650.34667969 727.493164062 1658.87988281 939.120117188 c 1
 1577.81347656 764.186523438 1448.95996094 557.6796875 1264.63964844 373.360351562 c 0
 1081.17285156 189.040039062 875.51953125 60.1865234375 700.586914062 -20.0263671875 c 1
 843.946289062 -14.0537109375 1160.53320312 26.90625 1385.81347656 252.186523438 c 0
EndSplineSet
Validated: 524289
EndChar

StartChar: u1F3CA
Encoding: 127946 127946 135
Width: 2048
GlyphClass: 2
Flags: HMW
HStem: -193.253 173.227 1248.03 173.227
VStem: 217.562 171.558 1658.88 171.558
LayerCount: 2
Fore
SplineSet
1877.33300781 -154 m 1
 1782.61328125 -154 1729.70703125 -122.426757812 1691.30664062 -99.38671875 c 0
 1659.73339844 -80.61328125 1640.10644531 -68.6669921875 1593.17285156 -68.6669921875 c 0
 1545.38671875 -68.6669921875 1526.61328125 -79.759765625 1495.04003906 -99.38671875 c 0
 1455.78710938 -122.426757812 1403.73339844 -154 1309.01367188 -154 c 0
 1214.29296875 -154 1161.38671875 -122.426757812 1122.98632812 -99.38671875 c 0
 1091.41308594 -80.61328125 1071.78710938 -68.6669921875 1024.85351562 -68.6669921875 c 0
 977.06640625 -68.6669921875 958.29296875 -79.759765625 926.719726562 -99.38671875 c 0
 887.466796875 -122.426757812 834.559570312 -154 739.83984375 -154 c 0
 645.120117188 -154 592.212890625 -122.426757812 553.813476562 -99.38671875 c 0
 522.240234375 -79.759765625 502.61328125 -68.6669921875 455.6796875 -68.6669921875 c 0
 408.747070312 -68.6669921875 389.120117188 -79.759765625 357.546875 -99.38671875 c 0
 318.29296875 -122.426757812 265.38671875 -154 170.666992188 -154 c 1
 170.666992188 16.6669921875 l 1
 218.453125 16.6669921875 237.2265625 27.759765625 268.799804688 47.38671875 c 0
 308.053710938 70.4267578125 360.959960938 102 455.6796875 102 c 0
 550.400390625 102 603.306640625 70.4267578125 641.70703125 47.38671875 c 0
 673.280273438 27.759765625 692.053710938 16.6669921875 739.83984375 16.6669921875 c 0
 787.626953125 16.6669921875 806.400390625 27.759765625 837.973632812 47.38671875 c 0
 877.2265625 70.4267578125 930.133789062 102 1024.85351562 102 c 0
 1119.57324219 102 1172.48046875 70.4267578125 1210.87988281 47.38671875 c 0
 1242.453125 28.61328125 1262.08007812 16.6669921875 1309.01367188 16.6669921875 c 0
 1355.94628906 16.6669921875 1375.57324219 27.759765625 1407.14648438 47.38671875 c 0
 1445.546875 70.4267578125 1498.453125 102 1593.17285156 102 c 0
 1687.89355469 102 1740.79980469 70.4267578125 1779.20019531 47.38671875 c 0
 1810.7734375 27.759765625 1829.546875 16.6669921875 1877.33300781 16.6669921875 c 1
 1877.33300781 -154 l 1
1875.62695312 230 m 1
 1781.97683196 230.376399126 1729.47586681 261.711939675 1691.30664062 284.61328125 c 0
 1659.73339844 303.38671875 1640.10644531 315.333007812 1593.17285156 315.333007812 c 0
 1545.38671875 315.333007812 1526.61328125 304.240234375 1495.04003906 284.61328125 c 0
 1456.63964844 261.573242188 1403.73339844 230 1309.01367188 230 c 0
 1214.29296875 230 1161.38671875 261.573242188 1122.98632812 284.61328125 c 0
 1091.41308594 303.38671875 1071.78710938 315.333007812 1024.85351562 315.333007812 c 0
 977.06640625 315.333007812 958.29296875 304.240234375 926.719726562 284.61328125 c 0
 888.3203125 261.573242188 835.413085938 230 740.693359375 230 c 0
 645.973632812 230 593.06640625 261.573242188 554.666992188 284.61328125 c 0
 523.09375 303.38671875 503.466796875 315.333007812 456.533203125 315.333007812 c 0
 409.599609375 315.333007812 389.973632812 304.240234375 358.400390625 284.61328125 c 0
 318.29296875 261.573242188 265.38671875 230 170.666992188 230 c 1
 170.666992188 400.666992188 l 1
 218.453125 400.666992188 237.2265625 411.759765625 268.799804688 431.38671875 c 0
 307.200195312 454.426757812 360.106445312 486 454.827148438 486 c 0
 549.546875 486 602.453125 454.426757812 640.853515625 431.38671875 c 0
 672.426757812 412.61328125 692.053710938 400.666992188 738.986328125 400.666992188 c 0
 786.7734375 400.666992188 805.546875 411.759765625 837.120117188 431.38671875 c 0
 875.51953125 454.426757812 928.426757812 486 1023.14648438 486 c 0
 1117.86621094 486 1170.7734375 454.426757812 1209.17285156 431.38671875 c 0
 1240.74707031 412.61328125 1260.37304688 400.666992188 1307.30664062 400.666992188 c 0
 1354.24023438 400.666992188 1373.86621094 411.759765625 1405.44042969 431.38671875 c 0
 1443.83984375 454.426757812 1496.74707031 486 1591.46679688 486 c 0
 1686.18652344 486 1739.09375 454.426757812 1777.49316406 431.38671875 c 0
 1809.06640625 412.61328125 1828.69335938 400.666992188 1875.62695312 400.666992188 c 1
 1875.62695312 230 l 1
1442.13378906 664.346679688 m 1
 1398.63124434 641.145101249 1371.49961922 614 1309.01367188 614 c 0
 1262.08007812 614 1242.453125 625.946289062 1210.87988281 644.719726562 c 0
 1172.48046875 667.759765625 1119.57324219 699.333007812 1024.85351562 699.333007812 c 0
 930.133789062 699.333007812 877.2265625 667.759765625 837.973632812 644.719726562 c 0
 806.400390625 625.09375 787.626953125 614 739.83984375 614 c 0
 662.874922529 614 636.462599945 654.594402576 576 678 c 1
 853.333007812 955.333007812 l 1
 768 1040.66699219 l 2
 674.429260619 1134.23773157 584.189305274 1168.68252748 432.290650568 1168.68252748 c 0
 430.425434922 1168.68252748 428.550922238 1168.67733382 426.666992188 1168.66699219 c 1
 426.666992188 1382 l 1
 428.921224086 1382.00901887 431.165261074 1382.01355951 433.399222959 1382.01355951 c 0
 642.579982279 1382.01355951 763.423992409 1342.20198415 894.29296875 1211.33300781 c 2
 1442.13378906 664.346679688 l 1
1194.66699219 1168.66699219 m 0
 1194.66699219 1286.48730469 1290.1796875 1382 1408 1382 c 0
 1525.8203125 1382 1621.33300781 1286.48730469 1621.33300781 1168.66699219 c 0
 1621.33300781 1050.84570312 1525.8203125 955.333007812 1408 955.333007812 c 0
 1290.1796875 955.333007812 1194.66699219 1050.84570312 1194.66699219 1168.66699219 c 0
EndSplineSet
Validated: 524289
EndChar

StartChar: u1F3CF
Encoding: 127951 127951 136
Width: 2048
GlyphClass: 2
Flags: MW
HStem: 870 597.333
VStem: 1280 597.333
LayerCount: 2
Fore
SplineSet
1284.26660156 544.879882812 m 2
 1300.90722656 528.239257812 1309.2265625 506.48046875 1309.2265625 484.720703125 c 0
 1309.2265625 462.9609375 1300.90625 441.201171875 1284.26660156 424.560546875 c 2
 1042.7734375 183.067382812 l 2
 1026.1328125 166.427734375 1004.37304688 158.107421875 982.61328125 158.107421875 c 0
 960.853515625 158.107421875 939.09375 166.426757812 922.454101562 183.06640625 c 2
 197.974609375 907.546875 l 2
 181.333984375 924.1875 173.013671875 945.947265625 173.013671875 967.70703125 c 0
 173.013671875 989.466796875 181.333984375 1011.2265625 197.973632812 1027.86621094 c 2
 439.466796875 1269.36035156 l 2
 456.107421875 1286 477.8671875 1294.3203125 499.626953125 1294.3203125 c 0
 521.38671875 1294.3203125 543.146484375 1286 559.787109375 1269.36035156 c 2
 1284.26660156 544.879882812 l 2
1585.81738281 -239.229492188 m 1
 1223.78222656 122.805664062 l 1
 1344.4609375 243.483398438 l 1
 1706.49609375 -118.551757812 l 1
 1585.81738281 -239.229492188 l 1
1279.99902344 1168.66796875 m 0
 1279.99902344 1333.61621094 1413.71679688 1467.33398438 1578.66601562 1467.33398438 c 0
 1743.61425781 1467.33398438 1877.33203125 1333.61621094 1877.33203125 1168.66796875 c 0
 1877.33203125 1003.71875 1743.61425781 870.000976562 1578.66601562 870.000976562 c 0
 1413.71679688 870.000976562 1279.99902344 1003.71875 1279.99902344 1168.66796875 c 0
EndSplineSet
Validated: 524289
EndChar

StartChar: u1F3D0
Encoding: 127952 127952 137
Width: 2048
GlyphClass: 2
Flags: MW
HStem: -71.2266 21G
VStem: 170.667 341.333 682.667 256
LayerCount: 2
Fore
SplineSet
512 1295.81347656 m 1
 512 416.879882812 l 1
 246.61328125 263.280273438 l 1
 197.973632812 370.799804688 170.666992188 489.413085938 170.666992188 614 c 0
 170.666992188 893.040039062 305.493164062 1139.65332031 512 1295.81347656 c 1
938.666992188 663.493164062 m 1
 682.666992188 515.013671875 l 1
 682.666992188 1395.65332031 l 1
 762.026367188 1430.63964844 848.212890625 1453.6796875 938.666992188 1463.06640625 c 1
 938.666992188 663.493164062 l 1
1024 515.866210938 m 1
 1280 367.38671875 l 1
 517.973632812 -71.2265625 l 1
 446.29296875 -19.1728515625 384 44.8271484375 331.946289062 116.506835938 c 1
 1024 515.866210938 l 1
1109.33300781 958.747070312 m 1
 1871.36035156 518.426757812 l 1
 1861.12011719 428.827148438 1837.2265625 343.493164062 1801.38671875 264.133789062 c 1
 1109.33300781 663.493164062 l 1
 1109.33300781 958.747070312 l 1
688.639648438 -171.06640625 m 1
 1450.66699219 269.252929688 l 1
 1716.05371094 115.653320312 l 1
 1560.74707031 -98.533203125 1309.01367188 -239.333007812 1024 -239.333007812 c 0
 904.533203125 -239.333007812 791.893554688 -214.586914062 688.639648438 -171.06640625 c 1
1870.50683594 715.546875 m 1
 1109.33300781 1155.86621094 l 1
 1109.33300781 1463.06640625 l 1
 1506.98632812 1423.81347656 1823.57324219 1110.63964844 1870.50683594 715.546875 c 1
EndSplineSet
Validated: 524289
EndChar

StartChar: u1F3D6
Encoding: 127958 127958 138
Width: 2048
GlyphClass: 2
Flags: MW
HStem: -92 21G<509 509> 885 21G<1487 1487> 1177 205<750.5 1229.5>
VStem: 256 205<408.5 887.5>
LayerCount: 2
Fore
SplineSet
1120 395 m 1
 1243 518 l 1
 1792 -32 l 1
 1670 -154 l 1
 1120 395 l 1
1487 885 m 1
 1295 1077 1047 1177 799 1177 c 0
 702 1177 604 1162 510 1131 c 1
 678 1299 899 1382 1119 1382 c 0
 1340 1382 1562 1298 1731 1129 c 1
 1487 885 l 1
508 1128 m 1
 477 1034 461 936 461 839 c 0
 461 591 561 344 753 152 c 1
 509 -92 l 1
 340 77 256 298 256 519 c 0
 256 739 340 960 508 1128 c 1
509 1130 m 1
 535 1133 561 1135 588 1135 c 0
 831 1135 1123 1004 1364 763 c 1
 876 274 l 1
 635 515 504 807 504 1050 c 0
 504 1077 506 1103 509 1129 c 2
 509 1130 l 1
EndSplineSet
Validated: 1
EndChar

StartChar: u1F3EA
Encoding: 127978 127978 139
Width: 2048
GlyphClass: 2
Flags: MW
HStem: -68.667 170.667 443.333 597.334 1126 170.667
VStem: 341.333 170.667 1024 170.667 1536 170.667
LayerCount: 2
Fore
SplineSet
1706.66699219 1296.66699219 m 1
 1706.66699219 1126 l 1
 341.333007812 1126 l 1
 341.333007812 1296.66699219 l 1
 1706.66699219 1296.66699219 l 1
1792 443.333007812 m 1
 1706.66699219 443.333007812 l 1
 1706.66699219 -68.6669921875 l 1
 1536 -68.6669921875 l 1
 1536 443.333007812 l 1
 1194.66699219 443.333007812 l 1
 1194.66699219 -68.6669921875 l 1
 341.333007812 -68.6669921875 l 1
 341.333007812 443.333007812 l 1
 256 443.333007812 l 1
 256 614 l 1
 341.333007812 1040.66699219 l 1
 1706.66699219 1040.66699219 l 1
 1792 614 l 1
 1792 443.333007812 l 1
1024 102 m 1
 1024 443.333007812 l 1
 512 443.333007812 l 1
 512 102 l 1
 1024 102 l 1
EndSplineSet
Validated: 524289
EndChar

StartChar: u1F3F7
Encoding: 127991 127991 140
Width: 2048
GlyphClass: 2
Flags: MW
HStem: 18 1193<380 427>
LayerCount: 2
Fore
SplineSet
1504 1140 m 2
 1877 614 l 1
 1504 89 l 2
 1473 45 1422 17 1365 17 c 2
 427 18 l 2
 333 18 256 94 256 188 c 2
 256 1041 l 2
 256 1135 333 1211 427 1211 c 2
 1365 1212 l 2
 1422 1212 1473 1184 1504 1140 c 2
EndSplineSet
Validated: 1
EndChar

StartChar: u1F416
Encoding: 128022 128022 141
Width: 2048
GlyphClass: 2
Flags: MW
HStem: 1040.67 256
VStem: 170.667 512 1450.67 426.666
LayerCount: 2
Fore
SplineSet
1692.16015625 998 m 1
 1877.33300781 998 l 1
 1877.33300781 403.2265625 l 1
 1636.69335938 323.013671875 l 1
 1493.33300781 -154 l 1
 1024 -154 l 1
 1024 16.6669921875 l 1
 853.333007812 16.6669921875 l 1
 853.333007812 -154 l 1
 384 -154 l 1
 384 -154 170.666992188 567.919921875 170.666992188 827.333007812 c 0
 170.666992188 1086.74707031 380.586914062 1296.66699219 640 1296.66699219 c 2
 1066.66699219 1296.66699219 l 1
 1144.3203125 1399.91992188 1268.05371094 1467.33300781 1408 1467.33300781 c 0
 1478.82714844 1467.33300781 1536 1410.16015625 1536 1339.33300781 c 0
 1536 1321.41308594 1532.58691406 1305.20019531 1525.75976562 1289.83984375 c 0
 1513.81347656 1260.82714844 1504.42675781 1227.546875 1498.453125 1191.70703125 c 1
 1692.16015625 998 l 1
1109.33300781 870 m 1
 1109.33300781 1040.66699219 l 1
 682.666992188 1040.66699219 l 1
 682.666992188 870 l 1
 1109.33300781 870 l 1
1365.33300781 699.333007812 m 0
 1412.26660156 699.333007812 1450.66699219 737.733398438 1450.66699219 784.666992188 c 0
 1450.66699219 831.599609375 1412.26660156 870 1365.33300781 870 c 0
 1318.40039062 870 1280 831.599609375 1280 784.666992188 c 0
 1280 737.733398438 1318.40039062 699.333007812 1365.33300781 699.333007812 c 0
EndSplineSet
Validated: 524289
EndChar

StartChar: u1F41E
Encoding: 128030 128030 142
Width: 2048
GlyphClass: 2
Flags: MW
HStem: -154 341.333<938.666 1109.33 938.666 1111.04> 358.854 170.666<255.999 517.973 255.999 517.973> 699.333 597.293 1382.48 20G<717.652 717.652 1330.35 1330.35>
VStem: 682.667 682.666
LayerCount: 2
Fore
SplineSet
1792 358 m 1
 1791.99902344 357.146484375 l 1
 1530.02539062 357.146484375 l 1
 1525.75878906 323.866210938 1519.78613281 291.440429688 1511.25195312 259.866210938 c 1
 1731.41210938 132.719726562 l 1
 1646.07910156 -14.90625 l 1
 1443.83886719 102 l 1
 1351.67871094 -52.453125 1198.07910156 -154 1023.99902344 -154 c 0
 849.918945312 -154 696.319335938 -52.453125 604.159179688 102 c 1
 401.918945312 -13.2001953125 l 1
 316.5859375 134.426757812 l 1
 536.74609375 261.573242188 l 1
 528.211914062 293.146484375 522.239257812 325.573242188 517.97265625 358.853515625 c 1
 255.999023438 358.853515625 l 1
 255.999023438 529.51953125 l 1
 517.97265625 529.51953125 l 1
 522.239257812 562.799804688 528.211914062 595.2265625 536.74609375 626.799804688 c 1
 316.5859375 753.946289062 l 1
 401.918945312 901.573242188 l 1
 604.159179688 784.666992188 l 1
 628.052734375 824.7734375 657.065429688 861.466796875 688.638671875 893.893554688 c 1
 685.225585938 914.373046875 682.666015625 934 682.666015625 955.333007812 c 0
 682.666015625 1023.59960938 703.145507812 1087.59960938 738.1328125 1141.36035156 c 1
 597.33203125 1282.16015625 l 1
 717.65234375 1402.48046875 l 1
 865.279296875 1255.70703125 l 1
 897.577148438 1272.62402344 954.206054688 1296.62597656 1025.359375 1296.62597656 c 0
 1072.64257812 1296.62597656 1126.33984375 1286.02734375 1183.57324219 1255.70703125 c 1
 1330.34667969 1402.48046875 l 1
 1450.66699219 1282.16015625 l 1
 1309.86621094 1141.36035156 l 1
 1344.85351562 1087.59960938 1365.33300781 1023.59960938 1365.33300781 955.333007812 c 0
 1365.33300781 934 1362.7734375 914.373046875 1359.36035156 894.747070312 c 1
 1390.93359375 862.3203125 1419.94628906 825.626953125 1443.83984375 784.666992188 c 1
 1646.08007812 900.719726562 l 1
 1731.41308594 753.09375 l 1
 1511.25292969 625.946289062 l 1
 1519.78710938 594.373046875 1525.75976562 561.946289062 1530.02636719 528.666992188 c 1
 1792 528.666992188 l 1
 1792 358 l 1
1109.33203125 187.333007812 m 1
 1109.33203125 699.333007812 l 1
 938.666015625 699.333007812 l 1
 938.666015625 187.333007812 l 1
 1109.33203125 187.333007812 l 1
EndSplineSet
Validated: 524289
EndChar

StartChar: u1F441
Encoding: 128065 128065 143
Width: 1920
GlyphClass: 2
Flags: MW
HStem: -26 213.333 358 512<953.173 1094.83> 1040.67 213.333
VStem: 768 512<543.173 684.827>
CounterMasks: 1 e0
LayerCount: 2
Fore
SplineSet
1024 1254 m 0
 1450.66699219 1254 1815.04003906 988.61328125 1962.66699219 614 c 1
 1815.04003906 239.38671875 1450.66699219 -26 1024 -26 c 0
 597.333007812 -26 232.959960938 239.38671875 85.3330078125 614 c 1
 232.959960938 988.61328125 597.333007812 1254 1024 1254 c 0
1024 187.333007812 m 0
 1259.51953125 187.333007812 1450.66699219 378.48046875 1450.66699219 614 c 0
 1450.66699219 849.51953125 1259.51953125 1040.66699219 1024 1040.66699219 c 0
 788.48046875 1040.66699219 597.333007812 849.51953125 597.333007812 614 c 0
 597.333007812 378.48046875 788.48046875 187.333007812 1024 187.333007812 c 0
1024 870 m 0
 1165.65332031 870 1280 755.653320312 1280 614 c 0
 1280 472.346679688 1165.65332031 358 1024 358 c 0
 882.346679688 358 768 472.346679688 768 614 c 0
 768 755.653320312 882.346679688 870 1024 870 c 0
EndSplineSet
Validated: 524289
EndChar

StartChar: u1F44D
Encoding: 128077 128077 144
Width: 2048
GlyphClass: 2
Flags: MW
VStem: 85 341
LayerCount: 2
Fore
SplineSet
85 -154 m 1
 85 870 l 1
 427 870 l 1
 427 -154 l 1
 85 -154 l 1
1963 785 m 2
 1963 614 l 2
 1963 592 1959 572 1951 552 c 2
 1693 -49 l 2
 1667 -110 1607 -154 1536 -154 c 2
 768 -154 l 2
 674 -154 597 -77 597 17 c 2
 597 870 l 2
 597 917 616 960 648 991 c 2
 1209 1553 l 1
 1300 1463 l 2
 1323 1440 1337 1408 1337 1373 c 2
 1335 1346 l 1
 1254 956 l 1
 1792 956 l 2
 1886 956 1963 879 1963 785 c 2
EndSplineSet
Validated: 1
EndChar

StartChar: u1F44E
Encoding: 128078 128078 145
Width: 2048
GlyphClass: 2
Flags: MW
HStem: 1341 21G
VStem: 1621 341
LayerCount: 2
Fore
SplineSet
1280 1382 m 2
 1374 1382 1451 1306 1451 1212 c 2
 1451 358 l 2
 1451 311 1432 269 1401 238 c 2
 839 -324 l 1
 748 -235 l 2
 725 -212 711 -179 711 -144 c 2
 713 -117 l 1
 794 273 l 1
 256 273 l 2
 162 273 85 350 85 444 c 2
 85 614 l 2
 85 636 89 657 97 677 c 2
 355 1278 l 2
 381 1339 441 1382 512 1382 c 2
 1280 1382 l 2
1621 1382 m 1
 1963 1382 l 1
 1963 358 l 1
 1621 358 l 1
 1621 1382 l 1
EndSplineSet
Validated: 1
EndChar

StartChar: u1F4A1
Encoding: 128161 128161 146
Width: 2048
GlyphClass: 2
Flags: MW
HStem: -240 256<992.5 1055.5> -154 170<682 854 854 877 1171 1194 1171 1171> 102 86<854 1194 854 1194> 272 172<981 1067 981 1194 854 1067>
VStem: 682 172<16 102 188 215 215 238.5> 1194 172<-154 16 16 102 102 102 188 215>
LayerCount: 2
Fore
SplineSet
1024 1382 m 0x7c
 1354 1382 1622 1116 1622 784 c 0
 1622 608 1544 449 1419 338 c 0
 1384 307 1366 262 1366 215 c 2
 1366 16 l 2
 1366 -78 1288 -154 1194 -154 c 2
 1171 -154 l 1x7c
 1142 -205 1087 -240 1024 -240 c 0xbc
 961 -240 908 -205 877 -154 c 1
 854 -154 l 2
 760 -154 682 -78 682 16 c 2
 682 215 l 2
 682 262 664 307 627 340 c 0
 503 448 426 607 426 785 c 0
 426 822 429 860 436 899 c 0
 481 1135 669 1325 905 1370 c 0
 944 1378 985 1382 1024 1382 c 0x7c
1194 16 m 1
 1194 102 l 1
 854 102 l 1
 854 16 l 1
 1194 16 l 1
1194 188 m 1
 1194 272 l 1
 854 272 l 1
 854 188 l 1
 1194 188 l 1
1067 666 m 1
 1223 819 l 1
 1163 881 l 1
 1024 741 l 1
 885 881 l 1
 825 819 l 1
 981 666 l 1
 981 444 l 1
 1067 444 l 1
 1067 666 l 1
EndSplineSet
Validated: 1
EndChar

StartChar: u1F4B3
Encoding: 128179 128179 147
Width: 2048
GlyphClass: 2
Flags: MW
HStem: -68.667 170.667 614 341.333 1126 170.667
VStem: 170.667 170.666 1706.67 170.666
LayerCount: 2
Fore
SplineSet
1706.66699219 1296.66699219 m 2
 1801.38671875 1296.66699219 1877.33300781 1220.71972656 1877.33300781 1126 c 2
 1877.33300781 102 l 2
 1877.33300781 7.2802734375 1801.38671875 -68.6669921875 1706.66699219 -68.6669921875 c 2
 341.333007812 -68.6669921875 l 2
 246.61328125 -68.6669921875 170.666992188 7.2802734375 170.666992188 102 c 2
 171.51953125 1126 l 2
 171.51953125 1220.71972656 246.61328125 1296.66699219 341.333007812 1296.66699219 c 2
 1706.66699219 1296.66699219 l 2
1706.66699219 102 m 1
 1706.66699219 614 l 1
 341.333007812 614 l 1
 341.333007812 102 l 1
 1706.66699219 102 l 1
1706.66699219 955.333007812 m 1
 1706.66699219 1126 l 1
 341.333007812 1126 l 1
 341.333007812 955.333007812 l 1
 1706.66699219 955.333007812 l 1
EndSplineSet
Validated: 524289
EndChar

StartChar: u1F4BB
Encoding: 128187 128187 148
Width: 2048
GlyphClass: 2
Flags: MW
HStem: -68.667 170.667 -68.667 341.334 1126 170.667
VStem: 170.667 170.666 1706.67 169.813
LayerCount: 2
Fore
SplineSet
1706.66699219 102 m 1xb8
 2048 102 l 1
 2048 -68.6669921875 l 1
 0 -68.6669921875 l 1
 0 102 l 1
 341.333007812 102 l 1xb8
 247.466796875 102 170.666992188 178.799804688 170.666992188 272.666992188 c 2
 170.666992188 1126 l 2
 170.666992188 1219.86621094 247.466796875 1296.66699219 341.333007812 1296.66699219 c 2
 1706.66699219 1296.66699219 l 2
 1800.53320312 1296.66699219 1877.33300781 1219.86621094 1877.33300781 1126 c 2
 1876.48046875 272.666992188 l 2x78
 1876.48046875 178.799804688 1800.53320312 102 1706.66699219 102 c 1xb8
341.333007812 1126 m 1
 341.333007812 272.666992188 l 1
 1706.66699219 272.666992188 l 1x78
 1706.66699219 1126 l 1
 341.333007812 1126 l 1
EndSplineSet
Validated: 524289
EndChar

StartChar: u1F4BC
Encoding: 128188 128188 149
Width: 2048
GlyphClass: 2
Flags: MW
HStem: -154 1280<293.973 682.667 341.333 682.667 853.333 1194.67 1365.33 1706.67 341.333 1706.67> 1296.67 170.666
VStem: 682.667 170.666 1194.67 170.666
LayerCount: 2
Fore
SplineSet
1706.66699219 1126 m 2
 1801.38671875 1126 1877.33300781 1050.05371094 1877.33300781 955.333007812 c 2
 1877.33300781 16.6669921875 l 2
 1877.33300781 -78.0537109375 1801.38671875 -154 1706.66699219 -154 c 2
 341.333007812 -154 l 2
 246.61328125 -154 170.666992188 -78.0537109375 170.666992188 16.6669921875 c 2
 171.51953125 955.333007812 l 2
 171.51953125 1050.05371094 246.61328125 1126 341.333007812 1126 c 2
 682.666992188 1126 l 1
 682.666992188 1296.66699219 l 2
 682.666992188 1391.38671875 758.61328125 1467.33300781 853.333007812 1467.33300781 c 2
 1194.66699219 1467.33300781 l 2
 1289.38671875 1467.33300781 1365.33300781 1391.38671875 1365.33300781 1296.66699219 c 2
 1365.33300781 1126 l 1
 1706.66699219 1126 l 2
1194.66699219 1126 m 1
 1194.66699219 1296.66699219 l 1
 853.333007812 1296.66699219 l 1
 853.333007812 1126 l 1
 1194.66699219 1126 l 1
EndSplineSet
Validated: 524289
EndChar

StartChar: u1F4BE
Encoding: 128190 128190 150
Width: 2048
GlyphClass: 2
Flags: MW
HStem: -154 170.667<256 426.667 953.173 1094.83> 528.667 341.333<953.173 1094.83> 1211.33 170.667<426.667 1450.67 426.667 1280>
VStem: 256 170.667<870 1211.33> 256 512<201.84 343.494 201.84 1211.33> 1280 512<201.84 343.494 870 1040.67>
LayerCount: 2
Fore
SplineSet
1450.66699219 1382 m 1xf4
 1792 1040.66699219 l 1
 1792 16.6669921875 l 2
 1792 -77.2001953125 1715.20019531 -154 1621.33300781 -154 c 2
 426.666992188 -154 l 2
 331.946289062 -154 256 -77.2001953125 256 16.6669921875 c 2
 256 1211.33300781 l 2
 256 1305.20019531 331.946289062 1382 426.666992188 1382 c 2
 1450.66699219 1382 l 1xf4
1024 16.6669921875 m 0
 1165.65332031 16.6669921875 1280 131.013671875 1280 272.666992188 c 0
 1280 414.3203125 1165.65332031 528.666992188 1024 528.666992188 c 0
 882.346679688 528.666992188 768 414.3203125 768 272.666992188 c 0xec
 768 131.013671875 882.346679688 16.6669921875 1024 16.6669921875 c 0
1280 870 m 1
 1280 1211.33300781 l 1
 426.666992188 1211.33300781 l 1
 426.666992188 870 l 1xf4
 1280 870 l 1
EndSplineSet
Validated: 524289
EndChar

StartChar: u1F4CB
Encoding: 128203 128203 151
Width: 2048
GlyphClass: 2
Flags: MW
HStem: -239 171<256 427 427 1621> 1041 256<1000.5 1047.5> 1297 171<427 783 427 597 1000.5 1047.5 1451 1451 1451 1621> 1468 171
VStem: 256 171<-68 1297> 1621 171<-239 -68 -68 1297>
LayerCount: 2
Fore
SplineSet
1621 1468 m 2xac
 1715 1468 1792 1391 1792 1297 c 2
 1792 -68 l 2
 1792 -162 1715 -239 1621 -239 c 2
 427 -239 l 2
 333 -239 256 -162 256 -68 c 2
 256 1297 l 2
 256 1391 333 1468 427 1468 c 2xac
 783 1468 l 1
 819 1567 913 1638 1024 1638 c 0
 1135 1638 1229 1567 1265 1468 c 1x9c
 1621 1468 l 2xac
1024 1468 m 0xdc
 977 1468 939 1429 939 1382 c 0
 939 1335 977 1297 1024 1297 c 0
 1071 1297 1109 1335 1109 1382 c 0
 1109 1429 1071 1468 1024 1468 c 0xdc
1621 -68 m 1
 1621 1297 l 1
 1451 1297 l 1xac
 1451 1041 l 1
 597 1041 l 1xcc
 597 1297 l 1
 427 1297 l 1xac
 427 -68 l 1
 1621 -68 l 1
EndSplineSet
Validated: 1
EndChar

StartChar: u1F4CC
Encoding: 128204 128204 152
Width: 2048
GlyphClass: 2
Flags: MW
HStem: 443.333 170.667<426.667 497.494 426.667 936.106 426.667 497.494 1550.5 1621> 1296.67 170.666<573.867 1450.67 597.333 682.667 1365.33 1365.33 1365.33 1450.67>
VStem: 682.667 682.333<799 1296.67 799 1296.67> 936.106 170.667<-154 443.333 -154 443.333>
LayerCount: 2
Fore
SplineSet
1365 870 m 2xe0
 1365 728 1480 614 1621 614 c 1
 1621.33300781 443.333007812 l 1
 1106.7734375 443.333007812 l 1
 1106.7734375 -154 l 1
 1021.44042969 -239.333007812 l 1
 936.106445312 -154 l 1
 936.106445312 443.333007812 l 1xd0
 426.666992188 443.333007812 l 1
 426.666992188 614 l 1
 568.3203125 614 682.666992188 728.346679688 682.666992188 870 c 2
 682.666992188 1296.66699219 l 1
 597.333007812 1296.66699219 l 2
 550.400390625 1296.66699219 512 1335.06640625 512 1382 c 0
 512 1428.93359375 550.400390625 1467.33300781 597.333007812 1467.33300781 c 2
 1450.66699219 1467.33300781 l 2
 1497.59960938 1467.33300781 1536 1428.93359375 1536 1382 c 0
 1536 1335.06640625 1497.59960938 1296.66699219 1450.66699219 1296.66699219 c 2
 1365.33300781 1296.66699219 l 1
 1365 870 l 2xe0
EndSplineSet
Validated: 524289
EndChar

StartChar: u1F4CD
Encoding: 128205 128205 153
Width: 2048
GlyphClass: 2
Flags: MW
HStem: 1083.33 384<965.12 1082.88>
VStem: 426.667 384<811.12 928.88 811.12 1035.12> 1237.33 384<811.12 928.88>
LayerCount: 2
Fore
SplineSet
1024 1467.33300781 m 0
 1354.24023438 1467.33300781 1621.33300781 1200.24023438 1621.33300781 870 c 0
 1621.33300781 422 1024 -239.333007812 1024 -239.333007812 c 1
 1024 -239.333007812 426.666992188 422 426.666992188 870 c 0
 426.666992188 1200.24023438 693.759765625 1467.33300781 1024 1467.33300781 c 0
1024 656.666992188 m 0
 1141.75976562 656.666992188 1237.33300781 752.240234375 1237.33300781 870 c 0
 1237.33300781 987.759765625 1141.75976562 1083.33300781 1024 1083.33300781 c 0
 906.240234375 1083.33300781 810.666992188 987.759765625 810.666992188 870 c 0
 810.666992188 752.240234375 906.240234375 656.666992188 1024 656.666992188 c 0
EndSplineSet
Validated: 524289
EndChar

StartChar: u1F4CE
Encoding: 128206 128206 154
Width: 2048
GlyphClass: 2
Flags: MW
HStem: -324.667 128 102 128<1043.2 1090.13 1043.2 1125.55> 1424.67 128
VStem: 597.333 128 853.333 128 1152 128<315.333 1211.33> 1408 128<144.667 1126>
LayerCount: 2
Fore
SplineSet
1408 1126 m 1
 1536 1126 l 1
 1536 144.666992188 l 2
 1536 -114.747070312 1326.08007812 -324.666992188 1066.66699219 -324.666992188 c 0
 807.252929688 -324.666992188 597.333007812 -114.747070312 597.333007812 144.666992188 c 2
 597.333007812 1211.33300781 l 2
 597.333007812 1399.91992188 750.080078125 1552.66699219 938.666992188 1552.66699219 c 0
 1127.25292969 1552.66699219 1280 1399.91992188 1280 1211.33300781 c 2
 1280 315.333007812 l 2
 1280 197.573242188 1184.42675781 102 1066.66699219 102 c 0
 948.90625 102 853.333007812 197.573242188 853.333007812 315.333007812 c 2
 853.333007812 1126 l 1
 981.333007812 1126 l 1
 981.333007812 315.333007812 l 2
 981.333007812 268.400390625 1019.73339844 230 1066.66699219 230 c 0
 1113.59960938 230 1152 268.400390625 1152 315.333007812 c 2
 1152 1211.33300781 l 2
 1152 1329.09375 1056.42675781 1424.66699219 938.666992188 1424.66699219 c 0
 820.90625 1424.66699219 725.333007812 1329.09375 725.333007812 1211.33300781 c 2
 725.333007812 144.666992188 l 2
 725.333007812 -43.919921875 878.080078125 -196.666992188 1066.66699219 -196.666992188 c 0
 1255.25292969 -196.666992188 1408 -43.919921875 1408 144.666992188 c 2
 1408 1126 l 1
EndSplineSet
Validated: 524289
EndChar

StartChar: u1F4D1
Encoding: 128209 128209 155
Width: 2048
GlyphClass: 2
Flags: MW
HStem: 1382 171<767 1451 597 1621>
VStem: 256 1195<-324 1041 -324 1088> 1621 171<102 1212 1212 1259>
LayerCount: 2
Fore
SplineSet
1621 102 m 1
 1621 1212 l 2
 1621 1306 1545 1382 1451 1382 c 2
 597 1382 l 1
 597 1476 673 1553 767 1553 c 2
 1621 1553 l 2
 1715 1553 1792 1476 1792 1382 c 2
 1792 17 l 1
 1621 102 l 1
1280 1212 m 2
 1374 1212 1451 1135 1451 1041 c 2
 1451 -324 l 1
 853 -68 l 1
 256 -324 l 1
 256 1041 l 2
 256 1135 333 1212 427 1212 c 2
 1280 1212 l 2
EndSplineSet
Validated: 1
EndChar

StartChar: u1F4DE
Encoding: 128222 128222 156
Width: 2048
GlyphClass: 2
Flags: MW
HStem: -154 468 1341 21G
VStem: 256 469<1243.5 1320.5 1243.5 1320.5>
LayerCount: 2
Fore
SplineSet
565 718 m 1
 688 477 886 279 1127 155 c 1
 1315 343 l 2
 1331 359 1353 368 1375 368 c 0
 1384 368 1393 367 1402 364 c 0
 1498 332 1601 315 1707 315 c 0
 1754 315 1792 277 1792 230 c 2
 1792 -68 l 2
 1792 -115 1754 -154 1707 -154 c 0
 906 -154 256 496 256 1297 c 0
 256 1344 294 1382 341 1382 c 2
 640 1382 l 2
 687 1382 725 1344 725 1297 c 0
 725 1190 742 1088 774 992 c 0
 777 983 778 975 778 966 c 0
 778 944 770 922 753 905 c 2
 565 718 l 1
EndSplineSet
Validated: 1
EndChar

StartChar: u1F4E7
Encoding: 128231 128231 157
Width: 2048
GlyphClass: 2
Flags: MW
HStem: -68 21G<294 341 341 1707>
VStem: 172 170 1707 171
LayerCount: 2
Fore
SplineSet
1707 1297 m 2
 1801 1297 1877 1220 1877 1126 c 2
 1877 102 l 2
 1877 8 1801 -68 1707 -68 c 2
 341 -68 l 2
 247 -68 171 8 171 102 c 2
 172 1126 l 2
 172 1220 247 1297 341 1297 c 2
 1707 1297 l 2
1707 956 m 1
 1707 1126 l 1
 1024 700 l 1
 341 1126 l 1
 341 956 l 1
 1024 529 l 1
 1707 956 l 1
EndSplineSet
Validated: 1
EndChar

StartChar: u1F4EB
Encoding: 128235 128235 158
Width: 2048
GlyphClass: 2
Flags: MW
HStem: -239.333 1365.33<294.4 512 341.333 512 853.333 1706.67 341.333 1706.67> 1296.67 341.333<682.667 1194.67 682.667 682.667>
VStem: 170.667 512<614 955.333 955.333 1002.27> 512 170.667<1126 1296.67 614 1638>
LayerCount: 2
Fore
SplineSet
1706.66699219 1126 m 2xe0
 1800.53320312 1126 1877.33300781 1049.20019531 1877.33300781 955.333007812 c 2
 1877.33300781 -68.6669921875 l 2
 1877.33300781 -162.533203125 1800.53320312 -239.333007812 1706.66699219 -239.333007812 c 2
 341.333007812 -239.333007812 l 2
 247.466796875 -239.333007812 170.666992188 -162.533203125 170.666992188 -68.6669921875 c 2
 170.666992188 955.333007812 l 2xe0
 170.666992188 1049.20019531 247.466796875 1126 341.333007812 1126 c 2
 512 1126 l 1
 512 1638 l 1
 1194.66699219 1638 l 1
 1194.66699219 1296.66699219 l 1
 682.666992188 1296.66699219 l 1xd0
 682.666992188 614 l 1
 853.333007812 614 l 1
 853.333007812 1126 l 1
 1706.66699219 1126 l 2xe0
EndSplineSet
Validated: 524289
EndChar

StartChar: u1F4F1
Encoding: 128241 128241 159
Width: 2048
GlyphClass: 2
Flags: MW
HStem: -324 341<550 1451 597 1451> 1212 341<550 1451 550 597>
VStem: 427 171 1451 171
LayerCount: 2
Fore
SplineSet
1451 1552 m 2
 1545 1552 1621 1476 1621 1382 c 2
 1621 -154 l 2
 1621 -248 1545 -324 1451 -324 c 2
 597 -324 l 2
 503 -324 427 -248 427 -154 c 2
 427 1382 l 2
 427 1476 503 1553 597 1553 c 2
 1451 1552 l 2
1451 17 m 1
 1451 1212 l 1
 597 1212 l 1
 597 17 l 1
 1451 17 l 1
EndSplineSet
Validated: 1
EndChar

StartChar: u1F4F3
Encoding: 128243 128243 160
Width: 2048
GlyphClass: 2
Flags: MW
HStem: -154 170.667<604.586 1365.33 682.667 1365.33 682.667 1408> 358 512<0 170.667 0 170.667 1877.33 2048> 1211.33 170.667<682.667 1365.33 682.667 682.667>
VStem: 0 170.667<358 870 358 870> 256 170.667<187.333 1040.67 187.333 1040.67> 512 170.667<16.667 1211.33 16.667 1254 16.667 1289.41> 1365.33 170.667<16.667 1211.33 1211.33 1211.33> 1621.33 170.667<187.333 1040.67 187.333 1040.67> 1877.33 170.667<358 870 358 870>
CounterMasks: 1 e0
LayerCount: 2
Fore
SplineSet
0 358 m 1
 0 870 l 1
 170.666992188 870 l 1
 170.666992188 358 l 1
 0 358 l 1
256 187.333007812 m 1
 256 1040.66699219 l 1
 426.666992188 1040.66699219 l 1
 426.666992188 187.333007812 l 1
 256 187.333007812 l 1
1877.33300781 870 m 1
 2048 870 l 1
 2048 358 l 1
 1877.33300781 358 l 1
 1877.33300781 870 l 1
1621.33300781 187.333007812 m 1
 1621.33300781 1040.66699219 l 1
 1792 1040.66699219 l 1
 1792 187.333007812 l 1
 1621.33300781 187.333007812 l 1
1408 1382 m 2
 1478.82714844 1382 1536 1324.82714844 1536 1254 c 2
 1536 -26 l 2
 1536 -96.8271484375 1478.82714844 -154 1408 -154 c 2
 640 -154 l 2
 569.172851562 -154 512 -96.8271484375 512 -26 c 2
 512 1254 l 2
 512 1324.82714844 569.172851562 1382 640 1382 c 2
 1408 1382 l 2
1365.33300781 16.6669921875 m 1
 1365.33300781 1211.33300781 l 1
 682.666992188 1211.33300781 l 1
 682.666992188 16.6669921875 l 1
 1365.33300781 16.6669921875 l 1
EndSplineSet
Validated: 524289
EndChar

StartChar: u1F4F5
Encoding: 128245 128245 161
Width: 2048
GlyphClass: 2
Flags: MW
HStem: -324 427 1126 427<560.5 753 560.5 1451> 1358 21G
VStem: 427 171 1451 171
LayerCount: 2
Fore
SplineSet
753 1126 m 1x98
 438 1442 l 1
 463 1506 524 1553 597 1553 c 2
 1451 1552 l 2
 1545 1552 1621 1476 1621 1382 c 2
 1621 259 l 1
 1451 429 l 1
 1451 1126 l 1
 753 1126 l 1x98
1688 -291 m 1
 1610 -213 l 1
 1585 -277 1524 -324 1451 -324 c 2
 597 -324 l 2
 503 -324 427 -248 427 -154 c 2
 427 970 l 1
 119 1278 l 1
 239 1399 l 1xb8
 1807 -170 l 1
 1688 -291 l 1
1295 102 m 1
 597 800 l 1
 597 102 l 1
 1295 102 l 1
EndSplineSet
Validated: 1
EndChar

StartChar: u1F4F9
Encoding: 128249 128249 162
Width: 2048
GlyphClass: 2
Flags: MW
HStem: 102 1024<317.5 1365 341 1365>
LayerCount: 2
Fore
SplineSet
1451 742 m 1
 1792 1084 l 1
 1792 145 l 1
 1451 486 l 1
 1451 188 l 2
 1451 141 1412 102 1365 102 c 2
 341 102 l 2
 294 102 256 141 256 188 c 2
 256 1041 l 2
 256 1088 294 1126 341 1126 c 2
 1365 1126 l 2
 1412 1126 1451 1088 1451 1041 c 2
 1451 742 l 1
EndSplineSet
Validated: 1
EndChar

StartChar: u1F4FA
Encoding: 128250 128250 163
Width: 2048
GlyphClass: 2
Flags: MW
HStem: -154 341 17 171<85 256 256 683 1365 1792 1365 1365> 1212 171
VStem: 85 171<188 1212> 1792 170<17 188 141 1212>
LayerCount: 2
Fore
SplineSet
1792 1382 m 2x78
 1886 1382 1963 1306 1963 1212 c 2
 1962 188 l 2
 1962 94 1886 17 1792 17 c 2
 1365 17 l 1x78
 1365 -154 l 1
 683 -154 l 1xb8
 683 17 l 1
 256 17 l 2
 162 17 85 94 85 188 c 2
 85 1212 l 2
 85 1306 162 1382 256 1382 c 2
 1792 1382 l 2x78
1792 188 m 1
 1792 1212 l 1
 256 1212 l 1
 256 188 l 1
 1792 188 l 1
EndSplineSet
Validated: 1
EndChar

StartChar: u1F4FB
Encoding: 128251 128251 164
Width: 2048
GlyphClass: 2
Flags: MW
HStem: -239 171<171 341 526 668> 444 171 956 171
VStem: 171 171 853 1024<117 259> 1365 171<614 785 614 785> 1707 171
LayerCount: 2
Fore
SplineSet
276 1114 m 2xf2
 1355 1553 l 1
 1413 1411 l 1
 708 1126 l 1
 1707 1126 l 2
 1802 1126 1877 1051 1877 956 c 2
 1877 -68 l 2
 1877 -162 1802 -239 1707 -239 c 2
 341 -239 l 2
 246 -239 171 -162 171 -68 c 2
 171 956 l 2
 171 1027 214 1090 276 1114 c 2xf2
597 -68 m 0
 739 -68 853 46 853 188 c 0xf8
 853 330 739 444 597 444 c 0
 455 444 341 330 341 188 c 0
 341 46 455 -68 597 -68 c 0
1707 614 m 1xf6
 1707 956 l 1
 341 956 l 1
 341 614 l 1
 1365 614 l 1
 1365 785 l 1
 1536 785 l 1
 1536 614 l 1
 1707 614 l 1xf6
EndSplineSet
Validated: 1
EndChar

StartChar: u1F504
Encoding: 128260 128260 165
Width: 2048
GlyphClass: 2
Flags: MW
HStem: -68.667 170.667<980.907 1165.23 980.907 1212.59> 1126 170.667<882.773 1067.09>
VStem: 341.333 170.667<614 755.227 614 802.586> 1536 170.667<472.773 614>
LayerCount: 2
Fore
SplineSet
1621.33300781 955.333007812 m 1
 1962.66699219 614 l 1
 1706.66699219 614 l 1
 1706.66699219 236.827148438 1401.17285156 -68.6669921875 1024 -68.6669921875 c 0
 890.026367188 -68.6669921875 765.440429688 -29.4130859375 660.48046875 37.146484375 c 1
 785.06640625 161.733398438 l 1
 855.893554688 123.333007812 937.813476562 102 1024 102 c 0
 1306.453125 102 1536 331.546875 1536 614 c 1
 1280 614 l 1
 1621.33300781 955.333007812 l 1
512 614 m 1
 768 614 l 1
 426.666992188 272.666992188 l 1
 85.3330078125 614 l 1
 341.333007812 614 l 1
 341.333007812 991.172851562 646.827148438 1296.66699219 1024 1296.66699219 c 0
 1157.97363281 1296.66699219 1282.55957031 1257.41308594 1387.51953125 1190.85351562 c 1
 1262.93359375 1066.26660156 l 1
 1192.10644531 1104.66699219 1110.18652344 1126 1024 1126 c 0
 741.546875 1126 512 896.453125 512 614 c 1
EndSplineSet
Validated: 524289
EndChar

StartChar: u1F507
Encoding: 128263 128263 166
Width: 2048
GlyphClass: 2
Flags: MW
HStem: -68 21G<1024 1024> 358 512<256 597 256 660> 1187 176<1195 1195> 1341 21G
VStem: 1621 171<574 749.5>
LayerCount: 2
Fore
SplineSet
1408 614 m 0xc8
 1408 595 1407 578 1404 561 c 1
 1195 770 l 1
 1195 958 l 1
 1321 895 1408 765 1408 614 c 0xc8
1621 614 m 0
 1621 885 1442 1114 1195 1187 c 1
 1195 1363 l 1xe8
 1537 1285 1792 979 1792 614 c 0
 1792 486 1760 366 1704 260 c 1
 1575 389 l 1
 1604 459 1621 534 1621 614 c 0
364 1382 m 1xd8
 1024 723 l 1
 1792 -45 l 1
 1684 -154 l 1
 1510 21 l 1
 1420 -52 1313 -107 1195 -133 c 1
 1195 43 l 1
 1266 64 1330 99 1387 143 c 1
 1024 506 l 1
 1024 -68 l 1
 597 358 l 1
 256 358 l 1
 256 870 l 1
 660 870 l 1
 256 1274 l 1
 364 1382 l 1xd8
1024 1297 m 1
 1024 940 l 1
 846 1119 l 1
 1024 1297 l 1
EndSplineSet
Validated: 1
EndChar

StartChar: u1F508
Encoding: 128264 128264 167
Width: 2048
GlyphClass: 2
Flags: MW
HStem: -238 170<427 597> 102 512<953 1095> 785 171<976.5 1071 976.5 1142> 1297 171<427 1451 976.5 1071 597 1621>
VStem: 427 171 427 427 768 512<287 429> 1195 427 1451 171
LayerCount: 2
Fore
SplineSet
1451 1468 m 2xf880
 1545 1468 1621 1391 1621 1297 c 2
 1621 -68 l 2
 1621 -162 1545 -239 1451 -239 c 2
 597 -238 l 2
 503 -238 427 -162 427 -68 c 2
 427 1297 l 2
 427 1391 503 1468 597 1468 c 2
 1451 1468 l 2xf880
1024 1297 m 0
 929 1297 853 1220 853 1126 c 0
 853 1032 929 956 1024 956 c 0
 1118 956 1195 1032 1195 1126 c 0xf5
 1195 1220 1118 1297 1024 1297 c 0
1024 -68 m 0
 1260 -68 1451 122 1451 358 c 0
 1451 594 1260 785 1024 785 c 0
 788 785 597 594 597 358 c 0xf880
 597 122 788 -68 1024 -68 c 0
1024 614 m 0
 1166 614 1280 500 1280 358 c 0
 1280 216 1166 102 1024 102 c 0
 882 102 768 216 768 358 c 0xf2
 768 500 882 614 1024 614 c 0
EndSplineSet
Validated: 1
EndChar

StartChar: u1F50C
Encoding: 128268 128268 168
Width: 2048
GlyphClass: 2
Flags: MW
HStem: 1362 20G<682.667 853.333 853.333 853.333 1194.67 1365.33 1365.33 1365.33>
VStem: 682.667 170.666<1040.67 1382 1040.67 1382> 810.667 426.666 1194.67 171.52<1040.67 1382>
LayerCount: 2
Fore
SplineSet
1366.18652344 1040.66699219 m 1xd0
 1366.60546875 1040.67089844 1367.02246094 1040.67285156 1367.44140625 1040.67285156 c 0
 1451.50976562 1040.67285156 1535.99902344 955.762695312 1535.99902344 870.852539062 c 2
 1535.99902344 401.518554688 l 1
 1237.33203125 101.999023438 l 1
 1237.33203125 -154.000976562 l 1
 810.666015625 -154.000976562 l 1
 810.666015625 101.999023438 l 1xa0
 511.999023438 402.372070312 l 1
 511.999023438 870.852539062 l 2
 511.999023438 955.762695312 596.48828125 1040.67285156 680.556640625 1040.67285156 c 0
 680.975585938 1040.67285156 681.39453125 1040.67089844 681.813476562 1040.66699219 c 2
 682.666992188 1040.66699219 l 1
 682.666992188 1382 l 1
 853.333007812 1382 l 1
 853.333007812 1040.66699219 l 1
 1194.66699219 1040.66699219 l 1
 1194.66699219 1382 l 1
 1365.33300781 1382 l 1
 1366.18652344 1040.66699219 l 1xd0
EndSplineSet
Validated: 524289
EndChar

StartChar: u1F50D
Encoding: 128269 128269 169
Width: 2048
GlyphClass: 2
Flags: MW
HStem: 273 171<705 879.5> 1212 171
VStem: 256 171<722 934 722 981> 1195 171
LayerCount: 2
Fore
SplineSet
1323 444 m 1
 1748 17 l 1
 1621 -110 l 1
 1195 316 l 1
 1195 383 l 1
 1172 407 l 1
 1075 323 948 273 811 273 c 0
 505 273 256 522 256 828 c 0
 256 1134 505 1382 811 1382 c 0
 1117 1382 1365 1134 1365 828 c 0
 1365 691 1315 564 1231 467 c 1
 1255 444 l 1
 1323 444 l 1
811 444 m 0
 1023 444 1195 616 1195 828 c 0
 1195 1040 1023 1212 811 1212 c 0
 599 1212 427 1040 427 828 c 0
 427 616 599 444 811 444 c 0
EndSplineSet
Validated: 1
EndChar

StartChar: u1F511
Encoding: 128273 128273 170
Width: 2048
GlyphClass: 2
Flags: MW
HStem: 102 341.333 443.333 341.334 784.667 341.333
VStem: 85.333 341.334 768 1194.67 1450.67 341.333
LayerCount: 2
Fore
SplineSet
1079.46679688 784.666992188 m 1x54
 1962.66699219 784.666992188 l 1
 1962.66699219 443.333007812 l 1x58
 1792 443.333007812 l 1x54
 1792 102 l 1
 1450.66699219 102 l 1x94
 1450.66699219 443.333007812 l 1
 1079.46679688 443.333007812 l 1x54
 1009.49316406 244.506835938 820.053710938 102 597.333007812 102 c 0
 314.879882812 102 85.3330078125 331.546875 85.3330078125 614 c 0
 85.3330078125 896.453125 314.879882812 1126 597.333007812 1126 c 0xb4
 820.053710938 1126 1009.49316406 983.493164062 1079.46679688 784.666992188 c 1x54
597.333007812 443.333007812 m 0xb8
 691.200195312 443.333007812 768 520.133789062 768 614 c 0
 768 707.866210938 691.200195312 784.666992188 597.333007812 784.666992188 c 0
 503.466796875 784.666992188 426.666992188 707.866210938 426.666992188 614 c 0
 426.666992188 520.133789062 503.466796875 443.333007812 597.333007812 443.333007812 c 0xb8
EndSplineSet
Validated: 524289
EndChar

StartChar: u1F512
Encoding: 128274 128274 171
Width: 2048
GlyphClass: 2
Flags: MW
HStem: -239 427<977 1071 977 1536> 529 427<977 1071> 1391 162<951 1097>
VStem: 341 512<311 405 311 785 311 832> 597 162<956 1126 956 1244> 1195 512<311 405> 1289 162<956 1126 956 1199>
LayerCount: 2
Fore
SplineSet
1536 956 m 2xea
 1630 956 1707 879 1707 785 c 2
 1707 -68 l 2
 1707 -162 1630 -239 1536 -239 c 2
 512 -239 l 2
 418 -239 341 -162 341 -68 c 2
 341 785 l 2xf4
 341 879 418 956 512 956 c 2
 597 956 l 1
 597 1126 l 2
 597 1362 788 1553 1024 1553 c 0
 1260 1553 1451 1362 1451 1126 c 2
 1451 956 l 1
 1536 956 l 2xea
1024 188 m 0
 1118 188 1195 264 1195 358 c 0
 1195 452 1118 529 1024 529 c 0
 930 529 853 452 853 358 c 0
 853 264 930 188 1024 188 c 0
1289 956 m 1xea
 1289 1126 l 2
 1289 1272 1170 1391 1024 1391 c 0
 878 1391 759 1272 759 1126 c 2
 759 956 l 1
 1289 956 l 1xea
EndSplineSet
Validated: 1
EndChar

StartChar: u1F513
Encoding: 128275 128275 172
Width: 2048
GlyphClass: 2
Flags: MW
HStem: -239 171<341 512 512 1536> 188 341<977 1071> 785 171<512 1289 512 1289 1451 1536> 1391 162<951 1097>
VStem: 341 171<-68 785> 597 162<1126 1199 1126 1244> 853 341 1289 162<956 1126 956 1199> 1536 171<-239 -68 -68 785>
LayerCount: 2
Fore
SplineSet
1024 188 m 0
 930 188 853 264 853 358 c 0
 853 452 930 529 1024 529 c 0
 1118 529 1195 452 1195 358 c 0
 1195 264 1118 188 1024 188 c 0
1536 956 m 2
 1630 956 1707 879 1707 785 c 2
 1707 -68 l 2
 1707 -162 1630 -239 1536 -239 c 2
 512 -239 l 2
 418 -239 341 -162 341 -68 c 2
 341 785 l 2
 341 879 418 956 512 956 c 2
 1289 956 l 1
 1289 1126 l 2
 1289 1272 1170 1391 1024 1391 c 0
 878 1391 759 1272 759 1126 c 1
 597 1126 l 1
 597 1362 788 1553 1024 1553 c 0
 1260 1553 1451 1362 1451 1126 c 2
 1451 956 l 1
 1536 956 l 2
1536 -68 m 1
 1536 785 l 1
 512 785 l 1
 512 -68 l 1
 1536 -68 l 1
EndSplineSet
Validated: 1
EndChar

StartChar: u1F514
Encoding: 128276 128276 173
Width: 2048
GlyphClass: 2
Flags: MW
HStem: -239.333 170.666
VStem: 896 256<1238.64 1296.67 1238.64 1332.08>
LayerCount: 2
Fore
SplineSet
1024 -239.333007812 m 0
 929.280273438 -239.333007812 853.333007812 -162.533203125 853.333007812 -68.6669921875 c 1
 1194.66699219 -68.6669921875 l 1
 1194.66699219 -162.533203125 1117.86621094 -239.333007812 1024 -239.333007812 c 0
1536 272.666992188 m 1
 1706.66699219 102 l 1
 1706.66699219 16.6669921875 l 1
 341.333007812 16.6669921875 l 1
 341.333007812 102 l 1
 512 272.666992188 l 1
 512 699.333007812 l 2
 512 962.16015625 651.09375 1180.61328125 896 1238.63964844 c 1
 896 1296.66699219 l 2
 896 1367.49316406 953.172851562 1424.66699219 1024 1424.66699219 c 0
 1094.82714844 1424.66699219 1152 1367.49316406 1152 1296.66699219 c 2
 1152 1238.63964844 l 1
 1396.05371094 1180.61328125 1536 961.306640625 1536 699.333007812 c 2
 1536 272.666992188 l 1
EndSplineSet
Validated: 524289
EndChar

StartChar: u1F515
Encoding: 128277 128277 174
Width: 2048
GlyphClass: 2
Flags: MW
HStem: -239.333 170.666
VStem: 896 256<1238.64 1296.67 1238.64 1332.08>
LayerCount: 2
Fore
SplineSet
1706.66699219 43.1201171875 m 1
 1792 -44.7734375 l 1
 1683.62695312 -153.146484375 l 1
 1512.95996094 17.51953125 l 1
 341.333007812 17.51953125 l 1
 341.333007812 102.853515625 l 1
 512 273.51953125 l 1
 512 700.186523438 l 2
 512 807.70703125 535.893554688 907.546875 580.266601562 992.026367188 c 1
 580.266601562 992.879882812 l 1
 341.333007812 1231.81347656 l 1
 449.70703125 1340.18652344 l 1
 669.013671875 1114.05371094 l 1
 1706.66699219 43.1201171875 l 1
1024 -239.333007812 m 0
 929.280273438 -239.333007812 853.333007812 -163.38671875 853.333007812 -68.6669921875 c 1
 1194.66699219 -68.6669921875 l 1
 1194.66699219 -163.38671875 1118.71972656 -239.333007812 1024 -239.333007812 c 0
1536 385.306640625 m 1
 773.120117188 1190.85351562 l 2
 773.120117188 1191.70703125 773.973632812 1191.70703125 773.973632812 1191.70703125 c 1
 792.747070312 1201.09375 812.373046875 1210.48046875 832 1218.16015625 c 0
 832.853515625 1219.01367188 832.853515625 1219.01367188 833.70703125 1219.01367188 c 2
 834.559570312 1219.01367188 l 2
 843.09375 1222.42675781 851.626953125 1225.83984375 860.16015625 1228.40039062 c 0
 871.252929688 1231.81347656 883.200195312 1236.08007812 896 1238.63964844 c 1
 896 1296.66699219 l 2
 896 1367.49316406 953.172851562 1424.66699219 1024 1424.66699219 c 0
 1094.82714844 1424.66699219 1152 1367.49316406 1152 1296.66699219 c 2
 1152 1238.63964844 l 1
 1396.05371094 1180.61328125 1536 962.16015625 1536 699.333007812 c 2
 1536 385.306640625 l 1
EndSplineSet
Validated: 524289
EndChar

StartChar: u1F516
Encoding: 128278 128278 175
Width: 2048
GlyphClass: 2
Flags: MW
VStem: 428 1194
LayerCount: 2
Fore
SplineSet
1451 1382 m 2
 1545 1382 1621 1306 1621 1212 c 2
 1621 -154 l 1
 1024 102 l 1
 427 -154 l 1
 428 1212 l 2
 428 1306 503 1382 597 1382 c 2
 1451 1382 l 2
EndSplineSet
Validated: 1
EndChar

StartChar: u1F517
Encoding: 128279 128279 176
Width: 2048
GlyphClass: 2
Flags: MW
HStem: 188 162<479 939 597 939 1109 1451> 529 171<683 1365 683 1365> 879 162<524 939 597 939 1109 1451>
VStem: 171 162<541 687 541 732> 1715 162<541 687>
CounterMasks: 1 e0
LayerCount: 2
Fore
SplineSet
333 614 m 0
 333 468 451 350 597 350 c 2
 939 350 l 1
 939 188 l 1
 597 188 l 2
 361 188 171 378 171 614 c 0
 171 850 361 1041 597 1041 c 2
 939 1041 l 1
 939 879 l 1
 597 879 l 2
 451 879 333 760 333 614 c 0
683 529 m 1
 683 700 l 1
 1365 700 l 1
 1365 529 l 1
 683 529 l 1
1451 1041 m 2
 1687 1041 1877 850 1877 614 c 0
 1877 378 1687 188 1451 188 c 2
 1109 188 l 1
 1109 350 l 1
 1451 350 l 2
 1597 350 1715 468 1715 614 c 0
 1715 760 1597 879 1451 879 c 2
 1109 879 l 1
 1109 1041 l 1
 1451 1041 l 2
EndSplineSet
Validated: 1
EndChar

StartChar: u1F518
Encoding: 128280 128280 177
Width: 2048
GlyphClass: 2
Flags: MW
HStem: -239 171<835.5 1212.5 835.5 1259.5> 188 853<906 1142> 1297 171<835.5 1212.5>
VStem: 171 171 597 853 1707 171
CounterMasks: 1 fc
LayerCount: 2
Fore
SplineSet
1024 1041 m 0
 1260 1041 1451 850 1451 614 c 0
 1451 378 1260 188 1024 188 c 0
 788 188 597 378 597 614 c 0
 597 850 788 1041 1024 1041 c 0
1024 1468 m 0
 1495 1468 1877 1085 1877 614 c 0
 1877 143 1495 -239 1024 -239 c 0
 553 -239 171 143 171 614 c 0
 171 1085 553 1468 1024 1468 c 0
1024 -68 m 0
 1401 -68 1707 237 1707 614 c 0
 1707 991 1401 1297 1024 1297 c 0
 647 1297 341 991 341 614 c 0
 341 237 647 -68 1024 -68 c 0
EndSplineSet
Validated: 1
EndChar

StartChar: u1F525
Encoding: 128293 128293 178
Width: 2048
GlyphClass: 2
Flags: MW
HStem: -239.333 256<923.307 1112.32 923.307 1212.59>
VStem: 341.333 383.147<254.747 353.733 210.374 587.546> 1408.85 297.813<313.2 485.573>
LayerCount: 2
Fore
SplineSet
1152 1580.82714844 m 1
 1485.65332031 1313.73339844 1706.66699219 903.280273438 1706.66699219 443.333007812 c 0
 1706.66699219 66.16015625 1401.17285156 -239.333007812 1024 -239.333007812 c 0
 646.827148438 -239.333007812 341.333007812 66.16015625 341.333007812 443.333007812 c 0
 341.333007812 731.759765625 444.586914062 997.146484375 616.959960938 1201.94628906 c 1
 614.400390625 1171.2265625 l 1
 614.400390625 995.440429688 747.51953125 852.93359375 924.16015625 852.93359375 c 0
 1099.94628906 852.93359375 1215.14648438 995.440429688 1215.14648438 1171.2265625 c 0
 1215.14648438 1354.69335938 1152 1580.82714844 1152 1580.82714844 c 1
999.252929688 16.6669921875 m 0
 1225.38671875 16.6669921875 1408.85351562 200.133789062 1408.85351562 426.266601562 c 0
 1408.85351562 544.879882812 1391.78710938 660.93359375 1358.50683594 771.013671875 c 1
 1271.46679688 654.106445312 1115.30664062 581.573242188 964.266601562 550.853515625 c 0
 814.080078125 520.133789062 724.48046875 422.853515625 724.48046875 284.61328125 c 0
 724.48046875 136.133789062 847.360351562 16.6669921875 999.252929688 16.6669921875 c 0
EndSplineSet
Validated: 524289
EndChar

StartChar: u1F527
Encoding: 128295 128295 179
Width: 2048
GlyphClass: 2
Flags: W
LayerCount: 2
Fore
SplineSet
1937 17 m 2
 1953 5 1962 -15 1962 -36 c 0
 1962 -59 1952 -84 1929 -102 c 2
 1732 -299 l 2
 1715 -316 1694 -324 1673 -324 c 0
 1652 -324 1630 -316 1613 -299 c 2
 836 478 l 1
 773 453 707 441 640 441 c 0
 499 441 357 496 247 606 c 0
 138 715 82 859 82 1002 c 0
 82 1083 100 1163 137 1237 c 1
 512 870 l 1
 768 1126 l 1
 401 1493 l 1
 475 1527 556 1545 637 1545 c 0
 780 1545 924 1491 1033 1382 c 0
 1143 1272 1198 1131 1198 990 c 0
 1198 923 1186 857 1161 794 c 1
 1937 17 l 2
EndSplineSet
Validated: 1
EndChar

StartChar: u1F553
Encoding: 128339 128339 180
Width: 2048
GlyphClass: 2
Flags: MW
HStem: -239.333 170.666 1296.67 170.666
VStem: 170.667 170.666 938.667 128 1706.67 170.666
LayerCount: 2
Fore
SplineSet
1023.14648438 1467.33300781 m 0
 1495.04003906 1467.33300781 1877.33300781 1085.04003906 1877.33300781 614 c 0
 1877.33300781 142.959960938 1495.04003906 -239.333007812 1023.14648438 -239.333007812 c 0
 552.106445312 -239.333007812 170.666992188 142.959960938 170.666992188 614 c 0
 170.666992188 1085.04003906 552.106445312 1467.33300781 1023.14648438 1467.33300781 c 0
1024 -68.6669921875 m 0
 1401.17285156 -68.6669921875 1706.66699219 236.827148438 1706.66699219 614 c 0
 1706.66699219 991.172851562 1401.17285156 1296.66699219 1024 1296.66699219 c 0
 646.827148438 1296.66699219 341.333007812 991.172851562 341.333007812 614 c 0
 341.333007812 236.827148438 646.827148438 -68.6669921875 1024 -68.6669921875 c 0
1066.66699219 1040.66699219 m 1
 1066.66699219 592.666992188 l 1
 1450.66699219 364.827148438 l 1
 1386.66699219 259.866210938 l 1
 938.666992188 528.666992188 l 1
 938.666992188 1040.66699219 l 1
 1066.66699219 1040.66699219 l 1
EndSplineSet
Validated: 524289
EndChar

StartChar: u1F56D
Encoding: 128365 128365 181
Width: 2048
GlyphClass: 2
Flags: MW
HStem: -239.333 170.666
VStem: 173.227 170.667 896 256<1238.64 1296.67 1238.64 1332.08> 1704.11 170.667
CounterMasks: 1 70
LayerCount: 2
Fore
SplineSet
646.827148438 1289.83984375 m 1
 472.747070312 1166.10644531 356.693359375 968.133789062 343.893554688 742 c 1
 173.2265625 742 l 1
 185.172851562 1015.06640625 320 1255.70703125 524.799804688 1411.86621094 c 1
 646.827148438 1289.83984375 l 1
1704.10644531 742 m 1
 1691.30664062 968.133789062 1574.40039062 1166.10644531 1402.02636719 1289.83984375 c 1
 1523.20019531 1411.86621094 l 1
 1727.14648438 1255.70703125 1861.97363281 1015.06640625 1874.7734375 742 c 1
 1704.10644531 742 l 1
1536 699.333007812 m 2
 1536 272.666992188 l 1
 1706.66699219 102 l 1
 1706.66699219 16.6669921875 l 1
 341.333007812 16.6669921875 l 1
 341.333007812 102 l 1
 512 272.666992188 l 1
 512 699.333007812 l 2
 512 962.16015625 651.09375 1180.61328125 896 1238.63964844 c 1
 896 1296.66699219 l 2
 896 1367.49316406 953.172851562 1424.66699219 1024 1424.66699219 c 0
 1094.82714844 1424.66699219 1152 1367.49316406 1152 1296.66699219 c 2
 1152 1238.63964844 l 1
 1396.05371094 1180.61328125 1536 961.306640625 1536 699.333007812 c 2
1024 -239.333007812 m 0
 929.280273438 -239.333007812 853.333007812 -162.533203125 852.48046875 -68.6669921875 c 1
 1193.81347656 -68.6669921875 l 1
 1193.81347656 -92.5595703125 1189.546875 -114.747070312 1181.01367188 -135.2265625 c 0
 1158.82714844 -186.426757812 1113.59960938 -223.973632812 1058.13378906 -235.919921875 c 0
 1047.04003906 -238.48046875 1035.94628906 -239.333007812 1024 -239.333007812 c 0
EndSplineSet
Validated: 524289
EndChar

StartChar: u1F56E
Encoding: 128366 128366 182
Width: 2048
GlyphClass: 2
Flags: MW
HStem: 1297 171<512 939 512 1536>
VStem: 341 171<614 1297> 939 768<614 1297>
LayerCount: 2
Fore
SplineSet
1536 1468 m 2
 1630 1468 1707 1391 1707 1297 c 2
 1707 -68 l 2
 1707 -162 1630 -239 1536 -239 c 2
 512 -239 l 2
 418 -239 341 -162 341 -68 c 2
 341 1297 l 2
 341 1391 418 1468 512 1468 c 2
 1536 1468 l 2
512 1297 m 1
 512 614 l 1
 725 742 l 1
 939 614 l 1
 939 1297 l 1
 512 1297 l 1
EndSplineSet
Validated: 1
EndChar

StartChar: u1F58A
Encoding: 128394 128394 183
Width: 2048
GlyphClass: 2
Flags: MW
HStem: 881.094 21G 1362.21 20G
LayerCount: 2
Fore
SplineSet
256 166 m 1
 1199.78710938 1109.78710938 l 1
 1519.78710938 789.787109375 l 1
 576 -154 l 1
 256 -154 l 1
 256 166 l 1
1767.25292969 1037.25292969 m 2
 1611.09277344 881.092773438 l 1
 1291.09277344 1201.09277344 l 1
 1447.25195312 1357.25195312 l 2
 1463.89257812 1373.89257812 1485.65234375 1382.21289062 1507.41210938 1382.21289062 c 0
 1529.171875 1382.21289062 1550.93164062 1373.89257812 1567.57226562 1357.25195312 c 2
 1767.25195312 1157.57226562 l 2
 1783.89257812 1140.93164062 1792.21289062 1119.171875 1792.21289062 1097.41210938 c 0
 1792.21289062 1075.65234375 1783.89257812 1053.89257812 1767.25292969 1037.25292969 c 2
EndSplineSet
Validated: 524289
EndChar

StartChar: u1F58C
Encoding: 128396 128396 184
Width: 2048
GlyphClass: 2
Flags: MW
HStem: 1362.21 20G
VStem: 341.333 512<131.44 258.16>
LayerCount: 2
Fore
SplineSet
597.333007812 443.333007812 m 0
 738.986328125 443.333007812 853.333007812 328.986328125 853.333007812 187.333007812 c 0
 853.333007812 -1.2529296875 700.586914062 -154 512 -154 c 0
 383.146484375 -154 249.172851562 -87.4404296875 170.666992188 16.6669921875 c 1
 242.346679688 16.6669921875 341.333007812 75.546875 341.333007812 187.333007812 c 0
 341.333007812 328.986328125 455.6796875 443.333007812 597.333007812 443.333007812 c 0
1767.25292969 1242.90625 m 2
 1783.89355469 1226.26660156 1792.21484375 1204.50488281 1792.21484375 1182.74511719 c 0
 1792.21484375 1160.98535156 1783.89453125 1139.22558594 1767.25390625 1122.5859375 c 2
 1002.66796875 357.999023438 l 1
 768.000976562 592.666015625 l 1
 1532.58789062 1357.25195312 l 2
 1549.22753906 1373.89257812 1570.98730469 1382.21289062 1592.74707031 1382.21289062 c 0
 1614.50683594 1382.21289062 1636.26660156 1373.89257812 1652.90625 1357.25292969 c 2
 1767.25292969 1242.90625 l 2
EndSplineSet
Validated: 524289
EndChar

StartChar: u1F5A8
Encoding: 128424 128424 185
Width: 2048
GlyphClass: 2
Flags: MW
HStem: -154 171<683 1365 683 1536> 188 427 444 512<683 1365 683 683> 785 171<1597.5 1621 1621 1644.5> 1041 341<512 1536 512 1536>
VStem: 512 171<17 188 188 188> 1365 171<17 188 -154 444> 1707 171
LayerCount: 2
Fore
SplineSet
1621 956 m 2xdf
 1763 956 1877 842 1877 700 c 2
 1877 188 l 1
 1536 188 l 1
 1536 -154 l 1
 512 -154 l 1
 512 188 l 1
 171 188 l 1
 171 700 l 2
 171 842 285 956 427 956 c 2
 1621 956 l 2xdf
1365 17 m 1
 1365 444 l 1
 683 444 l 1xaf
 683 17 l 1
 1365 17 l 1
1621 614 m 0xdf
 1668 614 1707 653 1707 700 c 0
 1707 747 1668 785 1621 785 c 0
 1574 785 1536 747 1536 700 c 0
 1536 653 1574 614 1621 614 c 0xdf
1536 1382 m 1
 1536 1041 l 1
 512 1041 l 1
 512 1382 l 1
 1536 1382 l 1
EndSplineSet
Validated: 1
EndChar

StartChar: u1F5C0
Encoding: 128448 128448 186
Width: 2048
GlyphClass: 2
Flags: MW
HStem: -68 21G<294 341 341 1707>
LayerCount: 2
Fore
SplineSet
853 1297 m 1
 1024 1126 l 1
 1707 1126 l 2
 1801 1126 1877 1050 1877 956 c 2
 1877 102 l 2
 1877 8 1801 -68 1707 -68 c 2
 341 -68 l 2
 247 -68 171 8 171 102 c 2
 172 1126 l 2
 172 1220 247 1297 341 1297 c 2
 853 1297 l 1
EndSplineSet
Validated: 1
EndChar

StartChar: u1F5C1
Encoding: 128449 128449 187
Width: 2048
GlyphClass: 2
Flags: MW
HStem: -68 171 956 171 956 341<341 853 341 1707 341 853>
VStem: 171 171 1707 171
LayerCount: 2
Fore
SplineSet
1707 1126 m 2xd8
 1801 1126 1877 1050 1877 956 c 2
 1877 102 l 2
 1877 8 1801 -68 1707 -68 c 2
 341 -68 l 2
 247 -68 171 8 171 102 c 2
 172 1126 l 2xd8
 172 1220 247 1297 341 1297 c 2
 853 1297 l 1xb8
 1024 1126 l 1
 1707 1126 l 2xd8
1707 102 m 1
 1707 956 l 1xd8
 341 956 l 1xb8
 341 102 l 1
 1707 102 l 1
EndSplineSet
Validated: 1
EndChar

StartChar: u1F5D1
Encoding: 128465 128465 188
Width: 1920
GlyphClass: 2
Flags: MW
HStem: 1126 170.667 1126 256<810.667 1237.33 810.667 1621.33>
VStem: 512 1024<16.667 1040.67>
LayerCount: 2
Fore
SplineSet
512 16.6669921875 m 2x20
 512 1040.66699219 l 1
 1536 1040.66699219 l 1
 1536 16.6669921875 l 2
 1536 -77.2001953125 1459.20019531 -154 1365.33300781 -154 c 2
 682.666992188 -154 l 2
 588.799804688 -154 512 -77.2001953125 512 16.6669921875 c 2x20
1621.33300781 1296.66699219 m 1xa0
 1621.33300781 1126 l 1
 426.666992188 1126 l 1
 426.666992188 1296.66699219 l 1
 725.333007812 1296.66699219 l 1xa0
 810.666992188 1382 l 1
 1237.33300781 1382 l 1x60
 1322.66699219 1296.66699219 l 1
 1621.33300781 1296.66699219 l 1xa0
EndSplineSet
Validated: 524289
EndChar

StartChar: u1F686
Encoding: 128646 128646 189
Width: 2048
GlyphClass: 2
Flags: MW
HStem: 16.667 170.666 443.333 341.334 1126 341.333
VStem: 341.333 170.667 768 512<279.92 350.747> 938.667 170.666 1536 170.667
LayerCount: 2
Fore
SplineSet
1024 1467.33300781 m 0xf2
 1401.17285156 1467.33300781 1706.66699219 1424.66699219 1706.66699219 1126 c 2
 1706.66699219 315.333007812 l 2
 1706.66699219 150.639648438 1572.69335938 16.6669921875 1408 16.6669921875 c 1
 1536 -111.333007812 l 1
 1536 -154 l 1
 1365.33300781 -154 l 1
 1194.66699219 16.6669921875 l 1
 872.959960938 16.6669921875 l 1
 702.29296875 -154 l 1
 512 -154 l 1
 512 -111.333007812 l 1
 640 16.6669921875 l 1
 475.306640625 16.6669921875 341.333007812 150.639648438 341.333007812 315.333007812 c 2
 341.333007812 1126 l 2
 341.333007812 1424.66699219 682.666992188 1467.33300781 1024 1467.33300781 c 0xf2
640 187.333007812 m 0
 710.827148438 187.333007812 768 244.506835938 768 315.333007812 c 0xfa
 768 386.16015625 710.827148438 443.333007812 640 443.333007812 c 0
 569.172851562 443.333007812 512 386.16015625 512 315.333007812 c 0
 512 244.506835938 569.172851562 187.333007812 640 187.333007812 c 0
938.666992188 784.666992188 m 1xf6
 938.666992188 1126 l 1
 512 1126 l 1
 512 784.666992188 l 1
 938.666992188 784.666992188 l 1xf6
1109.33300781 784.666992188 m 1
 1536 784.666992188 l 1
 1536 1126 l 1
 1109.33300781 1126 l 1
 1109.33300781 784.666992188 l 1
1408 187.333007812 m 0
 1478.82714844 187.333007812 1536 244.506835938 1536 315.333007812 c 0
 1536 386.16015625 1478.82714844 443.333007812 1408 443.333007812 c 0
 1337.17285156 443.333007812 1280 386.16015625 1280 315.333007812 c 0xfa
 1280 244.506835938 1337.17285156 187.333007812 1408 187.333007812 c 0
EndSplineSet
Validated: 524289
EndChar

